<mxfile host="Electron" agent="Mozilla/5.0 (Macintosh; Intel Mac OS X 10_15_7) AppleWebKit/537.36 (KHTML, like Gecko) draw.io/26.1.1 Chrome/132.0.6834.210 Electron/34.3.3 Safari/537.36" version="26.1.1">
  <diagram name="ページ1" id="tEbqHqAZCTZBldohQaBl">
    <mxGraphModel dx="954" dy="617" grid="1" gridSize="10" guides="1" tooltips="1" connect="1" arrows="1" fold="1" page="1" pageScale="1" pageWidth="827" pageHeight="1169" math="0" shadow="0">
      <root>
        <mxCell id="0" />
        <mxCell id="1" parent="0" />
        <mxCell id="PZyw7AxVk-CaaICMxcuE-1" value="docker-compose" style="fillColor=none;strokeColor=#5A6C86;dashed=1;verticalAlign=top;fontStyle=0;fontColor=#5A6C86;whiteSpace=wrap;html=1;" parent="1" vertex="1">
          <mxGeometry x="280" y="20" width="220" height="370" as="geometry" />
        </mxCell>
        <mxCell id="PZyw7AxVk-CaaICMxcuE-2" value="" style="shape=actor;whiteSpace=wrap;html=1;" parent="1" vertex="1">
          <mxGeometry y="25.599999999999994" width="40" height="60" as="geometry" />
        </mxCell>
        <mxCell id="PZyw7AxVk-CaaICMxcuE-8" style="edgeStyle=orthogonalEdgeStyle;rounded=0;orthogonalLoop=1;jettySize=auto;html=1;startArrow=classic;startFill=1;" parent="1" source="PZyw7AxVk-CaaICMxcuE-6" target="PZyw7AxVk-CaaICMxcuE-7" edge="1">
          <mxGeometry relative="1" as="geometry" />
        </mxCell>
        <mxCell id="PZyw7AxVk-CaaICMxcuE-35" value="webページ概要" style="edgeLabel;html=1;align=center;verticalAlign=middle;resizable=0;points=[];" parent="PZyw7AxVk-CaaICMxcuE-8" vertex="1" connectable="0">
          <mxGeometry x="0.2324" y="-3" relative="1" as="geometry">
            <mxPoint y="1" as="offset" />
          </mxGeometry>
        </mxCell>
        <mxCell id="PZyw7AxVk-CaaICMxcuE-6" value="chrome拡張機能" style="sketch=0;pointerEvents=1;shadow=0;dashed=0;html=1;strokeColor=none;fillColor=#434445;aspect=fixed;labelPosition=center;verticalLabelPosition=bottom;verticalAlign=top;align=center;outlineConnect=0;shape=mxgraph.vvd.web_browser;" parent="1" vertex="1">
          <mxGeometry x="50" y="25.599999999999994" width="90" height="63.9" as="geometry" />
        </mxCell>
        <mxCell id="PZyw7AxVk-CaaICMxcuE-20" style="edgeStyle=orthogonalEdgeStyle;rounded=0;orthogonalLoop=1;jettySize=auto;html=1;startArrow=classic;startFill=1;" parent="1" source="PZyw7AxVk-CaaICMxcuE-7" target="PZyw7AxVk-CaaICMxcuE-13" edge="1">
          <mxGeometry relative="1" as="geometry" />
        </mxCell>
        <mxCell id="PZyw7AxVk-CaaICMxcuE-7" value="localhost:xxxx" style="image;aspect=fixed;html=1;points=[];align=center;fontSize=12;image=img/lib/azure2/networking/Local_Network_Gateways.svg;" parent="1" vertex="1">
          <mxGeometry x="242" y="89.49999999999999" width="68" height="68" as="geometry" />
        </mxCell>
        <mxCell id="PZyw7AxVk-CaaICMxcuE-12" value="dbコンテナ" style="fillColor=none;strokeColor=#5A6C86;dashed=1;verticalAlign=top;fontStyle=0;fontColor=#5A6C86;whiteSpace=wrap;html=1;" parent="1" vertex="1">
          <mxGeometry x="337.5" y="230" width="130" height="130" as="geometry" />
        </mxCell>
        <mxCell id="PZyw7AxVk-CaaICMxcuE-10" value="" style="image;sketch=0;aspect=fixed;html=1;points=[];align=center;fontSize=12;image=img/lib/mscae/Docker.svg;" parent="1" vertex="1">
          <mxGeometry x="260" width="50" height="41" as="geometry" />
        </mxCell>
        <mxCell id="PZyw7AxVk-CaaICMxcuE-18" style="edgeStyle=orthogonalEdgeStyle;rounded=0;orthogonalLoop=1;jettySize=auto;html=1;exitX=1;exitY=0.5;exitDx=0;exitDy=0;startArrow=classic;startFill=1;" parent="1" edge="1">
          <mxGeometry relative="1" as="geometry">
            <mxPoint x="460" y="103.5" as="sourcePoint" />
            <mxPoint x="570" y="103.60000000000002" as="targetPoint" />
          </mxGeometry>
        </mxCell>
        <mxCell id="jCeaHCtWG9kB4qD1j8BQ-3" value="概要リクエスt" style="edgeLabel;html=1;align=center;verticalAlign=middle;resizable=0;points=[];" vertex="1" connectable="0" parent="PZyw7AxVk-CaaICMxcuE-18">
          <mxGeometry x="0.1555" y="1" relative="1" as="geometry">
            <mxPoint y="-2" as="offset" />
          </mxGeometry>
        </mxCell>
        <mxCell id="PZyw7AxVk-CaaICMxcuE-28" style="edgeStyle=orthogonalEdgeStyle;rounded=0;orthogonalLoop=1;jettySize=auto;html=1;entryX=0;entryY=0.5;entryDx=0;entryDy=0;startArrow=classic;startFill=1;" parent="1" edge="1">
          <mxGeometry relative="1" as="geometry">
            <mxPoint x="632" y="102.60000000000002" as="sourcePoint" />
            <mxPoint x="702" y="100.17499999999995" as="targetPoint" />
            <Array as="points">
              <mxPoint x="703" y="103" />
            </Array>
          </mxGeometry>
        </mxCell>
        <mxCell id="PZyw7AxVk-CaaICMxcuE-36" value="概要生成" style="edgeLabel;html=1;align=center;verticalAlign=middle;resizable=0;points=[];" parent="PZyw7AxVk-CaaICMxcuE-28" vertex="1" connectable="0">
          <mxGeometry x="0.0693" y="-2" relative="1" as="geometry">
            <mxPoint x="-3" as="offset" />
          </mxGeometry>
        </mxCell>
        <mxCell id="jCeaHCtWG9kB4qD1j8BQ-5" style="edgeStyle=orthogonalEdgeStyle;rounded=0;orthogonalLoop=1;jettySize=auto;html=1;startArrow=classic;startFill=1;" edge="1" parent="1" source="PZyw7AxVk-CaaICMxcuE-16">
          <mxGeometry relative="1" as="geometry">
            <mxPoint x="605" y="250" as="targetPoint" />
          </mxGeometry>
        </mxCell>
        <mxCell id="jCeaHCtWG9kB4qD1j8BQ-7" value="html取得" style="edgeLabel;html=1;align=center;verticalAlign=middle;resizable=0;points=[];" vertex="1" connectable="0" parent="jCeaHCtWG9kB4qD1j8BQ-5">
          <mxGeometry x="-0.1118" y="-1" relative="1" as="geometry">
            <mxPoint as="offset" />
          </mxGeometry>
        </mxCell>
        <mxCell id="jCeaHCtWG9kB4qD1j8BQ-8" style="edgeStyle=orthogonalEdgeStyle;rounded=0;orthogonalLoop=1;jettySize=auto;html=1;entryX=1;entryY=0.75;entryDx=0;entryDy=0;startArrow=classic;startFill=1;" edge="1" parent="1" source="PZyw7AxVk-CaaICMxcuE-16" target="PZyw7AxVk-CaaICMxcuE-13">
          <mxGeometry relative="1" as="geometry">
            <Array as="points">
              <mxPoint x="550" y="140" />
              <mxPoint x="550" y="140" />
            </Array>
          </mxGeometry>
        </mxCell>
        <mxCell id="jCeaHCtWG9kB4qD1j8BQ-9" value="urlアクセス" style="edgeLabel;html=1;align=center;verticalAlign=middle;resizable=0;points=[];" vertex="1" connectable="0" parent="jCeaHCtWG9kB4qD1j8BQ-8">
          <mxGeometry x="-0.1817" y="-3" relative="1" as="geometry">
            <mxPoint as="offset" />
          </mxGeometry>
        </mxCell>
        <mxCell id="PZyw7AxVk-CaaICMxcuE-16" value="" style="outlineConnect=0;dashed=0;verticalLabelPosition=bottom;verticalAlign=top;align=center;html=1;shape=mxgraph.aws3.internet;fillColor=#D2D3D3;gradientColor=none;" parent="1" vertex="1">
          <mxGeometry x="570" y="83.74999999999999" width="70" height="79.5" as="geometry" />
        </mxCell>
        <mxCell id="PZyw7AxVk-CaaICMxcuE-25" value="&lt;div&gt;OpenAI&lt;/div&gt;" style="points=[[0,0],[0.25,0],[0.5,0],[0.75,0],[1,0],[1,0.25],[1,0.5],[1,0.75],[1,1],[0.75,1],[0.5,1],[0.25,1],[0,1],[0,0.75],[0,0.5],[0,0.25]];outlineConnect=0;gradientColor=none;html=1;whiteSpace=wrap;fontSize=12;fontStyle=0;container=1;pointerEvents=0;collapsible=0;recursiveResize=0;shape=mxgraph.aws4.group;grIcon=mxgraph.aws4.group_on_premise;strokeColor=#7D8998;fillColor=none;verticalAlign=top;align=left;spacingLeft=30;fontColor=#5A6C86;dashed=0;" parent="1" vertex="1">
          <mxGeometry x="710" y="77.65" width="90" height="87.05" as="geometry" />
        </mxCell>
        <mxCell id="PZyw7AxVk-CaaICMxcuE-11" value="apiコンテナ" style="fillColor=none;strokeColor=#5A6C86;dashed=1;verticalAlign=top;fontStyle=0;fontColor=#5A6C86;whiteSpace=wrap;html=1;" parent="1" vertex="1">
          <mxGeometry x="322.5" y="50" width="160" height="150" as="geometry" />
        </mxCell>
        <mxCell id="PZyw7AxVk-CaaICMxcuE-34" style="edgeStyle=orthogonalEdgeStyle;rounded=0;orthogonalLoop=1;jettySize=auto;html=1;startArrow=classic;startFill=1;" parent="1" source="PZyw7AxVk-CaaICMxcuE-13" target="PZyw7AxVk-CaaICMxcuE-9" edge="1">
          <mxGeometry relative="1" as="geometry" />
        </mxCell>
        <mxCell id="PZyw7AxVk-CaaICMxcuE-13" value="Rails API&lt;div&gt;仮想サーバー&lt;/div&gt;" style="points=[[0,0],[0.25,0],[0.5,0],[0.75,0],[1,0],[1,0.25],[1,0.5],[1,0.75],[1,1],[0.75,1],[0.5,1],[0.25,1],[0,1],[0,0.75],[0,0.5],[0,0.25]];outlineConnect=0;gradientColor=none;html=1;whiteSpace=wrap;fontSize=12;fontStyle=0;container=1;pointerEvents=0;collapsible=0;recursiveResize=0;shape=mxgraph.aws4.group;grIcon=mxgraph.aws4.group_on_premise;strokeColor=#7D8998;fillColor=none;verticalAlign=top;align=left;spacingLeft=30;fontColor=#5A6C86;dashed=0;" parent="1" vertex="1">
          <mxGeometry x="345" y="91" width="115" height="65" as="geometry" />
        </mxCell>
        <mxCell id="PZyw7AxVk-CaaICMxcuE-9" value="postglesql" style="strokeWidth=2;html=1;shape=mxgraph.flowchart.database;whiteSpace=wrap;" parent="1" vertex="1">
          <mxGeometry x="372.5" y="290" width="60" height="60" as="geometry" />
        </mxCell>
        <mxCell id="jCeaHCtWG9kB4qD1j8BQ-1" value="" style="shape=image;imageAspect=0;aspect=fixed;verticalLabelPosition=bottom;verticalAlign=top;image=data:image/png,iVBORw0KGgoAAAANSUhEUgAAAyAAAALaCAIAAABGbKD0AAAAAXNSR0IArs4c6QAAIABJREFUeJzs3XtcTPn/B/APldxGiGGZZYXQJitaKbnkkrSJJWyEdVmXZbew7pdyzTXrLpcWLTZ3kUWiUK7tFoouIqV01f0yM83vj8/u+Z3vOTPTVCfFvp6P/pg58znnfGaac+Z9Pp/353NqKRQKAgAAAADCqV3dFQAAAAD41CDAAgAAABAYAiwAAAAAgSHAAgAAABAYAiwAAAAAgSHAAgAAABAYAiwAAAAAgSHAAgAAABAYAiwAAAAAgSHAAgAAABAYAiwAAAAAgSHAAgAAABAYAiwAAAAAgSHAAgAAABAYAiwAAAAAgSHAAgAAABAYAiwAAAAAgSHAAgAAABAYAiwAAAAAgSHAAgAAABAYAiwAAAAAgSHAAgAAABAYAiwAAAAAgSHAAgAAABAYAiwAAAAAgSHAAgAAABAYAiwAAAAAgSHAAgAAABAYAiwAAAAAgSHAAgAAABAYAiwAAAAAgSHAAgAAABAYAiwAAAAAgSHAAgAAABAYAiwAAAAAgSHAAgAAABAYAiwAAAAAgSHAAgAAABAYAiyA/zqFQlHdVQAA+NQgwIKPT0BAwPB/rV69urqr83E7ffp0hw4dHj9+XN0VAQD4pNTCxSvHn3/+mZ6ezjwdOXJkgwYN+MWysrJu3LjBPG3Xrl2PHj0+TA1v3rwZExMzffr0WrVqab5WYWGhh4dHUVERs2TevHktWrSomjpWrfPnz48cOZI+trKyCg4OJoSEh4eHh4fXq1evbt26tWv/c+VQWloqlUrz8vJ69er14MGDFi1a1K1bV1tbm7NBmUxWUFCQlpY2cODAVq1aEUKCgoKePXvWvHnz+vXr6+joaGlpVb7acrlcKpUWFRWlp6e3bt36m2++ocu3bdv24sULPT09kUiko6OjZgsKhUIqlebn5ycnJ+/du1fpN7NcsrKyOnfunJqaSqvx888/v3//fseOHY0aNapbt66WllaZ3zG5XC6TybKysmxsbHr16lXJ+nzsOnXq1KpVqwEDBlhYWHz99deNGjWq7hoBQPVRwP8SiUTszycjI0NpsZiYGHYxc3PzD1O95ORkWkMbG5ukpCTNV3z37h3nX5+YmFiVNa1CQUFBzLsYOXIkXTh16lQ13/MlS5ZocjgEBwfTra1YsUKzA6iCJk+ezLwdExOTCmwhMzOzkh9jcXGxjY0Ne5s7d+4MDQ2t2Dtas2ZNmXuUyWTm5uaDBw++dOmSTCarZP1rmpcvX3I+k7t371Z3pQCg2nAv5eGzzz7Lzc1lnjZu3FhpsWbNmrGfNm/evOqrRnJycuzs7Gj1rl692rlz58OHD48ePVqTdTkVJoTo6elVTTWVePXq1evXr1NTU9PS0rKysho3btysWbPmzZt37Njx888/L+/W2E1QTJNP06ZN1azCiZs/Ad7e3k2bNtXV1VXVyCSTyXJycrKzs7/66itbW1vOq3K5fNq0aVevXmWWGBgYODs7v379umL1UXWksO3bt+/evXuEkOvXrxsYGLi6uk6YMEGTFT8K165dYz81MDD4+uuvhd1FcXGxtra2IO2pahQVFeXn5+vr63OWKxQK2mBZWloqk8nkcjnzlDbNvn79+unTp7NmzapXr16V1hDgo6A8wJLL5SkpKewltWrVol0nfO/evZPJZMxTLS2tli1bKi2ZkpIil8uZp3Xr1uUfw5pLT08vLi5mnurq6vJjiAqoW7cu+ynT2cShq6vLfsrvdRJcfn7+yJEjw8LCmCW5ubmOjo6hoaHm5uZlrs5/I1V9mqYNQpcvXz5//nx0dLSqMkZGRg4ODuPHj//yyy813Cy75nXq1KEP1HeufYB/0Ac2f/58DUtOmTKFE2Dl5ORMmDDBz8+PvfD8+fN6enrqP0Y1ylzx9evXc+bMYZ6+fPly7ty5c+fOXbVq1bx58z723jSFQrFjxw72EldXV2G/dUVFRYMGDSopKTl48GDFWj01tG3btmXLltHHIpGIfcGpicDAwDNnznDOkAD/QcqP/+LiYolEwlmYlJTEj7GKi4v54VRBQQH/CqagoOCzzz7jLJRKpRU+B40dOzYwMJB5am1tzU6KqjAN66Mq8KoiWVlZ9vb2d+/e5Sz38vLSJLpSqlwpXOV17969hQsX3r59u8ySkZGRkZGRGzZscHFxWblyZZMmTcpcRWnN2f84Nzc3PT296OjovXv30iVGRkY//fQT8xNoYGAwfvz4/fv30/QjQoiDg4O+vn6HDh3oUwsLi3HjxjVr1qxevXra2tqcb8WFCxciIiLoY0tLS2tra/p4zZo1TJnFixdzYg6ag1VYWJiZmTlo0CBm+dixYx0cHCIiIi5cuECXiEQidvL+8ePHHz58SB+bmZk1a9bsypUrZX5KDE4b4bNnz8aMGRMZGcle6Ofn17VrV/4Xm31FxGdubs5UrMx4XVVE6O7uvm3bto0bN06dOpUJlz86QUFBnI90woQJAm5foVDMnDmTngG6deu2YsWKpUuXcq4Gq0J5oytCyOXLl7/77jtfX99P76oGoHxU9R1aWVlxSp47d45f7M6dO/xtMoksbPzf2sGDB1emd5P5VaOsra0rszWGqampJp8Pu/GMEDJq1ChB9q5UfHy8kZER/3P29vYu13Y43WSFhYVVUdv8/HxnZ2eNv4D/QyQS+fr6qtpyXFxcUlJSZmZmQEAAs4q9vX1qampcXNyqVauYhTQ77datW8yS+/fvsz8Bmrk1ffp0psDDhw81f49eXl7MiitWrGCWsz/h8n68Bw8eZNbt378/+yV2etnSpUs3bdpUrk/14MGDdDtFRUXu7u78AseOHWP29fz5c/ZLpmop3YsqT548mTlzppp6GhgYhIaGlutDqzkGDx7Mfi8LFy4UdvseHh6cj8vExOTJkyfC7oXaunVrub5gfCKRKDs7uyrqBvARUXmFYWNjwwmJQkJCRowYwSnGTjdmBAcH8+MzfuvLkCFDyn/k1hTsXtEq7W67c+fOsGHD+NeRvr6+jo6OVbTTCktLSxs+fDjNs6mA3NzcMWPGXLhwYfjw4fxX27dvz1/o5+cnFosJIU5OTuXdXWZmJvNY6YDKyMjIBQsWNGvWrEGDBtra2kzrDtN8RQj5448/srOzmfozy11dXZn2GJqzkp+fn5mZ6eXlpaq3XUMtW7a0sbFhp0/Z2Ni0bduWeSqTyQ4fPsw8NTAwoA+8vLzYYSjl5+fHz9BisLukK8nY2Hjv3r1r1qw5dOjQtm3bmLZDBj9J/GNx5syZ69evs5fUqlVrz549mo/RLi0tLSkpycnJSUpKWrduHefbGBYWtnjxYs4qERERXbt29fLyYl8nlOnp06ctWrRQnzNa+YaxvXv3fux9vgCVpzLAGjBgAGcJuz2AobRXLjAwkOnCZ/BDMU4T1Ie3du3aGzdufP7553p6etra2rTjiTM8cN68eUrX5bRg+fr6tm7dmrZ4yWSy3NzcN2/eWFhYsPuMyksmk23btm3RokX8ly5dumRnZ1fhLVeRt2/fWllZ8X8mf/jhBzs7u5CQkI0bNzILvby8+vbtGxAQ4OHhkZiYyC7v4OBw9+5dCwuLcu1dKpUyj+fMmdOiRQtOYwxfQkIC81hpgPX27dsyO+Oio6OVZpjt27dPafns7OxKBljOzs7Ozs7t27dnPupffvll4MCBTIGYmBh2gPXFF1/QBzNmzDh+/DgT/opEIn9//5YtWzZp0uTAgQNjx46tTK001KxZs0WLFrm6unp5eS1dupQdkk6aNEl9f7dCoQgNDS3vF6Oq5efnz549m7OQ/VUvryVLlnC+jV999dW+ffuUtv/98MMPz58/37hxo4b9cT///HNBQcGNGzfq16+vqkzz5s3NzMy++OILfX39evXq6erq6ujo0OR6+oBOXEIfaGtrT5w4kb26gYHBh/kuAdR0qpq2OAEElZubyy6Tn5+varOc/hH2jx8lEokqOU678l2E/NOisNhD8csrPj6e3wpIBQQEVGybVdpFKJVK+/fvz6mqra1tVFQULcCZRoHpkisuLv7pp584K4pEoqysLM4u1H/a6tvzlHYRMk8NDAyUvqkKN8WpkZCQoHRf7C5CNZYuXUrLs/ukvLy82Js6f/48exWpVMq8xASdNjY2dJ6OMWPG0CXOzs5ZWVmcqPSoWuxMzTK7CPmSk5MnT57MbKHMaUfoRZqPj095d1Slli9fXtHvgnKxsbFKdxQXF8c/xCh7e3vOyVkppuXV2tr6/fv3grx9/jX20aNHBdkywMdOZaZ2nTp17O3tOQs50z0/ePBA1eqckk+ePOEUsLOz+wCj2D5SPj4+7dq142etGRgYPHnyhN1WUXOsX7+e08Y5c+ZMPz+/zp0706d//fUX+9UuXbrQB3Xq1Pn1118PHTrEfjU3N9fb25uzi/79+zs6Ojo7OzN9XpSDg4OVlVV5+zVSU1OZ5hOa383HyVK3tbW1s7Ozs7NjBxYGBgZ2/1JamDPgS6jM33bt2jGPY2Nj2S+xDzdDQ0P2Hjt16rRw4cJdu3b5+/u3bt36/v37vr6+9KVjx45NnDiRE8g2VYudk15aWqqmtu/eveNPANGyZUtvb+87d+6YmJhs3LixzIa93bt30+Txbdu21ZAZkmNiYtauXfth9mVgYHDjxo1du3bxX/Lz87O0tHz79q36LezZs4c+CAwM/Prrr589e1b5Wq1cuZL9VCKRjBs3rvKbBfgUqAm++Efy+vXr2QWUJsxSGzZsYJekZ0a2w4cP8/cok8meP3/u6+u7Zs2aXbt2nTlzRs1kmKpasGQyWVRU1IkTJ9auXevr6xsTEyOXy5VuoQa2YEVGRqrq+7Ozs6vk3JKcFqz8/PzKbI0tKSmJU9t58+aVlpYyBThNmIaGhvyNzJ07l11GLBaXlJQo3R3nI6KDKtjZRRKJxMjIiB0G8VuwLl26xLy6bt06pTv6+++/2Tti6lOuJHdOm1BKSorSfZW3BWvLli3MQhsbG/am2DlVU6dOVfVfy8zM5ISqoaGh/GshDdGUI6Xkcjltehk3bty9e/f4BUpLS9nfFqXevHnD3t3IkSOFaoOpMKlUypmpVRBv3rxRv9/w8HCad8ihPuedf5BWfnpkfge60hM7wH+Tuovpfv36cZbcvn2bPSM2Z2I9tsDAQHZWJj8Bi9PW/fLlSxcXF87EPNTgwYP37NnDjJ9Xb+vWrQsWLOAsNDAwOHHiBH/SP4lEIhaLW7ZsWb9+fS0tLZrCzGk3UtVPl5GRwR6VLRaLO3XqRK/j5XJ5QUFBSkpKmzZtNKkzlZaWtmbNmp07dyp9dcWKFatWrRK2za9Tp05z5syZNGmSqnnLNMcZdmRiYuLh4cGeTIHTxNKzZ0/+RjZt2vTHH38wuc+pqakXL14cNWoUp1hJScnly5fZS/bt28f5N92/f79Vq1ZBQUGqulRoGfX1qSIazo7Bzly+ceMGP7ONft+okJCQ0tJS+gWWyWTsnz3+UUzJZLLvvvuOvdmffvrJ3Ny8wlntBQUFql46cOAAbd08efLkyZMnLS0tFyxY8M033zBNa5p8JpwA9Ny5c56enh9yslwOuVw+ffp09lADQoiLi4vS7CuFQsFpYX316hUzbQ0dA0FPHYWFhWW25JmYmISEhPTv35+dvOjt7W1sbKxmLX4258KFC9XvSD2FQsHJtZVIJOPHj6/MNgE+KWqCr9LSUv51EpPPUeb8KEVFRcx2OG0n7JSX0tJSTvcQn0gk4k/9wGnBMjc3Z+dz8HGa31TRcJoGdn40IWTWrFmabFypnJyczZs3q5lq3NXVtcIbZ1O1Cycnp+Dg4DKbEFThfxP+/vtvTpnTp0+zC2zatEnppjh3blY61p0zXIt68OBBeadpYMdeOTk5SuvDiTYCAwODg4ODg4PZUzo5OzsH/4td+Pr163Shj48Pe7kmLVjqp2mgCzkjA2JiYujyR48esZerSujh5L0ZGhrSJJ4KB1gbN25UuqNXr14pLW9iYhIUFKR0Fb74+HjO6o6OjhquWxXkcvkPP/zAqZJEIlGVCMW/URU7Ma5ikpKSmNlbZs+erb4wf4iSqalphQ95ij+MowJ5eACfMHUtWLVq1bKxsTl27Bh7YWRkJM0p4eT/isXiwsJC9m/t48eP6Xif2NhYzm/wsGHDmMezZ89WNd6KkZub27dv32PHjqmZu+/evXvqU5KXLl3auXNn5ibBlcQZBFCxxJq4uLj9+/fv27dPfbSqydyblXH8+PHjx48bGhq6uLg4OTmVt1WA0+bn6OjYrVs3ThnOJB2qLrXHjRvHTumIi4vjl/n999/5CydMmODg4MA8DQ8PT0lJYecIXr9+feXKlcznfO7cOfbq33//fVFRUXJy8rx589iX4JxpNpWOez127BjnGKE4EyOp2maFtW7d2sDAgGmCCg4Opq28Z8+eZcqIxWKlc1ts376dM+346dOnGzZsSAjp3r17Xl5evXr1yjWVbkFBAZ25W6FQcJqjVDXKRkRE9OvXb8yYMZs2bWLPMaEUvzefM7w3MzNz7ty5+vr6zZs3Z25TXZmpdGmyQVFRUWpq6rt37/bt28fci0mhUPz888/sbmLq999/p58hH6d7TiKRVD4Vr1WrVrdv36bd5du2bVNTsqSkROk4x8p8PlFRUZxRjZaWluovcQH+c9THX0ePHuWU37dvH31p6dKl7OXTp09n/8Kxr2iPHDnC2cj58+fpS+wZIxkikcjU1FRpcwt7nJGaWR44mSUMiURSZuKRhi1YnFSVefPmaRzUKqRS6Y0bNzQP9VavXq35xtXQ8H58S5YsSU9P13yzrq6u7NX9/Pz4ZTj/EVVZJpxULRMTE06BCswrTWk4ZxgnkYg/eVvlvX79Wul7L28LlkKhYDei2NnZKRSKkpISdqvzzJkzOXspKSlh36+GoilcNjY2IpHIwMDAsPwMDAxoxhs/m00mk507d079/AvMWUUpThMgP+dMoVBw+qAFx5x5SktLOV94au3atWreAmdcp1CzItOh3Pzxthz8/zjnC1ZehYWF/Hv1PH/+vDLbBPj0lBFg8Qf+ODs705fMzMzYy48dO7Z9+3b2EuYkyBmfTy83FQpFQUEB53dXLBbfvn2b5qTL5fIDBw5wVlyyZAlTN6UBlpOTU2pqKv2pZmcxa3ge1DzA4vz0siumSnFx8fXr12fPnq0+0JFIJJyP5QMHWJS7u3uZJ27K0tKSvWJxcTGnAOfHz8jISM3WOL3SnFf5XwkNaRjOcgIsf3//iu1ODWbeCg5OjpGIhb2cHWBxIo/MzMyLFy+yl3A61tPT05UeNba2tgqFQpDb282fP1/VfzY4OJg/MJnasWOHqrXevn3L/96GhYVxin2wACsjI4N/W4UxY8aon3Tml19+YZefPn26msLC4l8kl5kOXyb+XY9UdRAD/JeVEWDx2x7EYrFCocjKyuIcYHFxcZypGZjfWs4WmKEr/FGKL1++5OydP/E086vP/6lwcHDgZDZw0mJo5oH696thgHXixAl2sTITvFauXKlJfOPh4VFQUODm5sZeWEUBVkREhPp72ohEIg8PjzLn12H/f5V+vJ6enuzNckaYqq8k+yWZTMZvm+TfNFMpDUd77d27l73HkpKSu3fvPnnyJCYmJi4u7hULZ/ofU1PT+Pj4V8rEx8fHxcXFxMQ8efJE6Rg6qryjCGnAxH5p165d7AhGIpFwxs9yvtuMDxNgUWFhYZxrM4lEwuRrcuTn53MKK22W+5ABFr1427BhA/OStbV1mVPKGRoasremJqAUFnskB8PT07My22Tu78kwNDSsfEoZwKen7ACLM3ie9nFwGodo1MWfTfTevXv8scHu7u50y5yEKqXnzbS0NM7qTB4lP8BSejs5fjFVszZQnJ8ZVXmgnMlvyrwtICfph0MkErm7uzOzMHyYAIuGv3FxcfweBE7dPD091XStsgsrTT3mfKTR0dGqNsUJ3On3isHOLmJMnjyZpquzg0V3d/ft27dv377d09Nz/fr1q1atCg0NDQ0NjYyMjImJmTVrFlPSzc0tLi4uOjr6yZMnt27dYm6g9urVq5iYmKysrIKCAqlUKufhNMYEBQXxy3BIpdKioqKcnJzY2Fj+FAMVCLAUCgWnX56NPX8ExZmyiEEDLBsbGxMTE3rv6sFlYa9uZGTUv39/S0tLQ0ND5uhWQyqVsi+uVN19Ui6XM5OgMgwNDfPy8viFP2SARdFLLBsbmzKzDvh1448CqQp3797lX9RZW1urPwGqpzTdsAbO/gpQE5SdaDlw4EBOmur9+/c5I5Vo0rq2tra9vT17qoXbt2/zmxyYiIczXunatWv8ex3ycW5lwzA0NFQ62P77778PDAxkL0lMTFQzgUJRURH7aUlJCc3e5WDfjY4QwkynqcqIESN++OEHfmKsgYGBq6vr+PHjqzqTnY/ODGlgYLBz584lS5Zs2bKF09RE5ebmurq6btiw4fLly/xPmBNg8W9AFh4ezv6sTExMOnbsqKpKnCmj2PNHSKVSpVNmy+XyTZs2RUdHs78Y06ZNa9q0KR3JX7du3aCgICaft6io6MyZM0zJGTNmKJ2lYtOmTcysjJpQNRuCKj/99NOvv/6qpgD7wuDp06f8O/dR48ePv3DhgtKX+M2TLi4uzDhNsVjM2aa/v7/mie2dOnVibhC0cuVK5tYo6qcbpbS1tX/88cfhw4f/+OOPKSkp/Jk46CwSP//8MzMJKuPkyZMNGjTgl2/atOmUKVP09fUbNGhAM9w1fCNq0CAvPz8/Ly+Pf3iOGzfO0NDQyMiozBluOcMyRCKR+vkUBHHz5k3+taVIJPL29i7X8AW2c+fOqWrznjBhwtWrV3ft2oVbEAL8vzJDsIyMDM4qLi4unDYJZnI5zi+0nZ0dPyGUdgcUFhZWrMJjxoyh++KcPhwcHJTWn5+nrP5WM5wcoLdv3/LL8Kf80eTW8ZzWuHHjxl2/fl3p1eSHacHi92u8fv1a6f3O6Kk5LS1N6WbZMTRtC2HjDCzavHmzmhqy25Y4M7Wyo3z2fZ0nTJhAC3Cmadi0aRPzlN1Gwpkg3tbWVmkLRFVPQssfV1+BJHd6HCmdc5L5WDhoXrynpyd73JmtrW14eDiNujRMcmfvi64lkUhEIlF507eVfvj5+flKo65K9m1Vi+TkZM67cHJyqtI9ymQyzrx0jLt371Z4s+zLElUMDAyQ6g7AKDvA4uez85udmYOK07JFG5bYT+3t7WlJpSPwNWFmZka3wAmwVM1YzZ/X59ixY2re7OvXr/9m4adsKxQKTpuBqjvZ8S1cuNDS0vLAgQMZGRlqilVXgEU9f/6cP5u8mnFe7HnDRSIRe/p1/vSYcXFxqraTk5PDKcx0vObn57Mrz+5vVRVgZWZmMqtIJBL6f5RKpZwvJJ1igF+ZjyXAUigUSofoP3v2TOmHHB4eTod5sieCt7W15WcrVgx/4Gd5RUdHKx1y6OTkVJm+rerC73+/fft21e3uzZs3qoZXX79+vWLblMlk/FxYpT8EdGGFb5YK8InRaC6WoUOHPnz4kHnKGSovFouZHy3+BEhMPwLF5BozsxiXecRyNG7cWOlyTsIvg99Upj4tuk2bNupnYJdKpZwxQUqvtpVSOstzTdOpU6dLly5du3Zt1qxZNEIyMTHhDwVlsGdays3NvXbtGhOfcRL4zM3NVc2goXRe6UGDBtEH9erVs7CwoLNm29raqtkIo0mTJsuXL6ezVycmJh4/fnzy5MleXl6cLyTdOH/1L774gk70X69ePV1dXTqHfkFBAadB1NzcnP+l5UyFamlpWb9+fdqbWVxcXFhYmJqaqrSfS6kym3unTZvGmRTK0dGRP9KNMjExoc3PNeRefmwymczT01Pp9OJTp07dt29fhfu2qsu5c+c4Q3nMzMz69OlTFfvKysravn07Z6pedk2Yo6lcsrOzJ02axO+Gtra29vPz8/Ly4vRR5ObmDho0aP/+/fyJWAH+czSJwjg5TBycFm9VI7Gpp0+fMiU5bQmapMeycS7UlN7eTuksXGXe6ku99evXczYYHh5emQ3yVW8LFqOgoICmPanvWeB0ukkkEjpZOf9cf/XqVVUb4YzK5E/jzkydf/fuXdqfRalqwQoPD2cPmjM0NExMTFQawdPRgmXe2E4mk3HuYvvDDz/wi1V4xiN2C5apqemDBw/27dvn7OzM6QHkt2DxO8GNjIzKzLzevHkzU57dgiUSicRiMXunYmXYu6Or0M+2Yi1YhYWF3t7e/MZFysXF5WNsu+LfH4w9BaCAXr58uXr1alVXpyKRKDAwsGJbDg8PV/pPsbKyYoYaqBq+s3jx4krOFA/wsdMowMrPz1d6CFH79+9nF1Yzp7BYLGYfcpy5H+lMiXzp6elRLEwPFL8lXOkYeP7d6Cpz2HOCCUFumMpXQwIsis4rpgan/47iNzKpmduQP5W/SCTi39na1dWVxitlBlhKe0lU/QIpFApfX1+RSLRv3z5Vt9MuKSmZNGkSZ8WVK1fevHmTPajt/v37nL1oMuFQaWlpcnIy+y6fanACrPj4eKXvy9nZWf33nBNgyWQy5shKT09npg2ztLRUml/I/t09efIkXSiTyTRJRmR78uTJunXrlKaRKX2/H4urV6/y/y9M/qgg4uPjPT09+dNYsFlaWiYmJlZg48zFFZ+VlRXn1lL8rz01c+ZM9dODAXzaNAqw6BBuVccw5yeEfX8SDnbOskKhYM8lQ4WGhnL2W1BQwJm8h2kF4f+I2tnZcaZj4c8Uz6RwlVdJScmaNWv4b+rx48cV26AaNSrA0oSqjgk2ejdAjpiYGHbGOmPXrl38wq9evaLj28sMsNQTiUTsG9+yB58rbYDJz8/nJ6WxmZmZLV68mHPzGQ0bZcs7vwA74Hj16pWa/m4XFxc1MRYnwGK/xAmOLS0t+e1hSgMsDZWUlNy8eXP+/PnqO+vFYrG/v3+5tlwTFBUVcVIImLejKnzXXHJysr+//5pSbkMLAAAgAElEQVQ1a9THVdSiRYuUppCW6ebNm6p64Z2dnZWeN16+fKm0rWvSpEmYIgv+szQNsNinYzaRSMRpvS8pKVF1wB8/fpxdMisri3PlKhaLT506RTeYnZ19/vx5zizhhoaGzCWR0laKUaNG0R7AoqIipdMmbd26tQIfU0REhNJJGhcvXlyBrZXpowuwUlNT1f9YcmZWzMzMPH36tKq79RkZGbEz5fk4AVZSUtLevXuV/iSMGzfO0tKSU7cjR46wM2PY3XOWlpb83eXk5OzZs2fcuHHlmgrf0dFRk44tuVxers0yAVZYWFiZk6zOnDlT1U+smgCLM4eq0vdSrgDr+fPnQUFBvr6+K1eutLe31+T9zpkzp7yNYTXB33//rWo218qM4AsMDFSVVKfU1KlT+ZM2l0kul1+6dMnKykrVZteuXasmZM/MzOScrqkxY8aoP5wBPlWaBlj84YGU0oklVV3u8yfrO378uNKSqrIx2AMA1dyLUFWPg6GhYXkv6e7fv6/qDqYjR46sohPHRxdg0dYUVVe9s2bNomXWrFnj5OSk/qfC1NT03bt36vfFCbCUfltEItHp06dpZw17ua2tbWlpKSfAYp6q6qemSktLnz9/fuDAAU2CLUNDw82bN6u6MQ6bqkESdnZ2u3btiomJ4Y8i5HdV09sq82djt7KyUjrViJoAS6FQcPL0CSFr1qxhFyhXgKVJcwvDxMSkMrFItZDL5f7+/qouGMqcGqZMnPnh1HBycqrYRAmqmqAokUh07ty5MjeSk5OjNMZycHBQNVk/wCdM0wBLKpUq/UVR2pXDHgHOUHoHutLSUvYgf/XGjRvHbm1WE2CpcuXKFc0/mjVr1qgZrebg4FCx5ndNcAKs8qb/q8J5C0qnJ6iMxMREJycn9vdEJBKx56BSFaoyrKysNLkBIifAYvf3UQsXLqRJ6/xWTHqvZXaAJZPJfvrpJ/qY04utVFpa2oULF5Te8VcpIyOj9evXx8TEqNoguzI2NjYbNmwIDg5m/3fYAdaYMWOUXsDMnTuXzn7CP05FItGJEyc4O1UfYCmN4dijQ9iNZ2UGWIsXL9bkg3J0dLx169ZHlxn97Nkz9aHJrVu3Kr8XNWlqzKcXERFR4e1LpVJV45Ps7e2VxuhKvX//Xmk8rcmVBsAnRtMAS6FQ8G9bofSuq6pugMUZFMaQSqX8cXl8EyZM4PTlcwIsTso8H+c2c2VSGiZSbm5uVdrozbmlycqVKwXZLOddlHmTwYopLi6+devWmTNnIiMjOf+yzMxMVb8TIpFoz549Gn6qf//9N7Oik5NTaGgo+ymdaquoqIgfAx06dIhugR3TsO82w9xeJiYmJigo6OLFi0ePHt25c6e7u7urq+ukSZPK1VPDYWlpeeTIEf6dXmJiYjw8PMLCwlRlq6iZI4NydnZmus75twSlOGNd2QEWc192Dk5ev4ODw5w5c1auXMmZD7bMAIvTiMghEonc3NwqOba3GhUVFalqszc1NX316pUge1E164G1tfWBAwfKHImiiby8PE7/Jp35vbzbyczM5BwmFy9erHz1AD465Qiw+Ld5EYlESn8SlKZhqW89ioiIUJVHb2Nj4+/vz09n4dyFbd26dTExMUpvzWZqasqeHkJz/EkCDQwMlCZrC4vTJCNIppdcLue8l8qn3FYA//4zYrHYzc2tXAk37FnZHB0dZTKZWCzu37//o0ePaIHU1FT+ZfSWLVuYLfDHLVJMH7TSuwapIZFI9uzZk5yc7OPjo/7G0iKRqMxbg3Owp4fgt6pOnjyZcxjeu3eP0441atQozjbZVzWDBw9Wul8mIOa3EbLRmUvV4E8hS5vNtmzZ8ujRo08gCTo/P5+furRlyxYBL8PYdw0yMjJydXU9f/68qpsrVFhUVBSzl4ULF6qfD1mN169fM5dSR48eFbaSAB+LcgRYH4BcLo+Pj/f39/f19T1x4sTdu3f5aVtlkslksbGxfn5+vr6+V69ercy1XX5+PnOaEIvFu3btKnN6IUFwbvildL6l8nr37h3nB4B2ln1gzO2cTU1NXV1db968WYHfV/bMT/QWSZz3kp2dzYlyOFn2p0+fVhorxMfH0wLsf716dnZ2Pj4+nJ/SpKSkzZs3q+o5oslhmmN3o7u4uLC/HmvWrFHapxYbG8veO/9/ze6GtrKyUrXrmzdvhoeHq8oQoDS5erG0tBSJRLa2tqtXrw4ODhY2/68mYOZpoyGvUA1XjLS0tPnz51+9erXCQY+G3NzcnJ2dmQOhwugtND7GuxsBCKVmBVg1kI+Pz6hRoy5duvQhr7MPHDgwhoXd9FJhOTk5s/9XmVNrVpH4+PhK/r5eunSpzOBAKpVOmTKFltmzZw/n1ezsbP4QvJ07d7LLeHh4qAop6NT2p06dUv8ZlpaW3rhxg5Pa4urqWt73y04cnjx5cmRkJG0Ju3Tpkpq1srOzadMX/7Y8CoWCPcm+0vxIDv58cpSG0X9aWton0FKl3saNGydPnhwdHV3dFakpNM/cAvgk1aqBd8wAUO/YsWMTJ06kj/v373/z5k2lxWQy2ZQpU6ysrKZPn85/VSqVhoWFZWVlyWSy+vXrd+7cuVWrVuwCcXFxY8aMad68ecuWLVu2bNm8efPWrVsbGRl16tRJV1e3XBWOjIz89ddfvby8zMzM7ty5U6dOnXKt/uWXX9KgiiaZ/f7771u3bh0zZsznn39e5rq//fZb3759+R2LM2bMYCad7969+59//ql+OwEBAX///XdhYSFN9mrUqFGTJk0sLCy6dOlSrvcCAPAfgQALPj5SqbSoqIg+1tXVLW+8Ul1SU1O1tLT09fXLuyKNaehjLS2tj+6WfAAA/0EIsAAAAAAEhkthAAAAAIEhwAIAAAAQGAIsAAAAAIEhwAIAAAAQGAIsAAAAAIEhwAIAAAAQGAIsAAAAAIEhwAIAAAAQGAIsAAAAAIEhwAIAAAAQGAIsAAAAAIEhwAIAAAAQGAIsAAAAAIEhwAIAAAAQGAIsAAAAAIEhwAIAAAAQGAIsAAAAAIEhwAIAAAAQGAIsAAAAAIEhwAIAAAAQGAIsAAAAAIEhwAIAAAAQGAIsAAAAAIEhwAIAAAAQGAIsAAAAAIEhwAIAAAAQGAIsAAAAAIEhwAIAAAAQGAIsAAAAAIEhwAIAAAAQGAIsAAAAAIEhwAIAAAAQGAIsAAAAAIEhwAIAAAAQGAIsAAAAAIEhwAIAAAAQGAIsAAAAAIEhwAIAAAAQGAIsAAAAAIEhwAIAAAAQGAIsAAAAAIEhwAIAAAAQGAIsAAAAAIEhwAIAAAAQGAIsAAAAAIEhwAIAAAAQGAIsAAAAAIFpV3cFAKCC8vLyQkJCmjZt2rNnT7rk8ePH2dnZFhYWdevWLXP1t2/flpaWSiQS9sJHjx7FxcX16NGjQ4cOlayeQqHo2bOno6PjxIkTnz9/rq2tLZfL69WrJ5fLtbS0CCFSqVQikchksvj4+Pr169eqVUvpdmQyWUFBwYABA86cOdOgQQNmeWlpae3atUeMGKHq3Y0bN2737t1paWnFxcXsl0pLSzt16lT5NwgAoI4CAARlZWVFCFmyZAmzZMqUKYSQXbt2MUtsbW0JIXPmzFG1kcjISEKIRCJRs6P4+HhCyODBgzm7TktLK7OS+fn5pqamIpHoypUr7OVLliwhhBw+fLjMLSgUioSEBH9/fw8PD09Pz4CAgIyMDE4BQsj8+fNPnDjBnHBMTU3Z5581a9Zs3rxZkzNVQkICf6FIJFq7du36f61evfr69esKhSIrK4t+FMeOHTMxMeGvuHfvXk3eIABAhaEFC0Bgo0aNun37dkREBLPk1q1bhJCgoKAff/yRLnn8+DEhxMHBQdVGaBNU06ZN1exIR0eHEFK7dm3OEto+pEZmZubw4cPDwsIMDQ2NjY3ZL+nq6mqyhYKCgkWLFu3atYu9UCQSnTt3buDAgYSQd+/e0ZAoNTU1MTGRvv1vvvlm+PDhqampffv2ffToUdOmTZ2cnLS0tL788su6devq6uru3r37+PHjd+/eXb9+fXBw8J9//qlQKHJycnR0dJo3b37ixInvvvvul19++e6772bPnv3y5UsDA4Ply5ez67Bnz54mTZqMGDEiMTFx1apVEyZM8PT0FIvFM2fOpAUSEhJ+++03+jYBAKoOAiwAgQ0ZMoQQEhwcLJPJtLW1Y2NjX758SQg5depUSUlJnTp1Xr58mZqaSgjp06cPsxZt72G6yWgEoK2t/Aj18PBITU3NyckhhPz1118LFy6ky58+fUoIWblypY6OTosWLRYtWsRf9969e5MmTYqOjra0tPTz82vSpEl532BmZqaVlVVkZKSRkVGPHj2OHTtmZ2fXs2dPd3f3QYMGHTx4cOrUqVeuXPn+++9pG5KBgQEh5OTJk7m5uc2aNWvUqFHr1q0fPXrUtWtX+tKmTZv27NnDbN/S0pLzIDs7u27duj169KCPU1JScnJy6tSpc/DgQWNj40WLFi1YsODUqVOzZ882NjZ++fJlYmLigQMHXr9+nZKSQoO806dP003RDw0AoKohyR1AYF26dJFIJLm5uU+ePCGEXLt2jbbuEEJCQ0MJISEhIbT5ijZThYWFDR06VE9Pr3bt2pMnT2Y3fRFCrly5MmzYsBYtWvTo0WPDhg1SqZQQcv36dU9Pz0OHDtHoYfO/aNy2a9cuT0/Py5cvcyqWnZ09d+7c3r17R0dHjxw58tq1a6qiq7y8PDVvcNmyZZGRkY6OjhEREb169SKEDB8+3M3NLSAggBAybdq09PT0Pn36bNmyhb7x8ePH0+wuZguFhYXR0dFffvklfUo/h8OHD9vb29NQzMrKSiQSnTx5sn///kzLHOXl5TVs2DDahdq5c2dCSEpKSrNmzWiHqbGx8ejRo8PCwvT19deuXbtu3Tpah97/6t69O83rqtD/FgBAUwiwAIRHM69pIHXp0iXa5kSjJabHcNiwYTS66tGjx9WrV62trW1sbI4cOdKnT583b97Q7YSFhQ0bNuzOnTtGRkZhYWFLly6dOnUqIcTb2zsuLo6Ga1ZWVq/+RfONoqKi4uLifvvtN6Y+mZmZBw4cMDQ0pJ16hoaGvr6+9evXV1X/H3/8cciQIadOnSoqKuK8FB8fv2/fPiMjoyNHjmhpaf311180rCGEDBw4cNKkSYSQgICADh060O3n5ua+ePGCEHLkyBGRSBQXF5eenk6DzsLCQhpN0na7V69evX//nu4iPz8/NzeXPuBUYN26denp6TTw0tLSMjc3v337Nv1UJRJJkyZNatWqVVpa+u2330okkpUrV44ePXr69OmN/2VoaOji4tKhQwfaZAgAUFWqOwkM4BN08eJFmoxFm4KMjIyys7NpZKNQKOjAvbi4OIVCYWNjQ/vR6IqHDx8mhDg7OyclJdEjdNGiRfn5+QqFgraHEUKio6NpYZrbZGNjw+zX0NCQjs6jT2Uy2cWLFx0dHZnjne7OzMxMVc3d3NwIIWKxmJYXi8Xbt2/Py8tjCpw5c4YQ4ubmplAopFIpbZljCuzdu5dGk6WlpWZmZvwTDmfQoqurq0Kh2Lx5s6WlpbW1Nc1MJ4RYs1haWtJPIDo6mlZ+5syZYrGYjgCgFfb29qaflUKhOHv2LLNx+oEoFRoaWjX/fAAABZLcAapE3759aecgbawaNWpUo0aNbG1tr1y5EhAQkJiYaGBgQNOPaCvXjh07du/eTZPHCSE3b95kNuXm5kZ70IyNjfv373/r1q1nz5517NiREEJnH6CdhrQHMDo6WiwWM5lbtWrV2rt3L202mzp16oIFC3R0dDSZnmDLli3GxsYeHh6+vr4uLi4rVqzYvXu3s7MzISQmJoYQQjvabt26lZub6+TkxMyeQBurxGLxxYsXHz58SAgZN26ctra2j4/PoUOH/P39ly1bplAoevToMXny5BUrVjRo0ODKlSsZGRk0NT4+Pv727duGhoac7DQ3NzfaBEgIycjIiI+PLywsrFOnDiFk4sSJbm5uNN+LZrJHRUWJxWLaWzpt2jSFQsF8IDKZbNGiRaampnZ2dhVIPgMA0BwCLADh6enp0WCI5iENHTqUEGJvb3/lypXVq1cTQkaOHEl/73Nzcwkh7du3Z9Y1MjJiz2LFTj+izUVMRNWiRYvAwMDGjRvTpzSQ+vbbb5nytWvX/vXXX52cnIYPH96oUSPabKZJ/RUKRffu3f/44w83N7dffvnl8uXLzHjGFi1a0CDG3t6eth45OTnRl3Jzc2kuubGxsbu7++DBg+/du9e2bdtevXr5+Ph07dp16tSpo0ePph2gAQEBtNkpNjbWx8enfv36tIGKvseTJ0/SpzQMzcvLW79+Pd2Li4vLnDlzBg0aRAu0a9fOwcHhwoULjo6OX3zxBSFkxowZo0aN6ty5s1QqZdL/2cLCwsLCwr766qtOnTqV578KAFAe1d2EBvBpoqEVjRhonx0dS0jR6ZqYTr1Xr17Rp7m5uVu2bHn69CnTRcjMU0U7GQkh4eHh/N09e/aMhibMlpWKjY3VpIvwyJEj7IX3799nHjMhGh3iZ2NjU1paqlAoMjMzzc3NmXm5goKCgoKCRCLRokWLaJ8d7Z2klaS9pWfOnPHz86ObvXPnDn1p48aNERERtD3P2dmZ2e/79+/pQgMDA9qDSbsI4+Li6FOxWPzmzRtamPbM/vTTT35+fnPmzCGEbN68OSAgwN/fn0a6ly5devv2rQb/RgCACkKABVAlwsPDaSQxadIkZqGRkRFdWFBQQJfs2LGDtlqdP3/e29ubzsM5adIkml9FI5LFixdv27aNtuVYWlrK5XL2jt68ebN27VpaePny5eprVbEAi4MOzaMhTmxs7J49e+hMqvSNxMbGMiVFItGoUaNo6r2hoaGrqyuNkNzd3Q0NDd3c3BwdHWnJsLCwrVu30vlXGd7e3kx2V1paGl1IJ7UyNDSUSCRBQUE0uho8eDDd8uPHj5kAiyZ40f5WGn7RTtXZs2er/5QAACoPARZAlSgtLaW//d7e3sxCGmGw09JlMhltYmE4Ojq+f//++fPnNCixs7NjXjIxMYmJieHsiAlKVq5cKZPJ1NeKZlCZmpqqKrBixQpOnZV69uzZjRs3aMvc5MmTaQXmzp1Ls9EZIpFozpw5Eolk165dV69epcVCQ0M9PT1pfPbTTz89fvzY3d3d1dXV0dGRNmLRsIxp65o8efLDhw9p9vrLly/plmlERa1atUqhUMyePZs+zcnJoZNdubi40MKHDh0SiURmZmZ0DCazHACg6iDAAqgqCQkJ0dHR7JgjMzMzOjo6JSWFUzI2NvbEiRMnT56MiIigS4qLi6OjoxMSEmQyWVRU1MWLF8PCwpjhgWzJycm//PILM7RQvfj4+MmTJy9dulRVgZMnT86cOfPWrVsav0tFXFzcuXPn3r17x1leWlpKbwdEq33nzh2xWBwUFET7HI2MjAwNDUNDQ1+/fk2DKjMzMycnp+PHj9NPrKio6MyZM7Qjkt/vaWZmJhaLx4wZw9zVp7S0dNu2bfPmzaOfCc15Z17KzMyk8a5IJCrXuwMAqJhamAwGAKpIVFQUnbedPi0uLlZ6j5rc3FymvYrv1atXNHudLT4+Xi6Xt2/fXuktomUy2du3b0UiEYYKAkB1QYAFAAAAIDDM5A4AAAAgMARYAAAAAAJDgAUAAAAgMARYAAAAAAJDgAUAAAAgMARYAAAAAAJDgAUAAAAgMARYAAAAAAJDgAUAAAAgMARYAAAAAALTroqNZmZmvn37Njc3l95atVWrVk2bNq2KHQEAAADUQALfizAhISEk5F5ycqpY3KpBAxEhJD8/NzX17WefiS0szNu0aSPgvgAAAABqJiEDrNDQ0Pv3H5uYfN2xYyfOSzExLyIiHvTq1aN3795C7Q4AAACgZhIswAoNDX36NHrAAFtdXV2lBYqLi2/evGJsbIgYCwAAAD5twiS5JyQk3L//WE10RQjR1dUdMMD2/v3HCQkJguwUAAAAoGYSJsAKCblvYmKmJrqidHV1TUzMQkLuC7JTAAAAgJpJgAArKysrOTmlY8fOmhTu2LFzcnJKVlZW5fcLAAAAUDMJEGAlJyeLxa00Ly8Wt0pOTq78fgEAAABqJgECrJycnPr1RZqXr19flJOTU/n9AgAAANRMmMkdAAAAQGACBFiNGjXKzy9Hi1R+fk6jRo0qv18AAACAmkmAAKtVq1apqW81L5+a+rZVq3LkbAEAAAB8XAQIsBo3biyRtIqOjtKkcHR0lETSqnHjxpXfLwAAAEDNJEwOloWFeUTEw8LCQvXFCgsLIyIeWliYC7JTAAAAgJpJmABLIpFYWHx98+afamKswsLCmzf/tLD4WiKRCLJTAAAAgJpJyJs9379//+7d+yYmX3fq1IXz0osXURERDywte/Xq1Uuo3QEAAADUTEIGWISQxMTE0ND7CQmJYnGrBg1EhJD8/NzU1Ldt2kh69+6FtisAAAD4LxA4wKKys7Pfvn0bEhJCCLGwsGjVqpWenp7gewEAAACombSrYqN6enp6enr0hoNdunC7CwEAAAA+bZjJHQAAAEBgCLAAAAAABIYACwAAAEBgCLAAAAAABIYACwAAAEBgFRxFSKdgUC80NFTDrVlYWFSsGgAAAAA1EFqwAAAAAARWwRYszduc0DoFAAAA/zVowQIAAAAQGAIsAAAAAIEhwAIAAAAQGAIsAAAAAIEhwAIAAAAQGAIsAAAAAIEhwAIAAAAQGAIsAAAAAIEhwAIAAAAQGAIsAAAAAIEhwAIAAAAQGAIsAAAAAIEhwAIAAAAQGAIsAAAAAIEhwAIAAAAQGAIsAAAAAIEhwAIAAAAQmHbVbTo0NJQQYmFhUXW7+PQoFIrqrkIF1apVq7qr8DH5eP/RFP7dn56q+E5q/j2pliOihlevSuEQ/gBqVdH3ZuvWrfPnzw8JCQkNDZ0/f35V7OITExcXFxJyLzU1vborUkGffy7p0eOr9u3bV3dFarqrV69FRUXL5fLqrkilaGlpdeliaGMzpLorAgKoupOPJqeFajz11fDqVSmcsT+AKgmwtm7d2rt3b9p2hRhLE+/fvz98+KiV1ZCWLT+r7rpUUEpK8u3b16ZMmdi4cePqrkvNde3atYyMgj59BlR3RQRw585Nff0GQ4YMru6KQKVU6cmnzNNC9Z76anj1qhTO2B+A8DlYW7duZfcMWlhY9O7dmy4EVWJiYj7/vMNHfQy3bPnZ5593iImJqe6K1GhRUdGfRnRFCOnTZ0BU1IvqrgVUVpWefMo8LVTvqa+GV69K4Yz9AQgcYNFAitNexTRlCbuvT4lUKtXR0anuWlSWjo6OVCqt7lrUaJ/Y5/OJvZ3/pqo++ag/LVT7qa+GV69K4Yxd1YQMsGgIpbQ3cP78+aGhoYixAAAA4L9AyABLfa4V0rAAAADgP0KwAIsOG1RfxsLCAslYAAAA8MkTJsDSJLqi5s+fjxgLAAAAPm0CBFh0UgbNy2NQIQAAAHzaKhtgsae80hAmbgDgkMvlMpmsumsB8D9UfSdLS0s/eF1qLqm0JC4uJjU1pborAjVOpQIszpRXmqOrIMaqsKKiojZtGoeG3qnuioAwjhw5YGDQrE2bxszft98OjYj4S/1af/55qU2bxnFxMYWFhW3aNL57N6jMHclkMiMjiZGRRPN4buBAcxeXmRoWhk8J5zvp7Dzq5MljCoXC2LgNe3mvXkaenh5SaYmAu54yZdzo0bbsJS4uM8aO/eZ/l8wcONCcv25+fn6bNo3v36/yQetv3yZNmuTYvr14wACznj07f/vt0MeP71f1TmfNmtymTePnzyM1LM+cJaq4XqBExQMsNZMyaIKuiIkbKqZu3bqEkEaNGlV3RUAYIlGjNm2+uH8/kv6dOfNnq1atv/lmQG5ujpq1unb9avPmXc2bi+vVq0cIqVevfpk7Cg6+QR/cuhWgYd0WLlwxZsx4DQvDp0Rfv7m7+8aQkIiQkIiLF2/07z9o4cK5rq4zRaJG69Ztffjw+cOHz2/f/mvBguUHDuzau/dXAXf9zTcjHjwIZS4DFApFUFBgaOidgoICpszffz9ycBjFX5ceDg0bNhSwPnwJCa8GDeolk8kCAu7Fx2fcu/fM0LDTyJE2VRrYZWZmXL58vk2bL06fPq7hKsxZoupqBapUPMCq/A1wMDlWufBvalSrlvAT8UO10NLS0tWt+9lnreifmZm5u/tGQgjnZC2Xy9k3MWzdWjJ27IRGjfTo09q1y/4+HD9+ZNy4id99N8nHx1vDutnY2FlYWJXzDcGnoE4dHbG4hUTSRiJp89VXPaZOnXXhQsDZs3/IZPKmTfVbtGjZokXLtm3bOTo6OTpOuHXrhoC77tOnPyHk2bMI+jQy8klGRtpnn7W6d+82XZKSkvzyZWy/fgP569IDoapPj1u2rGvf3vDIkVOGhp21tLRatWrt4fHroEFD3d2XVN2doc+fP9Wly5crV64/fvy3oqIiTVbhnCXgQ6rgVzAkJESQea1ojFX57XzCCgsLV69e2r17x7Ztmzg7j2K39L5/n7l8+YJevYy6d+/o43OY/vQeOXJg9eqlR44c+PbboUZGkjt3bhFCLl48Y29vTRvzz53zZbY8bFi/69ev0O3/8sucFy+iHj26N27ccCMjyapVi5OS3tCSiYkJP/wwwchI0r17x99+89LwwIbKoNfu9ev/0yh1/36Ivb11u3b67drpz579fUpKMiEkPDxs2LB+eXm57BXfvUvx9PTo0+crIyPJmjXLkpISmZfevk26ds1/9Gin0aOdAgOvMv9fQsi8ebMuXjyzY8fmYcP6GRlJZs6cGBcXTV9auHDu4cP7PtT7hhqte/eew4ePys/P5SxPTk7s0KGjgDsSi1saG3cLCQmmTwMDrw0d+o2NzTcBAVfpkpCQ4IYNGxobdysoKHB3X9Krl1GbNo1Xr16alvaOFo8u7a8AACAASURBVMjKyli4cC49PS5e/HN29nsBq5ebm3P+/Kl585Zoa2uzly9atOrp0/DIyCfqjymFQnH06MGBA83btGk8bZpTVNQzutzbe//q1Uvv3Lk1aZKjkZFk/PiRL15EMRunazk5TR4wYBAh5OrVS8xLR44c2LDB7fLl8/TsPXq0bWDgPx+U0rMEfBgVDLAqkHelCiYgVc/Vdcbdu0GHDh0PCnrcrl17e/sB7979k005bZpTXl7evn1HFy5csXTpvODgQEJIQUH+wYN7Tp8+MWeO6+7d3iYm3U+cOLp48c/Tps1++PD57t2Hd+3atnTpPNrP+PRp+NSp37Vt2+633/7IysocN2749OnOY8dO+P338y9fxkyZMo4mNNjbDxSJGvn53dy8eef586dWr15a3Z/KJ6i4uCgrK5P+hYbeWbToZ2Pjbr17W9HOCEfHYWZm5oGB94ODw1JTU/bv30FzjZ8+Daf9xYxNm1bfu3fnt9/++P3388+ePZk7dxrz0unTx42NuxkZGXfp8qWxcbdTp/6/lyEtLXXOnKmPHz9Ys2bTqVP+DRo0tLe3zshIoxGb+p5K+E/p3r2nVCoNDw+7ds3/2jX/ixfPuLjMvHPn1g8/zBF2R4MH2wYFBdLHV674DRpkO2DA4CtX/GiK/Z07t2xth2tpaf3007T790O8vHwuXAjIzMx0dLSjl5rTp49v2bLV77+f8/Y+GR39YsKEbwVsWEpIeEUI6dbNlLO8QwdDQsirVy/VH1O//ebl4eG2bJn7zZsPjI272dhY0qudwsKCkyePzp07ffTo744dO6OtrT1jhjOz8QcPQl++jLW3/1ZHp46z87Rjxw4xLxUU5O/du33DBrfp02efPx8wePCwyZPH0qtrpWcJ+DC0NSgD1SY29oW//8Xjx8+bmpoRQlauXN+woSg3N7tFi5aEEBMTU0/PvbVq1erevefVq5dv3745YMDg2rW1GjZs6ONzVk/vn3ukr1mz1Nl5moPDaEJIixYtly9fM2mS44oV62imwrx5SyZNmk4ImTNn/vDhA5cvXzty5BhCyPff/zB58liZTHb+vK9YLN64cYe2tnb79h27deveo0cnV9dFzZu3qO6P55OSkPCqWzcD5qmV1QBv7z9q1apFCNHTa3zw4PFBg4bSvg8np8kHD+4hhNSpU4ffFZKUlGhs3K1Dh06EkJ07D2RmZtLlMpnM29tr/vwl9OmECVM2b147Z858egleu3btNm2+OHDAp04dXULIhg2ep04d9/X9fdYsF11dXS0trQ/7YUDN1axZc7lcfu2af3h4GCGkoKAgPDzM2Lib4F1yffsO8PT0KCgoyM3Nefo0vF+/gY0a6WVkpD158nfXrl/9+aff5s27oqOfX7vm//Dhc3pK7NbNdPBgi5s3rxNCRowYM2/eP9/21as3DhvW79Gj+2ZmSpLiKyAl5S0hpEmTppzlWlpabdp8kZ6epuaYmjnz582b12zZssfa2oYQ4uKyKCsry9t7//Lla3V16+bl5Xl7+/bqZUFfcnAYlJGRrq/fjBBy4sTRb74Z2bSpPiHE0fG7vXu3x8Q879ixMyGkdm0tQsixY2fatWtPCDE07BwSErx//84+fforPUvAh4EAq0aLjn5OCGFOCtra2gsXrmBenTFjLv0BJoR06tQlPT2VPu7e3YyJrlJTU/Ly8oYM+f/xOLRR5OHD0L59rQkhTBJD27btCCH9+w+iTyWStoQQuVz24kVUamrqpEmO7IqFht4ZPlxJeilUmIFBhytXbhNCMjLSjh07tHfvr8XF/3TF6uk1/vLLrr/+uiks7OHbt0nJyYmff95W1XZ++WXZyJE2t27dGDBgkKVlPyurAXR5cPCNjIy0tLTUI0cOEEKysjIzMtJu3QoYNGgoLWBn50B/CQghderoDhs2/MWL51X/vuEjk5T0Rltb55dfltvZjaBLsrPfr1jxy9Sp3wUGPtAkEVBD3br1aNiw4aNH91JSkrt1M6Uh1LBhw2/evE4DEQuLvrQPcd68WcxaycmJgYHXCCFDh/7/kEMjo64NGzaMi4sRKsBq1kxMCMnMTNfXb85eLpPJEhJetWzZij5Vekylpr7Ly8vz8tr5++//5EEmJb2RyWTLl68lhBgbd6PRFSGkffuOhJC8vFx9/WaZmRlnz54cMcKRHr/UH3/40LXoijS6oqyth2zfvkmQNwsVhgCrRtPW1mnYsKGq9oNmzZorXa6jU4fzmL1EW1urYcOG799n0ae6uv/TdNygQQPO1urWrdutm+m0af9/Cps162d62QQC0tLSpm2KEkmbJUvcnz+P3LJl3Y4dB2iPw7BhfYcM+WbGjLmtW38eGnqbfZLl6NGj15Mnr0JCbj98GDpv3uxevXrv23eUprcbGHR4/Tr+9et4WtLAoIOPjzcTYNGLYIa2tg4hVZWrCx+v4OCbtFGEoafXeNKkaSNH2iQmJrRp84VQO9LW1h40yPbu3eC4uGgmWhoyZNj+/Tv19Br37GnepElTXd26+vrNZ836mb1i8+YtfHwOCxjq8dG3+fjxwyFDhrGXv3gRSQj54ot/mqKVHlP005syZSZti6KYOEwsbql0j+fPn2rYsGHt2rX/+usRXdK7d5/jx3+bP38ZPW9wfiZ0dHSKiwsFertQQQiwajRzc8u8vLwHD+4xw7h8fA53797zyy9NNNxCkyZNTU3NAgL+NDHpTpfcvx+Sl5eneYTUt691aOgdOqiHzqp35MjBLl2+LP+7gXKYM2f+qFFD581b8sUXBleuXDQ07LJ9+z+Z5leuXFS1Vnb2+ytX/OzsHGxt7W1t7ceMmTBkiMXr1/E6OnWuXfM/cuTUgAGDmcJ37txychqRmJggkbQhhAQGXl2wYBk9Tctk0sDAq7Nnu36Q9wofjcuXz4eEBDMtNIyEhNf8q7XK699/0O7dnjExz+fPX0aX9O1r7eIy8+zZP2xt7ekZMiMjzcioKxOsnDp1nDYvBQZeY85akZFP8vLyDAw6CFWxJk2ajhjhuHXrur59rdnpTevXr+rZ09zQ8J+zq9Jjip6TRaJGTPVCQoLz8/PU7I6mt0+cOH3x4lXMwuzs9127fnHt2mWa/hEeHpaSktyy5Wf01YCAP01MuCli8IGhX7ZGa9RIb9CgoRs2rHrxIio3N+f3372XLp3H9KZLpVKmpEJRSp+WlpZyZvz79tuxBw/uDg4OLCoqio5+7uHhbm1t06XLlzQVtLT0n2H/9AEzRzN9UFqq6NGjV1xc9IYNbjk52e/epbi7L922bT17sgAQgkIu/5+ZP3v27GVg0OHAgd20PyI6Oio+Pi47+/2RIwc8PNxlMjkz0lAmk9J/h0wmrV279sKFczdscIuNfZGRkUZDsUaN9Hx9ffT1mzPdhVTv3lb6+s3/+MOHPo2KerZw4dxXr14mJSWuX78qLy9v7NgJhJCSEin7mwb/HSUl0levXkZE/BUR8deNG3+6uy+ZNWvyggXLatUiCQmvo6KeRUU9i4j468CB3R4ebr1796G9eALq06dfTMxzff3mnTsb0SXNmol79jQPDw+jGQ4NG4oGDBg8d+60pKTEvLzcEyeOzp8/myZIHTy459ChvWlp7+LioteuXWFs3K1nz14C1m3+/KWpqanffmsTEhKcnp767FnEzJkTb9++6e7uwWRuqDqmhg61X7z457/+elRcXHTv3t1p05wePAil87Cwz970AC8tLb137+7Ll7GOjk7sCujpNR49+jtv7/3MkpkzJ/799+O0tHe+vr8HBPw5Y8Zc9llCwPcOGkILVk3n5XVs374dgwf3/rdP56yRkXFhYaG+fnP2z16tWrWZJnFO2/jEidM+/7ztzz/PyMhIa9iw4YgRY5YscaPTwevrNy8p+ed4Li4u0ddvXlT0T6uyXC7T129eUJCvr9/sjz8uLV06b+/e7YSQnj3Nz5y5qqodGypGLi/V0vqfg7FWrVrffTfp8OG9NNnl7t3gfv16EEIGDBi8YMGyy5fP05Omvn7zgoIC2lFSXFwsEjUKCnq8bt0Ka+teNGHFx+esSCTy8zs3Zsx4zpByLS2t776b6Od3du7c+YSQ5cvXpqS8HTv2m+Tkt19/3fvKlWA6jqFOHZ2qm9cHarI6dXQOHtx78OBeQkjTpvpfftnV1/eyubnl779779y52ctrFy322WetHBxGV0V7p1jc0sKib7du3ZmQhSZXZWamGxl1pU89PfctWza/d29j2nPn5eXTq5elvn7z9eu3HTlywN19CSHEzm7Ejh1ewnYatm3b7tKlwK1b148bN5zOa2pu3uf27b9oMiul6piaNm12dvb78eNH5OXlNWzYcNYsl1mzXGiAxT5IS0roObno3Lk/TE3NaEoWm52dw4IFc+ksD8OGDbeyGjB//o8xMc8NDDrs2nWINlezzxICvn3QRC0NT53Z2dnW1tZ79+79+uuv6ZJVq1YVFxd7eHgUFxcfPHjwxIkTd+/edXJymjt3rrm5OR3ev3z58tOnTycmJrq6ui5cuLBly5YFBQVWVlbLli27fPnypUuXunfv/ueff1btW/wYhISEpKbm9+jxtaoCUmlJSYmUnyClOYVCkZeX27ChiH2qKpecnOw6dXTVDPd9/PiBWNxAwCk8Pj1btniOHTulYuvSZioNB/RJpSW1atXmRFRqTJrkaG09hI4nlcvlGu7ljz8OL1iAbsSPW5knn0pSf1oQau+FhYUymVQk4t7cQiaTaWlpqTnpVb56JSXFOTnZTZs24wRwZR5TMpk0NzeXPxSxAvbv3/n48X0vL59yHb84Y1c1TSP6evXqhYWFse9flpmZ+e7dO0LIiRMnlixZsmnTpujo6KZNm/bu3TsrK4sQMn78+ODg4LNnz967dy89Pb1fv35yuZxuZ9SoUQYGBmfOnFmxYoXa3cI/dHTqVCa6oi0iIlGjCkdXtKcJk6lUIy0tLc2nS9DRqaN5dEUIKS4uZtoyMSkDfHTq1avHj65opnxlTnqaqFNHt1kzMb95rMxjSltbR5DoirkCV7MvqBaanoLpwAddXV1mia6uLo23kpKSOnbs+PXXX2tra2/ZssXZ2bl+/frPnj27cOFCUlJSq1atCCFmZmZdu3b19/e3t7cnhKxevXrZsmVV9qYAoHyaNtXnDA0DgMr4kMeUrm7dxo2bfJh9geYEyMGaPXv2vn37Wrdu/c033wwaNGjYsGG6urqRkZGEkMmTJzPF3rx5wwRY1tbWld8vAAhlzx5Nb00IAJr4kMfU9Ok/frB9geYqHmC9f/9eR0eHENKkSZPY2Ni7d+/evn3bw8PDxcUlPj6+bt26YrF44cKF7FVatvwnM5quCAAAAPBJKt+oivj4f6YoTE9PP3TonxshnTx5MjY21traetWqVY8ePSKEnDlzpl+/fqmpqV999dWgfyUmJmIsEgAAAPwXlCPAsrOz2717d1RU1NOnT4cNG0YHkRJC9u/fP2PGjJCQkOzs7MuXL6empjZr1qxRo0a2trZOTk4JCQk5OTkHDx78/vvvk5KS6KYwrQ4AAAB8wsoRYG3ZsiU/P9/IyMjBwcHR0dHd3Z3ORXnu3DkLCwtLS8vGjRv/+uuvu3btsrW1JYQcPXq0cePGbdu21dPT27Bhw9mzZ4cOHVpQUCAWi4uKiqryTQHUWFU7oOmD+8TeDgCAYMqRg9W5c+cHDx4UFxezxxISQho3brxp06YNGzbIZDL2S82aNfP19S0oKJBKpXp6enRh/fr16eQOwKavrx8ZGVvdtais9PRkIyNh7qX6qWrV6rOkpMTWrSXVXREBJCUltm3bprprAZVV1Scf9aeFaj/11fDqVSmcsauaphONQlW7eNHv3bssehetj1F6emqLFk2GD7ev7orUaPHx8WfP+kkk7erU+bjHeZSUSBMT47/91r5du3YaFIcarepOPpqcFqrx1FfDq1elcMb+ABBg1SAxMTGZmZnVXYsKatq0aceO3Ds5AF9ubm5MTMzHnoaoo6PTsWNHkUhU3RUBYVTRyUfD00J1nfpqePWqFM7YH0AVBlghISGEEEzDX0Pg3/HfsfX/2Lv3uBjT/3/gVzWl0kilkw4WUZsOSFFhUyEkJafyYa1TDrGUU6x2sR9lVbIbS9bWOpRFYXMqhY9lJpKoUHJKKEWlqZlOM/P74/r+7s98ktM2adTr+YfHPffxuu889HJd17zv8PDAwMC2bgW0TzL1L4lMNabl2tntgDRffgkAAAAACFgAAAAA0oeABQAAACBlCFgAAAAAUoZvEQIAAABIGXqwAAAAAKQMAQsAAABAyhCwAAAAAKTsI95F+F7e3t7vntElJyeXkJAgxSsCAAAAyCBpBixaglZJSanZTfX19VwuV7qXgw+HGsEdByq5Q+uRqX9JZKoxLdfObgekHLAIIUuXLm12fVhYmNSvBQAAACCDMAcLAAAAQMoQsAAAAACkDAELAAAAQMqkPwdLlolEIg6HM3To0LZuSBvAxMmOAzPcofXI1L8kMtWYlmtntwOyErCsra2vX7+el5dXUVFBCGGz2QKBoFOnToSQuro6MzMzZWXltLS0zp07y8s30+smFotra2uHDx/euXNnyfU8Hi8tLc3T05MQ8uOPP37xxRchISFhYWFjxoyR3G3dunUODg7jxo2Tyr1ER0cPGzbsyy+/bHbrwoULvby8nJ2dMzMzVVRUJG9BKBQOHDiw2aO2b9/+zTffdOnSRSotBAAAgFYlKwGrvLxcUVFx69atQqFQXl6ex+M9f/68c+fOVVVVKioq0dHR3bt3P3nyJM1Pubm5fD7fzs4uLS2tZ8+evXr1IoTU1NRYW1s3CVhlZWVeXl60OtfMmTNtbW2jo6PXrFkjGbCePn26efPmvLw8+lEsFgsEAlVVVWaHly9fduvW7QNvpKKiws/P79mzZ4QQgUBw584dS0tLydIVAoFAJBJVV1cPGTJk8uTJfD7/0qVLbm5utIzFixcvmj3t5s2bp06dioAFAADwWWj7gPX8+fMXL17U19dnZmbW1tauW7eusbExNjZ2xIgR6urqubm5Li4u5ubmhJCtW7cWFBSoqKgcO3asoqJi9uzZ5eXljo6Ojo6OfD7fzMxMTU2NEMLn85WVlWlHl4KCApvNphcyNjYOCwszNTW9dOmSZAPWr19PCLG1taU9XoQQHR2dx48f0+4lkUg0ePBgFxeX7du3S3Y4NXHq1KlVq1ZpaGjQHriRI0cWFRXxeDw2m3337l0DAwMa1B4/flxaWvro0SNdXV0dHZ3Dhw8/f/58/Pjxhw8frqqqGjBgAE14u3fvrqurq6mpqampEQgEAoGgtLR0wYIFKioqdXV19fX1J0+ebP2fDAAAAPxDbR+wLl26FBERUVpaOnPmTBaLtXLlyoaGBgsLC7r1yZMnxsbGdPnmzZvu7u62trZPnz7l8/lZWVm5ubkZGRmHDh3KyMhITU21s7MjhDg5OWVkZEheQk5OjlkeN26cZDpJSUmJjY39z3/+o6ury2KxWCzWr7/+ev78eSZLycvLHzlyZMyYMXfu3Dl16pS6ujpz7JkzZ7S0tOhFBw8e/PPPP5eXl0+ZMiUmJmbgwIHdunXT1tZWVFRk9k9PTw8MDCwuLs7JyaGjls2Sk5OLi4szMjLS0tJSU1PT1NRUVVVls9nDhg3T1tYWiUQCgUAaDx4AAABaS9sHrGnTppmamg4cODAoKCgtLc3Z2VksFjMJKTMz08TEhC4rKSm5ubkdPnw4Nja2vLw8ICAgMDBw9OjRo0aN8vDwYKLMkSNHhEIhDVXPnz8fM2bMrVu36CaxWCw5Wnf37t0ZM2b88ccfVlZWXbt2pSuTkpI2btwo2cKBAwdev37dzc1t/vz5f/75J11ZU1Mzf/78SZMm0YDVrVs3FxeXgICAKVOm2Nvb19TU6Onp0V60uro6JSUlOTk5d3d3d3f3b775Zvr06Q4ODlFRUTY2NrW1tXfu3LGzsxMKhcwVmT62kpKSU6dO6enpaWtr+/r66uvr/+PnjBrBHQcquUPrkal/SWSqMS3Xzm4H2j5gEUJOnDhBCNm2bZuuri4hpKGh4fXr11lZWXV1dYSQ1NRUa2trQ0PDhoYGLpe7ePHiW7duCYXCBw8epKam5ufnnzhx4urVq42NjfRsPXr04PF4Y8aMOXHihIKCAiGkZ8+eWVlZP//8c0xMDHPRK1eujBkzZu3atXp6esbGxhEREXPmzPnrr78IIW92LxkZGXG5XDr8R23evLm+vv77779n1qSmpm7bts3c3DwyMvLevXs2Njaenp6HDh2KjY09c+aMo6Mjs2dDQ0NeXp6Ojk5mZiYdIrx27RozRMjIyclxdXVdu3bt0aNHHz582AoPHgAAAFpF2wes0tLS+Ph4Q0PDkJCQqKgoDoejoqIyZMiQV69e0ZlY2dnZ3bt3NzQ0tLGxuXDhgoKCAo/HGzp06ObNm1euXEn7pZYvX07nOVGXLl0qKyvT0tKqqamha0xNTRMSEtatW8f0h2lpaf3++++TJk0ihJw8eXL69OnHjx+/detWZGQkjWVNdOnShZljfvXq1c2bNx87dozp97pw4cLIkSNXr169fv16OTm5n376acOGDdnZ2VOmTLl//76Ojg7draCgoKCgYOrUqWvWrHnvk9m/f/+yZcu+/fbbly9fxsbGPnr0qCU9WAAAAPDJtH3ACgkJmT9/fmRk5KhRo+Lj4+fNm7d06VI/Pz+hUBgcHOzr6xsUFEQnYzk6OtKkQqe6r169mhBSWFiop6fHYrEqKyuTk5Npftq+ffuSJUskr6KqqhoYGBgSErJ37166xszMzMzMjC4PHz48Ozu7R48e06dP9/b2fkdrGxoafvrpp++++2737t2SHV1VVVXR0dHz5s27fv26l5fXrFmzCCFnz56VPHb//v1hYWG1tbV//vnn8OHD161bZ21tXVtbe+/ePWtr68bGxvr6esn9bWxs1q5dq6mpeebMGULIw4cP0XUMAADwWWj7gGVmZjZz5szIyEj6sbi4uGvXrsuXL6+rqwsODi4tLa2qqlJSUjI2Ni4qKhIKhf7+/j169EhISJCTk0tNTfXz8+NyuZJVFdLS0tLT0w8dOtTkQvPnz+/evbu/v3+TkTj65UE/Pz9bW9vt27e/o6lZWVlz5869cePG6dOnm1TSmjBhAp3yNW7cuJSUFEtLyx9//LHJ4T4+PjNmzPjmm28UFRVpr1tERAQdIszMzOTz+eHh4ZL707oMGRkZAQEBmZmZlpaWH/NcAQAAoM20fcDy8/OjC7dv387OzuZwODt27IiKitLR0Rk3blxMTAyHw+FyuRs2bKB1rfr27fvq1SsLCwsrK6tDhw6lp6dLpqvnz597eXnt2bNHU1OzyYX09fUjIyMnTZqUk5MjeQhNaUOGDDl+/LjkFHiqqqrqzJkzt2/fTkhIuHPnzpo1a86ePautrd3svdy7d08gEPTs2ZNOlqcrKysr6Ugii/Xfp62mphYRESF5rKqqKi0YIWnMmDHDhw/38fGxtbW1trb+mOfaFHq/Og7McIfWI1P/kshUY1qund0OyMq7CGmZzWXLll2/fn3Pnj18Pj8qKkpeXr6wsPDcuXMGBgYikai4uLi4uNjExERLS6uqquqLL75YvXr1pEmTPD09jx8/3tDQQAjR09M7evTo1KlT6WlFIpHkVRYvXhwZGcmkq+vXr48YMWL69Onff//9wYMHmYpZkhobG9euXcvj8cLDw2tqakJCQt6Wrggh9vb2zs7OhoaGTk5O+/fvd3Nz6927t6mpKXOPjx8/fvXqVZPzM9Pz37z05s2be/XqxWKxDhw48PEPFQAAANpG2/dgUQKBYOrUqWw2++zZsywWKykpqVOnTubm5paWlg0NDV5eXpWVlU5OTqampv369fvqq6/CwsJo0fYff/zx7NmzP/30U2Ji4r59++Tl5UeNGsWcVklJacGCBcxHFos1fvx45mP37t3d3d2ZAvHN0tTUfPDgwQfeRadOnY4fP15RUfHo0aPKykqt/49uff36tY+Pj7a2tmRflEAgqK6ubvZsLBarS5cucXFxLi4uTTZxOBxvb+8VK1aguwIAAEAGydHXyEiFt7e3vb09/a3/prCwMC6Xm5CQ0OxWkUjU7EsGP1xjY6PkGFy7Fx4eHhYWRpdXrFiBmAUAACA7ZGWIsIXpqskMp44gMDCQybJhYWH6+vrh4eFNpskDAABAm/ikoaSqqopWqgWpsLe3d3BwYB4p7dAKCwujHVrR0dGSs8roQGfv3r0lz+Dj4/PJWw2tDpXcofXIVLVxmWpMy7Wz24FPGrCKiorQxfIJhIWFcTgcOTm5srIyZiUdC5Z8LaO2tjYCFgAAQGv4pAGrX79+b5uDBf9Mk7KoDg4OgYGB9D9A3t7e48ePf9uUuPDwcPQmAgAAtJKONW+pnfH29mZCkmS0AgAAgLaFgPW5oukKuQoAAEAGIWB9xhISEhCt4E2Y4Q6tR6b+zZGpxrRcO7sdQMD6XGE2GwAAgMySlTpYAAAAAO0GAhYAAACAlCFgAQAAAEgZAhZAe4NyvtB6OByO7JTQk6nGtFw7ux1AwAIAAACQMgQsAAAAAClDwAIAAACQMgQsAAAAAClDoVFohrW19fXr1/Py8ioqKgghbDZbIBB06tSJEFJXV2dmZqasrJyWlta5c2d5+WYyulgsrq2tHT58+K1bt549e8bsIxKJjIyMhgwZ0uxFT506lZ6evnTp0vT0dBbrv38zGxoaxo8fLycnRz/W19fLy8tL7tCGampqOnfu3NataAqV3KH1yFS1cZlqTMu1s9sBmfgtBbKmvLxcUVFx69atQqFQXl6ex+M9f/68c+fOVVVVKioq0dHR3bt3P3nyJM0Wubm5fD7fzs4uLS2tZ8+evXr1osnD2tq6rKwsIiJCW1t70KBBhYWFly9f1tXV9fb2ZiKXvLz84sWLCSHFxcWzZ88+evRoZ4VTcwAAIABJREFUfn7+mjVrZs6cyTRmzZo1IpGI+bh169aCgoLY2NiPvam6ujqhUKiqqtry57NkyZLGxkZvb+/Fixfn5uYqKiq2/JwAANCeIGDB/3j+/PmLFy/q6+szMzNra2vXrVvX2NgYGxs7YsQIdXX13NxcFxcXc3NzJuioqKgcO3asoqJi9uzZ5eXljo6Ojo6OfD7fzMxMTU1twoQJ165d69Onz6xZszgcTkVFhaOj47Jly0JCQgghDx8+vHnz5uLFi/Pz811dXSMiIoYNG8bhcGprax8/fizZKqb7qqKi4rvvvktOTv4Ht7Zhw4a8vLzExMSWP6XOnTs3NjY6OjpWVlbGx8dLxkEAAAAELGjq0qVLERERpaWlM2fOZLFYK1eubGhosLCwoFufPHlibGxMl2/evOnu7m5ra/v06VM+n5+VlZWbm5uRkXHo0KGMjIzU1FQ7Ozu658mTJ1+9ekUzU2Bg4IYNG1asWMFisWJiYthsNiHk0KFDwcHBAwcOdHd3X7t2rYGBgbu7O9OkXbt2McsnTpwwNzcfNWrUP7g1NpvdpUuXlj2e/yMvL6+goKCiorJq1aqYmBgELAAAaAIBC/7HtGnTTE1NBw4cGBQUlJaW5uzsLBaLMzIy6NbMzEwTExO6rKSk5Obmdvjw4djY2PLy8oCAgMDAwNGjR48aNcrDw0Ny1ExdXV1HR+fly5f0o42Nzb1798zNzblcrpubGyHk+++/5/P5np6eEyZMaGxszM/P37dvn2SrxGIx7cTicDhTp06lKx8/frx69eqLFy9269Zt+vTpJSUlw4YNmzx5clVVVVBQ0NGjR0tLS1etWhUQEFBVVeXu7l5ZWSkQCDIyMnx8fPr16/fDDz9kZmZKzuV69uzZ2LFjU1JSdHV1CSFlZWWurq5nzpxhsVgjR45cvnx5XFxcenp6TEwMc4iHh8eKFSsaGxtlZE4YAADICPxWgKZOnDhBCNm2bRvNGQ0NDa9fv87KyqqrqyOEpKamWltbGxoaNjQ0cLncxYsX37p1SygUPnjwIDU1NT8//8SJE1evXm1sbGROOGzYsBkzZnA4nPz8fELIiBEjUlJS+vTpc+bMmQ0bNhBCqqurJ0yY8PjxYw8Pj5KSkvj4eCUlJXqsWCyeN29edna2tbU1ISQnJ4dmMj6f7+LiMmLEiMuXLwsEgi1btsTFxdE+s4ULFwoEgry8vNra2s2bN8+ZM+f48ePnz5//7bff7t27FxERwWKxnjx5Mm3aNGbkkerUqVN2djZzaWVl5ezsbBaLRddv2rQpNDR0165d2tramZmZdB864ezRo0d9+vT5hD+i9wgPD8c8d2gltNS4jEzHlqnGtFw7ux1AwIL/UVpaGh8fb2hoGBISEhUVxeFwVFRUhgwZ8urVKzoTKzs7u3v37oaGhjY2NhcuXFBQUODxeEOHDt28efPKlStpJFq+fLmBgQFzzk2bNv32229lZWX9+vUjhPj6+o4ePVpLS2vEiBH6+vqEkClTpnTq1ElNTe327dunTp2S7P06ePCgk5OTmZmZtbW1SCRKT0/v27cvIeTChQt0ChcdZNy2bVtcXByLxaqsrIyLi0tNTS0pKSGETJ8+3d7e/u7du5aWlqqqqioqKjQ1amlpDRgwoMm9KygoMH8yCywWi07J/+2330aMGPHmIQMHDszLy5OpgAUAAG0OAQv+R0hIyPz58yMjI0eNGhUfHz9v3rylS5f6+fkJhcLg4GBfX9+goCA6GcvR0VFHR4cQQqe6r169mhBSWFiop6dHg05ycjIdT1y/fj2d5B4WFkYIMTExGTBgwMyZM+/cuUMvGh4erqio6O3tXVlZqaamJhmwlJSU1NTUaNah3yVUVlamw3lDhgyh6YoQoqOjQ4PX8+fPCSHbt29nzjB+/PiqqqqWP5n+/fs3u15JSYn27QEAADAQsOB/mJmZzZw5MzIykn4sLi7u2rXr8uXL6+rqgoODS0tLq6qqlJSUjI2Ni4qKhEKhv79/jx49EhIS5OTkUlNT/fz8uFxuk1IIhYWFR48ePXbsGLOGBiMVFRX68csvv3zw4AEhxMLConv37mvXrg0ICNDT06PFsYYOHUqDGovFsrKyKigoMDExsbe39/Pz4/F49FT379+/d+8eIaRv375sNvuPP/7Q0NCgJ8/JyaE9Z+9F51FVVVXRufDnzp177yFisfj27dumpqYf84wBAKD9QyV3+B9+fn4099y+fTs7OzsgIGDZsmVKSkpGRkbjxo2jswRokQU6Dbxv374sFsvCwsLHx2fkyJFxcXGS6SooKOiXX365dOlSbm4u/SqiUCgMCgoqKCgICwtzcXG5f/++5NUtLCyGDx8+Y8aM9evXm5ubOzg46Orq9u/ff9iwYXQHa2tr2u9laWnZt2/fRYsWZWVlnTlzZvbs2XQHFos1ZcqURYsWVVdXNzQ0xMTEWFlZPXnyhBCipqb25MmTysrKoqKinJycbdu2SZbXorGvb9++0dHRAoHg2rVrAQEBhJDGxka6m1AoZPYUCoUNDQ00gPJ4PIwPAgBAEwhY0Iz6+noul7ts2bLr16/v2bOHz+dHRUXJy8sXFhaeO3fOwMBAJBIVFxcXFxebmJhoaWlVVVV98cUXq1evnjRpkqen5/Hjx2n+WLVqVXl5eVpa2g8//DBs2LDi4mJXV9e///77r7/+CgwMXLBgAZ3qzgz/UX5+ft7e3sePH8/NzX358qVksXh7e/s///yTLmdmZhoZGbm5uf36669+fn6Ojo60NysqKsrS0pLNZispKUVGRl65cuWLL74ghIwePfrWrVsaGhpRUVG5ubmhoaFNAhYhZOfOnQcPHlRVVfX399+zZw8tYc/n89lsdm1tLbObUCikE+T/+usvW1tbOmopOzDDHVqPg4OD7MzClqnGtFw7ux0gYumZOHHi1q1b37Z169atEydOlOLl4N3e/eMICwt7x4+DzWZXVVWJxeIzZ874+vrW1taKxeKamppVq1YtX768tLT01atXffv2HT9+/Jo1a+Lj46urq+mBDQ0NSUlJ9GuDTc6ZnJzs6OgYERFRV1fHrDxz5sydO3fEYnFOTo6VlZXk/hs2bBg5cuScOXMk9y8vL6eDd2KxuKCgQCQS0fWFhYW0143Zs6amhsfjNWkD7Xl635MTS17xHWpqagwNDfft2/chO7dEWFhYWFhYa18FAACkCHOwoBmVlZW038jNzY2WRSCEqKqqbtmyhdmH1lxogsViubu7u7u7S5ZpoEaNGvVmgVDm5BYWFrdu3ZLcFBwc/Ob5NTQ0IiIijh075uDgMG7cOF1d3VmzZolEom3btnl5edES80xr3zxcXl6+2ZcnNsFUani3jIwMfX19Hx+fD9m5JTgcDv2KwIoVK9A7BQDwWcAQITTjQ1LIu7Ve4c1vv/02KipKVVU1IyPDy8vr0qVLN27cWL169ZEjR1rpim/z1VdfcbncT1BiNCEhgQ4chIWF6evrh4eHh4eHt/ZFAQCgJdCDBZ8ZJvx16dJl+fLlbdsYpmhWa0tISPD29qZ1CGm1C3RoAQDIMgSsjovD4dA6n/CZonOzVqxYkZKS0uT7mE3Y2NgcPnz4EzYN2i2ZqjYuU41puXZ2O4CA1XE5ODgkJCS0dSvgQ4WHh9O+K4aDg0NgYKCDgwOHw1m4cOGMGTOaPXD//v1cLvdTNRMAAAgCFsDnoUm6YqKV5D70LUAAACALELAAZB2TrprNVQAAIIMQsABkGi3QgGgFAPB5QcACkGkODg7FxcVt3QqA/yNTKV+mGtNy7ex2AHWwAAAAAKQMAQsAAABAyhCwAAAAAKQMAQsAAABAyhCwAADgQ9FXj7d1K/6PTDWm5drZ7QACFgAAAICUIWABAAAASBkCFgAAAICUIWABAAAASBkquQPAexQXF3fv3r2oqMjQ0LCt2wJtTKaqjctUY1qund0OoAcLAN5DVVWV+RMAAD4EAhYAvIe8vDwhRE5Orq0bAgDw2UDAAuignj17Zm1t/eLFC/qxrKzM2tr6+fPnhBAPD4/t27dPnTpVV1c3ICCgrVsKAPD5QcAC6KA6deqUnZ2tpKREPyorK2dnZ7NYLJq9li1bNnjw4PT09JUrV7Z1SwEAPj+Y5A7QQSkoKDB/Mgs0YCkoKGzYsIHpu+LxeG3aUpAhtNS4jEzHlqnGtFw7ux1ADxYANMPGxqatmwAA8BlDwALooGhnVVVVFf147ty5tm4RAED7gYAF0EGx2ey+fftGR0cLBIJr167RAcHGxkZCiFAopAsUs7JN2wsA8DlBwALouHbu3Hnw4EFVVVV/f/89e/aw2WyBQEAIUVJSkoxTfD6fzWbX1ta2aWMBAD4nmOQO0HG5uLg8ePCgvr6efpeQGS7kcrmSuxkYGDCboJ0JDw8PDAz88P1lagq2TDWm5drZ7QB6sAA6OqZSA3Q0HA4nLCxMX18/PDw8PDy8rZsD0K4gYAEAdFAODg4JCQmEkLCwMCZptXWjANoJBCwAgI6LyVgUOrQApAVzsADav6KiIvy+hHdwcHCgVS6psLAw+ueKFSs4HI7kV0rfxGKxJCMaAFAIWAAA0AwHBwd7e3sOhzNs2DBtbe1m9ykrK2vylYhPqZ2VPm9ntwMIWADtn5GR0Ud9Uww6lPDwcMnuKwcHh8DAQObXPO37/Prrr5s9lvZ1AcCbELAAADqu8PBwJiQ1iVYA0BIIWAAAHRQt04BcBdAaELAAADoo+hVCRCuA1oCABQDQcX3W6eqzbvyb2tntAOpgAQAAAEgZAhYAAACAlCFgAQAAAEgZAhZARydZAwkAAKQCAQugg+JwON7e3vr6+t7e3m3dFoB/gsPhtKf/HrSz2wF8ixCgw+FwOJLFu/EiOQAAqUPAAugomuQqCmWQAABaAwIWQPtXVVXl7e395uiDg4MDl8ttw5f1guwrKiri8XgpKSn0o4WFBSFETk6urdsFIOswBwug/Xv9+nWz3VSY8AHvpays3CChqKioqKiIL0FHR6et2wggi9CDBdD+GRkZBQYGBgYGSr7ZlxEYGNhG7YLPgCz/9Whno9vt7HYAPVgAHUhgYGBxcfGKFStWrFhB14SFhYWHh7d1uwAA2hsELIAOh/Zm0aRFMxbGCgEApAsBC6DjojELXyQEAJA6BCyAjg7pCgBA6hCwAADgQ8lUtXGZakzLtbPbAQQsAAAAAClDwAIAAACQMgQsAAAAAClDwAIAAACQMlRyBwCADyVT3zmVqca0XDu7HUAPFgAAAICUIWABAAAASBmGCD+RL7/8sqSk5FNekc/nX7x4cceOHc1uraqqqq6u1tDQ+JBTycvLKygoSLuBIDXV1dU3b948efJks1uLioqKi4t1dHQ+ebsA4DOmpaV19+7dtm7FZwwB6xMpKSmprKzs1q3bJ7tily5d6K/eZrfKy8vTHd7r5cuXysrK+PUsywQCAZvN1tPTa3ZrZWVlaWmpiorKJ28XAHyu6H/C27oVnzcErE9HXV393r17bd2Kj+bh4cFisS5cuNDWDYG38vb2tre3p29uflNYWBiXy01ISPjk7YJ2iJYal5Hp2DLVmJaTqdv5wPENeAfMwfrMZGVlaWpq+vr6EkKEQmFJScnLly/bulEAAADwPxCwPjN0oEdVVZUQ8uLFC3Nzcy8vr7ZuVNtrbGysra2VXFNXVyf5USwWCwQCyTUpKSkPHz6UXPP8+fNHjx61cksBAKBDQMD6DIjFYmaZTjZnsVhMzFJTU2vT1jUjPDzczc3Nzc0tOzub9nsPHz786tWrze7M5/MrKip4b2hoaPjwK27cuFFFRYUecu3atfj4+GHDhklmrBcvXqiqqsbExBBCamtrx44dy+Vyp02bVl9fz+yzadOmuXPn0gf+5MmTv//+m9l0//79FStWrF69evny5XPmzHF3dz9w4ADdlJWVRW/2bd8nAACADggBS3YVFBT861//MjY21tLSsrW1jYuLk9y6fv16Hx8fQsjVq1fHjRsXERHRdi1t6u7duxwOp3///nQefVVV1d9///22wHT69GlNTc0ub4iPj//wKyopKTG58+HDh6GhoS4uLunp6ZJNIoTo6emJxWJlZeXZs2e/evVq6dKlIpGIEGJqampnZ5eYmHj+/HlTU1M9Pb0RI0Zs27ZN8hKlpaU0CP7++++nTp16/fo1Xa+qqtq/f//k5OS8vLx/+sAAAKC9wSR3GVVVVeXi4lJdXe3r6/vFF1/Exsb6+/v37dtXXV2d7sDn85nZV+Xl5bL2dQ99ff3Q0FC6THvg5OWbT/OTJk2S7KIjhDx+/Lhnz55v2/8dysrKdHR0pk2b5uLioq2tTVcuWbIkKiqKLo8dO1ZHR2fLli3GxsaxsbEBAQHKysqEkPz8fJFINHbs2J49ey5ZsuSXX3558eJFYmIic2YTE5N9+/bl5+f7+voOHDjw6NGjPXv2pJtMTU1DQ0MPHjz4sa0F+BzJyBRsSqYa03Lt7HYAAUtGVVVV+fv7GxsbT5s2jRDSvXt3f3//nJycoUOH0h3Cw8NramqMjIyGDh36119/tVIztmzZcvny5R9++KElJ6G9RE0qaWVmZtrY2Lz32PT09Lt3775ZhUskEgkEAj8/P8kcpqurO3/+/HXr1hkbGzMrR44c2b9//59//llTU3PPnj2zZs3atm0bl8tVUVFZt24dE4xu3ryZlZWVnJy8a9cuQgibzd65c+eiRYuY85w/f97FxYXNZgcEBCQkJNjb2w8ZMgTlwQAAoFkIWDLK0NBw8eLFCQkJCxYsKCkpefLkyZsTt1vbli1btmzZ4uTk9P3337fkPDRgSSYhGla4XO6QIUPefWxKSso7rj5v3jzJ0/r6+kZHR0dHRwcFBa1cuZJ+zdjDw0MgEMydOzcsLMzExMTFxWXXrl2qqqr+/v7BwcFRUVEaGhonTpzw9PQkhCxYsMDGxmbevHmjRo1avHixmprazJkzCSG//vorDVs8Hu/YsWOPHj3i8XgzZszYt29fS54MAAC0V5iDJaPq6+tdXV2XLVuWn59vZmZmbW3dZLZ7a2PSVcsrYDUJWLdv3/bx8WGz2UZGRu891tfX9+LFi5eak5qa2qQD6cCBA9evX3dycgoJCWG6+gghFy9eJIQ4OzvTB0vLvY4dO5YQcuPGjZqamhkzZsyfP3/cuHGqqqohISFeXl5Hjx51dHQ8dOgQIWT37t2LFi3q27fv6dOnHz9+fOvWrfLy8mXLlu3fv//+/fstfDgAANAuoQdLRl26dCk/P3/hwoX//ve/CSEREREnTpyQk5P7NFeXYrqSnINVWVn5xx9/rF+/nsfjnTx50sDAgE4ma9K/JVlwwcTExMTE5MOvZWNjc/78+b179zKT1QghcXFxhoaGNKQ+fvyYXnfAgAE3b960tra+fPkyj8dbunRpaGgo/a7A6dOnaZkxOmt+ypQpjx49cnJy+vrrr0tLSydMmBAXF+fp6RkZGVlSUvJRzQMAgA4CAUtG0dHAsrKygoKCs2fPRkZG0qRCe4Pon4qKinTy0OXLlxUVFQcPHiyVS0s3XdEiVYSQ77//PikpiU5vOnfunKurK90aHh4eHBwslQtRcnJytNoCdefOnQMHDoSGhh44cMDW1vbUqVNz5syhkY5GLvr1xpycHNodFR8fb2BgsGbNmvT09N27d9OKxqGhoTNnzlRTU9u7d+/48eN/+OGHjIwMNpttZWUlxZYDyD6ZqjYuU41puXZ2O4CAJaO++uore3v7o0ePHj16lHa3ZGVlVVdX02qZ9DuDSkpKnp6ex48f9/DwcHV1PXz4cMuvK/V0xfROJSUlDRw40NfXd8GCBZ07d2a2Ojs7d+3aVbIHq7S0dOPGjR814YwmTrFY/GYn3/bt2+lsLS0tLbqGTqtiDB482NbW1sfHp1evXmlpaT///DOtfxEcHEyjGDVx4sT9+/dv3LiRzWZv3bpVR0cnLS3tA9/nCAAAHQ0CloxSU1M7ceLE/fv3q6ure/bsqaqqWlJS0qVLFzabnZmZyby4d+/evStXrnz27FmfPn1aflEppqvi4uKNGzd+/fXXPXr0mDhxYnJyso2NDRNxJDk6Ojo6OkquaWxsnDt3rqam5odfbvjw4T/99JNIJHqzuEN4eLiXl5empmZeXl5eXt6gQYPoECFDVVX1ypUrL168MDQ0pFcfPXq0q6trk0fq6el57dq1nJwcRUVFOzu7vn370jB3//79uLi4p0+ffnhrAQCg3UPAkl0sFsvMzIz5yBReYhbocNiXX3755ZdftvxyUkxXvXv3trKySklJoV/NI4SMGjXqww9nsVgfMv9dkpOTk5OTU7Ob1NTU3NzcaMEqU1PTZvdRVFSk6erdTbW1tbW1tW2ysry8PCUlxdHRUfLnAgAAHRwCFhCpjwwGBQUFBQVJo12fATs7u8uXL7d1KwAAQLYgYH1SW7ZsaesmNOPKlSuXL1+W7rwrAGiXZGoKtkw1puXa2e0AAtan8/r1a9kMWHSIDekKAABAWlBo9BNRU1Pr2rWr+BOaOHHi1q1b37Y1LCxs4sSJzEekKwAAAClCwAIAAACQMgQsAAAAAClDwAIAgA/F4XBowXFZIFONabl2djuAgAWt7lO+oxoAAEAW4FuE8E8MHTo0MjJSRUWFvg6ZEgqFmpqaenp6knsKhcLu3btzOJzevXu/eZ6IiAg3Nzdzc3NmzaJFi0aPHj1hwoRWbb+1tfX169fz8vIqKiro6xEFAkGnTp3oWyDNzMyUlZXT0tI6d+78Zml4Ghlra2uHDx8u+c4fQkh0dPSwYcOarfuakpLi7OxMH1d6enqTV/rw+fz+/ftraGi8eeD27du/+eYbvJMHAODzgoAFHy0/Pz87O/vFixezZ8+WfMP07du3/f39ly9f/uDBg3PnzqmqqsrJyT169EggEEh2fYvF4vr6+lGjRhkbGxsZGQ0ZMiQyMpLuTwi5ePHi3bt3//rrLxrO/P39Bw0aRAg5cuTIkSNHRCJRdXV1cXHx2bNn9fX139ZCPp+fm5t769at+vr6QYMGDRo0SEFBQXKH8vJyRUXFrVu3CoVCeXl5Ho/3/Pnzzp07V1VVqaioREdHd+/e/eTJkzQ/5ebm8vl8Ozu7tLS0nj179urVixBSU1NjbW0tGbAqKir8/PyePXtGCBEIBHfu3LG0tFRSUqK3HBUVdeDAgT/++ENOTm7y5MnDhw+nm6iampp///vfzQaszZs3T506FQELAODzgoAFHy0mJoa+sNnV1fXgwYPM+tDQUEVFRRoXcnJyaIfQtm3bfH19s7KymN3EYnFNTY2dnZ2xsfHkyZO1tLSSkpK+/fbbP//8MzMz89ixY0Kh0MPDY9myZc7Ozsz7Z6ysrDQ0NFRVVR8+fLho0SJtbe23Ne/8+fOenp7q6upPnz4dP358aGiojo7OkSNHaDB6/vz5ixcv6uvrMzMza2tr161b19jYGBsbO2LECHV19dzcXBcXF9qjtnXr1oKCAhUVlWPHjlVUVMyePbu8vJy+OZHP55uZmampqRFCTp06tWrVKg0NDdoZNnLkyKKiIh6Px2az7969S997KCcnd+jQIXt7+8jIyOXLlxNCfv311zczk1gs3r17d11dXU1NTU1NjUAgEAgEpaWlCxYsUFFRqaurq6+vP3nyZCv8SAEAQMoQsODjVFZWbtmy5e7duyUlJW/bx8rKaseOHYSQa9euJScn79u3r0kHEsXn83k8nrOzs7OzMyFkwIABEyZM2Lt3b0VFhb29fUBAgOQ4GvMmwatXr3p7e9OxttjYWAUFhRkzZjC7HTp0yMfH5/Tp066urkpKSrt27dLQ0Jg+ffqYMWNycnKUlJQuXboUERFRWlo6c+ZMFou1cuXKhoYGCwsLeviTJ0+MjY3p8s2bN93d3W1tbZ8+fcrn87OysnJzczMyMg4dOpSRkZGammpnZ0cIGTx48M8//1xeXj5lypSYmJiBAwd269ZNW1ubZk2GqqpqbGzstWvXCCH19fUZGRnMG7sFAkGfPn2MjY3l5OTi4uKMjIy0tLTU1NQ0NTVVVVXZbPawYcO0tbVFIpFAIGjxDxCgRWSq2rhMNabl2tntAAIWfBz6ksE+ffo8efIkNTXVw8OD2ZSfn+/n58d8zM7OXrhw4dq1a/v27du1a1dm/dOnTyMjI318fC5duvT111/v2bOHnuTVq1eurq4rV66kvUdPnz5t9pXPCQkJq1atostPnjyhA4tUWVnZ/Pnzz5075+rqev/+fTab3b17d0LI4cOHHRwcYmJi/Pz8pk2bZmpqOnDgwKCgoLS0NGdnZ7FYnJGRQc+QmZlpYmJCl5WUlNzc3A4fPhwbG1teXh4QEBAYGDh69OhRo0Z5eHgw+albt24uLi4BAQFTpkyxt7evqanR09OjM7fq6uqUlJSYmDhgwIABAwbQRBUQEKCqqko/JicnT5o0iVb5v3TpEt25pKTk1KlTenp62travr6+7xgPBQAAGYSABR9hx44dKSkpdHnYsGE3btxQUFDYvn17t27dpk+fLhKJmDlJAoHg22+/dXR0nD59+tSpU2mH08uXL1euXGliYkITlZub24ULF0aPHn3mzJnExMTS0tJt27aVlZXRETRjY2MdHZ2tW7fOnDmTdnedPn367t27V65cefnyZU5OjoWFBZ/P19XVZZq3f/9+V1dXV1dXQgiXyx06dChdz2KxJk6ceOXKFZr/Tpw4Qccu6bENDQ2vX7/Oysqqq6sjhKSmplpbWxsaGjY0NHC53MWLF9+6dUsoFD548CA1NTU/P//EiRNXr15tbGxkrpuamrpt2zZzc/PIyMh79+7Z2Nh4enoeOnQoNjb2zJkzjo6O9+/fT05OlpOTGzx4sLm5OZ3mtWzZsqioqNevXyckJHz77beSzzknJ8fV1XXt2rVHjx59+PDhJ/nZAgCANCFgwUfo1q3b6dOnbW1tuVzu+vXr6SBXfn4+i8WL5538AAAgAElEQVRKS0ujuSo4ONjCwsLLy+vKlSs0G9F0lZWV5ebmFhUVNXnyZOaE5ubmeXl5hJD169cbGBiUlJSEhYXR9zba2tqmpKTQmeBPnz51cXFxcnK6d+/emDFj7t279/vvvxcXFzd5f3ZmZuaoUaPocnx8/JQpU5hNWlpaL1++JISUlpbGx8cbGhqGhIRERUVxOBwVFZUhQ4a8evWKzsTKzs7u3r27oaGhjY3NhQsXFBQUeDze0KFDN2/eTHvXxGLx8uXL6eQqQsiFCxdGjhy5evXq9evXy8nJ/fTTTxs2bMjOzp4yZcr9+/d1dHQIIYqKiurq6omJiQoKCurq6j169Bg8eLCZmdn69etv3769Zs0a2tPG2L9//7Jly7799tuXL1/GxsY+evQIPVgAAJ8XBCz4CFOnTqUL1tbWBw8eVFZW/vvvvz09PQkhe/bssbS0FAgEGhoa58+fd3BwsLOzE4lERkZGmpqaLBarurq6tLQ0NDQ0NDS0srIyIiKC1mLYs2ePra2tgYGBubk5c/6SkpLMzExmYPHrr79euHDh0qVL+/TpExcXR7+6eOXKlaFDh86ePTs7O3v58uUaGhqdO3emI3f5+flnzpzZv38/0/KkpCQrKytCSEhIyPz58yMjI0eNGhUfHz9v3rylS5f6+fkJhcLg4GBfX186BvrkyRNHR0caj+hU99WrVxNCCgsL9fT0WCxWZWVlcnKyiYlJVVVVdHT0vHnzrl+/7uXlNWvWLELI2bNnJZ9bjx49evTo8fDhQwUFBQ6HQ9sfERGhqanZq1evw4cPN3nONjY2a9eu1dTUPHPmDCHk4cOHmJwBAPB5QcCCf4JOvk5NTQ0ICFi0aFHnzp2/+eabvXv3Ojk5EULGjRs3bty4VatWycvLFxQUKCsrE0Ju3bq1ePHiy5cvE0KY8TU+nx8cHHzz5s3s7OyXL1/u2bOHrq+urpa8XEZGRmxs7KlTp7p27coUhjh48KC/v39gYGBAQMCdO3ccHR3d3NwiIiLs7e0XLFgQHh6upaVF9zxw4EBSUtLPP/9MCDEzM5s5c2ZkZCTdVFxc3LVr1+XLl9fV1QUHB5eWllZVVSkpKRkbGxcVFdE6ET169EhISJCTk0tNTfXz8+NyuZITv2hMfP78+bhx41JSUiwtLX/88ce3PTeRSPTbb79t2rQpPT198eLFq1atojP6N27c6ObmxnwVgNZlyMjICAgIyMzMtLS0lOpPD+Cfo/VWZCTxy1RjWq6d3Q4gYME/UV5evnXr1oSEhOTk5CNHjujq6v71118eHh5DhgwJDQ2VnJxO01UTTHnS6OjoMWPG9OrVa8GCBRs3bvzqq6/o+pKSEmYmO52ttWTJEi6Xy1SFSExMTEhIyMvL09DQSExMZHbbt29fv379/P39ly5d2tjYeOfOnd27dx89ejQtLe2LL74ghDDT8G/fvp2dnc3hcHbs2BEVFaWjozNu3LiYmBgOh8Plcjds2EBnzfft2/fVq1cWFhZWVlaHDh1KT0+XTFeMe/fuCQQCWlQiKSmJrqysrGQ64UpKSk6cOKGvr9+7d++ioqKtW7dGRES4uLjQQcaNGzfS4hTMCceMGTN8+HAfHx9bW1tra+uW/bgAAOBTw6ty4J8IDg6mo3gmJiYikUgkEvXr1+/WrVudO3dmBuaEQqFQKKSzyHNycoqKippURc/Pz1++fPnGjRs3bNhQWFg4Z84cs/+vd+/e9FgqJibG0dGRzmGvrq6eP39+UFDQhQsXmlTmVFVVPX78eGNj4y+//MJisb777ruRI0cqKSndvn2bVoJg1NfXc7ncZcuWXb9+fc+ePXw+PyoqSl5evrCw8Ny5cwYGBiKRqLi4uLi42MTEREtLq6qq6osvvli9evWkSZM8PT2PHz/e0NAgeUJ7e3tnZ2dDQ0MnJ6f9+/e7ubn17t2b1pVgJs4vWbLE2Nj4yZMnr1+/Xr9+PS1qdezYsRcvXkycOJFOsacaGxs3b97cq1cvFot14MABqf7oAADgU0APFjSDw+GEh4cHBga+rbN6y5YtTJ1MkUhEw4Gamlp0dDSzDy00SmeFr1y5srq6ms5PYgiFwpCQEC0trczMzLS0NMm37tTX10uWEu3cuTOdYE6Xhw4dGhERQet8vokZaNu0aVNISEiTl9JQAoFg6tSpbDb77NmzLBYrKSmpU6dO5ubmlpaWDQ0NXl5elZWVTk5Opqam/fr1++qrr8LCwugXJH/88cezZ8/+9NNPiYmJ+/btk7zZ48ePV1RUPHr0qLKyUuv/o1uVlZWPHDkyfPjwWbNmXbt27fLly1wut76+XigUKigoKCoqdurUianFRXv4unTpEhcXR7u4AADgs4OABf9FcxWdB7BixYq3pauqqirJj+vXr292t82bN9MFJSWlJpO+KXNzc1oznb4YR1Lv3r2bPYRWRadfTnyvJqU+JVVWVtLuNDc3Nzc3N7pSVVVV8juJ+fn5bx7IYrHc3d3d3d0lyzQwNDQ0mn3dDVMwghBiZ2dHK5S+m7+//3v3AQAAmYWABaRJtKLpKjAwsK0b1YqafYXzR5HsbwPoOGRqCrZMNabl2tntAH5JdGhNchXV7tMVAABAa0PA6rhyc3O9vb3fXB8WFkarfcLnAv/xBQCQNQhYHZeFhQX9xdwkTqEH67PTbFAGAIA2hDINHVpgYGBgYGBxcfGKFSuYlWFhYeHh4W3aLgAAgM8bAhYQmrRozKJJCxkLAJrF4XCazNpsQzLVmJZrZ7cDCFjwX5IdWpiGBQAA8I8hYEEzaMxq61YAAAB8rhCwAAAAAKQMAQsAAABAylCmAQAAPpRMFV2Tqca0XDu7HUDA+nQqKyvl5OTEYjF9oR59C3KrLtvb279jn8TExE/cHizjZ41lLGP5c1mGFsIQ4afTtWtX5m+tWCxu7eWJEye+ub6hoUEgENDliRMnisXiuro6yX3EYjGfz5c8T3Jy8sOHDyX3yc7OLi8v/5T3guV/8LOWXKY/6zZvJ5axjOXPaBlaCAGrLYWHh7u5ubm5uWVnZ9MiKMOHD7969WqzO/P5/IqKCt4bGhoaPvyKGzduVFFRoYdUVFTEx8cPGzaMZizqxYsXqqqqMTExhJDa2tqxY8dyudxp06bV19fTHV6+fGltbR0XF/fmySsqKrKysvh8frOXzsrKoje7Y8eOD28wAADA5wgBqy3dvXuXw+H079+/S5cuhJCqqqq///77bYHp9OnTmpqaXd4QHx//4VdUUlIihLBYLEJITU1NaGioi4tLenq6ZJMIIXp6emKxWFlZefbs2a9evVq6dKlIJCosLNy3b9/OnTsJITdu3FiyZMlff/3l7u4eGxv74sULQsh//vOfgQMH3r9/nzlbYmJiREQEXVZVVe3fv39ycnJeXl4LnhkAAMBnAHOw2pi+vn5oaChdph2z8vLNp95JkyY16bl9/Phxz54937b/O5SVlRFCDA0Nd+3apa2tTVcuWbIkKiqKLo8dO1ZHR2fLli3GxsaxsbEBAQHKysr19fVPnz7ds2dPr169RowY0bNnT3Nz81u3bi1dupTH45WXl7PZbCbDUd27d/f29ra2tnZxcTE1NQ0NDT148ODHthYAZActNS4j07FlqjEt185uBxCwZIhIJCKEKCgoSK7MzMy0sbF577Hp6el3796VPPbJkydKSkqxsbECgcDPz08yh+nq6g4ZMqRr165MuiKEjBw5sn///j///LOmpuaePXtmzZq1bds2LperoqKybt26gwcP9unTJzAwMDQ0dO3atf/6178IIT/++OPRo0eLioquXr2qoaFBAxYzx4sQMmTIkFmzZvn6+j569EhVVVUaDwkAAOAzgCFCGUIDlmQSOn/+/KBBgySH8N4mJSVl9uzZX0u4fv36oUOHvvnmm0WLFtEzM3x9fdPT08+ePbt27dqKigq60sPDw9fXNzs7293d3cTExMXFpaSkRFVV1d/fPy4uju528uRJHo83adIkekh1dbWqqqq6uvqoUaMIITRg0e4xOquMEDJ37tzS0lIulyvVRwUAACDTELBkSJOAdfv2bR8fHzabbWRk9N5jfX19L168eEnC8OHDFy1adOnSpdTU1Ca9YgcOHFi2bJm2tnZISMjQoUOZ9RcvXiSEODs7E0Lq6+u7detGhwvppCtCyLZt22xtbU1MTPLy8nbs2HHz5s3y8nLmcNrOgoKCFy9eWFtbZ2VlEUIGDBhACLly5YpUHxUAAIBMwxChDGHmYFVWVv7xxx/r16/n8XgnT540MDCg3yJs0r9VW1vLLJuYmJiYmEierVu3bj179hw2bFiz1zI0NBw2bNiYMWPU1dWZlXFxcYaGhtbW1nSCF73ugAEDbt68aW1tferUqStXrvz++++7d+9esGCBjo5OaWkpLQGwc+dOPT09NTU1KyurpKQkOmdfTU2Nzm23srK6cOFCcHBw6zw2AAAAmYOAJUMaGxsJId9//31SUhIdcTt37pyrqyvdGh4eLvWMMnfuXGb5zp07Bw4cCA0NPXDggK2t7alTp+bMmUMjHY1c9fX1VlZWvr6+AwcOnDVrVkxMzNq1a0NCQo4dO3blypWCgoIuXbpMnTp13bp1ycnJtra2ffr0oWeeNm2alpaWdFsOAG1CpqZgy1RjWq6d3Q4gYMkQ2juVlJQ0cOBAX1/fBQsWdO7cmdnq7OzctWtXyR6s0tLSjRs3Slaxei86CtlsHbnt27cTQubNm8eEoZkzZ0ru4OXl5enpKScnZ2dnFxsbe/v27YyMDH9//3nz5m3bto32Wi1fvvzWrVvXr1/fvXs3c2BQUNBHPgkAAIDPGwJWGysuLt64cePXX3/do0ePiRMnJicn29jYNNvf4+jo6OjoKLmmsbFx7ty5mpqaH3654cOH//TTT03mvFPh4eFeXl6ampp5eXl5eXmDBg2iQ4SS6FsUdu3a5eHhkZOTs2jRomnTpikrK9PCpIQQFRWVP//8s9lL379/Py4u7unTpx/eWgAAgM8UAlZb6t27t5WVVUpKiqenJ11Dv473gVgs1ofMf5fk5OTk5OTU7CY1NTU3NzdCiKmpqamp6TtO0qlTJy8vLy8vr4+6dHl5eUpKiqOjY8+ePT/qQAAAgM8OAlZbCgoK6jjDZ3Z2dpcvX27rVgAAAHwKKNMAAAAfisPh0ILjskCmGtNy7ex2AAELAAAAQMoQsAAAAACkDAELAAAAQMoQsAAAAACkDN8iBACADyVT1cZlqjEt185uB9CDBQAfp7q6WvIl39KycePG+/fvv2MHPp///PlzqV8XAKA1oAcLAN6juLi4e/fuRUVFhoaGhJAjR44cOHAgLS3tHYe8fv16w4YNampqtPq/JLFYrKCgsG7dOhbrv//+3Lhx4/vvv/f393/HOc+ePRsZGXnp0qV37JOdnf348WM5OTmRSCQUCoVCYWNjo5aW1keV8AUAaDkELAB4D1VVVeZPQkhubq6zszMh5Pjx46WlpWw2u7a2tqKiIjs7OzAw0NLSkqYoFRUVJSWlN8+WlpaWmZkZGBiopqZG14jF4rVr17LZ7IULFzY0NNTX1wsEghkzZsyaNUvyQEVFRaYNb3Py5Mk//vhDXV1dQUFBUVFRUVExIyOjZ8+eCFgA8IkhYLVnb3YeAPwD9BXjzF+n27dvf/vtt/R14/Hx8TU1NcrKypqamr169WIyU9euXf/973/TZZFIVFZWpqurSwipqKj45ZdfYmJimD0JIfv378/Kytq4caOSkpKSkhKLxVq6dOmYMWPe1h4+n//w4cMHDx4UFBTcvn37hx9+6NGjB920du3atWvXMnu+fPmyV69e69evb5XnAgDwdghYAB3Us2fPxo4dm5KSQqNPWVmZq6vrmTNnunfv7uHh4eLiwuFwLl68OH369A0bNkgemJWV1adPH0LI/Pnz58+f/yEXMjY2bmxsrKur8/PzGzNmjLe3N7P17t2769atS01NpV1fhJD8/Hwejzd9+nT6saSk5OzZs8XFxX///XdycrKRkdHr16/NzMz69OnD4/GSkpK+++67t116/fr1+vr6H/veTHgHWmpcRqZjy1RjWq6d3Q5gkjtAB9WpU6fs7GxmFE9ZWTk7O5vOi3r27NmyZcsGDx6cnp6+cuXKJgeWlpYybxkXi8XvvVBdXZ2Ojs6pU6cGDBjQq1evnTt3MptOnTrl5OSUmJjIpCtCyO7du2fMmKGvr08/VldXZ2dnq6urW1paOjo65uTkVFVVXbt2bffu3Q8ePNiyZUvv3r2bve6NGzd27dq1a9cuBQWFj388AAAtgh4sgA6Kxg4mfNAFGrAUFBQ2bNgQEBBAN/F4POao2tpaGs4IIU+fPh09enR6ejqbzX7HhR4/ftynTx8LC4u4uDgbGxvJTUVFRYcPH7a1tWXWpKenb9u27c6dO8waExOTiIgIQkhSUtKtW7e6du1KCLl169aUKVO8vb1XrFjR7EUfPXo0efJkZ2dnJyenf/qEAAD+OQQsAGhGkyTEaGxsZLPZf/75p5aWVmJi4pw5c96drgghhw4dsrOz69Wr15ubFixYIPnx+fPn06dP37Fjx5dffvnucyYkJKxevXr27NnNbs3JyXF1dXVycsrNzZ06deqePXvU1dXffUIAAOnCECFAB0U7q6qqqujHc+fOfchRysrKPB4vOjr6yy+/fPLkCe3KeocDBw7s3bs3MDDwvWe+e/fu4MGDXVxcFi5c+LYG8/l8urxx48a3pavU1FRHR8cpU6bExcWlp6c3Njba2dkVFhZ+wM0BAEgNerAAOig2m923b9/o6OigoKCcnBw6INjY2EgIoeWjmD2ZlTTlsNlsRUVFAwMDf3//KVOmnDp1ytLSsrGxsbCwUEFB4c8//2SO2rt374IFCw4cOGBgYPCOltTW1u7duzcoKGjNmjWS3wFswsjI6O+//05MTOzZs6dIJOLxeI8ePWpoaGAm2mdnZ2/ZsiUpKWn37t0+Pj70Ho8ePbp48WI7O7uLFy++t2MM3kumpmDLVGNarp3dDiBgAXRcO3funD9//qZNm2xtbffs2ePp6SkQCAghSkpKNE5RfD6fFruiH21tbelvAjc3t4KCghs3bjx9+pTNZo8fP56Z/H7//n1HR8du3bqdP39+xIgR72jD1atXPTw8DA0NT548OXz48HfsaWFhsX///t9//724uJhWgjAwMLCzs2N2iIqKUlNTu3fvnp6eHrNSXl4+Kiqquro6Li5u06ZNLXhaAAAfAQELoONycXF58OBBfX09/S4hM1zI5XIldzMwMGA2EUKio6M1NTXpsq6ubrMFq0xMTBITE+3t7WkNrXewsrLavXu3h4fHe/ckhPzrX//617/+9bat0dHRza5XUFCIiYlBWTjZx+FwuFzuhwwoA8g+zMEC6Oiarbf+Dr1799bQ0Hjvbo6Ojh+SmVRUVDw9PT9kz5ZgsVgo1iD7uFxuWFiYvr5+eHh4W7cFoKUQsAAAQCYEBgbSuhtMzELSgs8XAhYAAHwoDodDC463EiZj0Zj17g6t1m7MJ9bObgcwBwug/cvNzZV8Ow1AC33ijiWatFasWMHn8y9evCgSieh6+v1WWnCEcfr0aRUVlU/ZPIBmIWABtH/GxsaYOAxSQb8AYW9v36pXebMjx8HBwd7e3sHBYefOnfv373/bgTNmzEC6AhmBgAXQ/nXp0gUldkCKWvWvU5PeVgcHh8DAQMkrurq6tt7VAaQFAQsAAGSFt7c37b56M1cBfF4QsADaAxR5gk+jVRNPeHg4h8PpsNGqA95y+4aABQAAMiEwMBCTBaHdQJkGAAAAAClDwAIAAACQMgQsAAAAAClDwAIAgA+FauOtB8+2nUHAAgAAAJAyBCwAAAAAKUPAAgAAAJAyBCwAAAAAKUOhUQD4dDgczrNnz+Tl/++/diKRyMjIaMiQIc3u/PTp0wULFiQmJp49e1ZRUZFZ39jYaG9v361bt0/VavgvVBtvPXi27QwCFgA04/nz5wYGBiUlJbq6um9uraqqUlNTY3LSex09enT16tUPHjwoKyuLiIjQ1tYeNGhQYWHh5cuXdXV1vb29mVPJy8svXryYENLQ0DB37lwnJycFBYUJEyaEhoYyZ/v9999jYmIQsABAliFgAUAzOnfuTAhRVVV9cxOPx1NXV79x48aAAQM+/GxqamqEkAkTJly7dq1Pnz6zZs3icDgVFRWOjo7Lli0LCQkhhDx8+PDmzZuLFy/m8XiTJ0/u2bPnqlWr6GsWHz9+zJyNz+crKSlJ714BAKQPAQsAmkG7lJrto6LZi81mf/jZ5OTkWKz//mtz8uTJV69e0cwUGBi4YcOGFStWsFismJgYetpr167p6OhEREQ4OjomJSWx2Wx3d3fm8GvXrrX4/gAAWhcCFgC8VU5OzsGDB//44w8rK6vIyMhBgwZ9++23qamphJBx48Y1NjZev359586dfD5fLBbv37/f0tJyzZo1ZWVlmzdvLigoWLZsWUBAQNeuXZucVl1dXUdH5+XLl/SjjY3NvXv3zM3NuVyum5sbIcTFxcXFxSU4ONjAwKBr1648Hm/fvn3M4U+fPm1sbPy0TwIA4OMgYAHAW02ePHnv3r0bNmyIjIycPn16fn5+cHDwd999p6OjEx8fr62t3aVLFx6Pt2XLll27dt2+fXv37t1fffWVlZVVQkKCsrLyhAkTDAwM/Pz8mpx22LBhM2bM4HA4+fn5hJARI0akpKT06dPnzJkzGzZsIISIxeKgoKAtW7bk5uZmZ2enpqYqKSnRsUJCyPz58xsaGhobGyV7xeDToKXGMR27NeDZtjP45wkA3iokJGTUqFGEkCVLlmzatKmsrExbW5tu0tDQMDIyosOIzs7ONEXNmzdv1apVP/74o4mJCSFk4sSJ6enpbwasTZs2/fbbb2VlZf369SOE+Pr6jh49WktLa8SIEfr6+oSQsLCw//znP2w2u7a29rffflNRUWGO5XK5ioqK/fr1s7a27tKly6d9HgAAHwp1sADgrZiZT+rq6oQQoVDY7G7M/7lp4unfvz9zVH19/Zv7r1+//vLlyzExMfSjiYnJgAEDZs6cGRQURNf4+PicO3dORUXl1atXXbp0UZOgrKysrKysoqKCUUIAkGXowQKAt/rwQgySmLG8tyksLDx69OixY8eYNXRuO9NTZWhoSBf09fXHjh0bGxvbr18/GuPKysqUlZXd3d2VlZX/QdsAAD4NBCwAaIZIJJLssqLdRcxHNptdWFhYX1/ft29foVAoFoslj2L6lpj1QqGwtraWEBIUFLRjxw5bW1uxWGxhYZGRkSEUCr/77ruCgoKwsDAXF5fk5GQ6vEgZGhpaWlqqqKiMHz/+7NmzAwYMuHLlioqKirOz86d9HgAAHwcBCwCaUVtby2azBQKBhoYGLT1FZ0TRrYsWLRoxYoSOjg6Xy5UMUnS3uro6+lEoFCooKBBC6urqaIfTqlX/j737jmvqivsHfkJCIEAYyt6iAoKIgijLxVAUnFBnHXVRxcESHHWAG0GoUmuVVtQWqAqKYEUFtY6g4IzsIWVoJCo7CQFCfn+c57m/PEgdJUCE7/vVV183957cnHsDl4/nnHtu0O7du/Hg9Hv37l2+fNnFxaW1tfXy5csDBgxob28fOnToX3/9NXXqVLwHvOcxY8b89NNPKSkpUlJSVVVVxsbGvXRWAAzB7kZwbvsYCFgA9HcMBuPDK7uGhkZDQwPxUlVVVfTlgQMHQkND8WyfBw8eJNYrKiqKFvP19cULc+bMmTNnDh4aT2zlcrlkMnnGjBk+Pj54V5s2bbKwsDAwMCDKEJHOy8vr0qVLwcHBSkpKa9euFesJAAAA8YOABUD/xWAwIiIiGAxGYmLil/7ruetzqU+ePBnfoigKz4OFVVdXi26aNWvWrFmzuvihAADQMyBgAdDvELkKvwwMDIS+CQAAEC8IWAD0Ix2iFU5XAQEBvVopAADogyBgAdD31dfXe3p6iuYqDDdcRURE9FK9wNen0xF7PWzp0qV4YfDgwYMHD+7dyogRzOTex0DAAqDva2hoyM3N7e1agL7A3t6+FzMWl8s1NDQsKirCL0tKSqhUquhzx21tbblcrpycXK9UDwBRELAA6Pv09PSysrJwS1V4eDixnsFgBAQEwL+YwedjMBh2dna9+DOzfft20cpAkw+QWPCoHAD6i4CAgICAABaLFRgYSKzstOsQAABAF0HAAqDfIWIWTlqQsQAAQOygixCAfgrfPBgQEBAREQGdLOAzSdSPikRVpuv62OEAaMECoL+DaRoAAEDsIGABAAAAAIgZBCwAAAAAADGDgAUAAAAAIGYQsAAAAHwuBoMhOfecSlRluq6PHQ6AgAUAAAAAIGYQsAAAAAAAxAwCFgAAAACAmEHAAgAAAAAQM5jJHYB+zdLS8tGjRwUFBbW1tQghOp3O4/FkZGQQQnw+39TUVFZWNiMjQ15eXkqqk3+PCYXC5ubm8ePHy8vL4zVMJnPYsGHS0tLjx4//8ccfR40a9fEKCAQCMzOzpKSkgwcPhoaGGhoaim7lcDjEnvu8J0+evHv3jkqldrpVIBAMGDCAOJ8bN2708vIaN24cQujdu3ebNm06deqUaPluOnUSNdu4RFWm6/rY4QAIWAD0azU1NdLS0ocOHRIIBFJSUo2Nja9fv5aXl29oaKDRaCdOnNDW1k5NTcV/qnNycrhc7pgxYzIyMgYNGmRkZIT/kFtaWuICLS0tlpaWRUVFQ4cOff/+PZlM/mQFyGRyUVGRkZHRnDlzxo4d++LFC3V1dbzp7t27CxcuLCsro1DEc6Vqa2vj8Xh0Ov0jZUxMTPbv3z9nzpwPNzU0NCgoKHQaNDu1fv36tra2n3/+WXRleXk5k8ksLS3V0tJycnJSU1MjNuXl5T18+FBaWhohFBkZ6efnx+PxkpKSFi1ahBBqbW0dPnz4qFGjhEJhSUlJampqaGhocgmb9nkAACAASURBVHLyzJkzr1271tbWJvop6enpPj4+OTk5eG8AgJ4HAQuAfur169fV1dUtLS2PHz9ubm7etm1bW1tbbGzspEmTlJSUcnJynJ2dzczMEEKHDh0qLi6m0WgXL16sra1dvnx5TU2Ng4ODg4MDl8s1NTVVUFDA+7x27ZqVldXQoUMRQhQKRTQYCQQCnLcePHiwY8cOOTk50cp88803FArFyMho2bJle/fuxe00W7ZsWbZsmbjSFY4dU6dOFQqFHymjoKDQoW5YY2OjkpLSkydPPtkmR5CXlxfNPVwu19vb+/fff9fV1W1paRk7duz8+fMjIiL8/PxIJBJC6Ntvv7W2tm5tbaVQKH/88cfKlSvr6uru3LmzcuXKtrY2KpVqamqKEPr+++9v37594MCBlJSUX3/9dfr06dHR0QKBYOXKlfg8Ozs7e3p61tXVxcfHL1my5MvPEwBADCBgAdBP3blz5/Dhw2w2e8mSJRQKZdOmTbiNBG+tqKjQ19fHy8+ePfPw8LCxsamqquJyuU+fPs3JycnOzk5ISMjOzk5PTx8zZgwu+fPPPz958kRRUREnEnNzc9xc1NjYaGxsXFhYiBBqbm7mcrkbN24kavL48ePZs2dramriNjC8UFJScv/+/QsXLnTlGIVCIc4uGJ1OJ5rH/g2ZTO60jQo30X289asDKSkpog2Py+WOGzdu8ODBb9++PXXqVEVFxdGjR9PT011dXbW0tBYsWICLrV27lsPh0Ol0Npu9fv16Pp+fl5e3fv36uro6LS2t1NRUhJC3t3d8fLyGhsaiRYtu3rwZFxfHZrM3b96M95Cenp6fn0+j0YKCgk6dOgUBC4DeAoPcAein5s+f/8svv+CGIisrq8WLF3/33XfE1sePHw8ZMgQvU6lUNze3jIyMLVu2+Pn5ZWRkfPvtt5GRkRkZGRMnTiQ6oR48eHDv3r2CgoL8/Pz8/HxjY+MbN27g5fLy8rS0NFysvb3dwMDAXYSlpeWIESPc3d3ZbPaIESO0tLQQQg8fPhw3bhwOW6GhoZGRkZs3bzYxMdHQ0IiIiGhqasJ7YzAY48ePJ5FIioqKYWFhra2teH1ycrKHh4eSktKkSZNwSrO2tl6yZAmbzTY3N/fw8CgvL7e0tHz8+PGHZ4bNZoeGhg4ePHjw4MEJCQl4wJOFhQVCyN3dffDgwbW1tXv37t22bdvWrVv19PSmTZt2586dxMREa2trRUXFHTt21NXVddhnWFiYmpra2bNnVVVVc3Nzzc3NEUIuLi6XL1/29vYWCAS4GI1Gi4mJycjI0NXVzcjISE5OtrGxycjI+OWXX4iWPCsrq6tXr06YMGHhwoVVVVVr166NjIz87rvvVq1atWrVKjs7OzyKa8aMGbdv3+7QdQgA6DHQggVA/5WcnIyH+2hoaOBRPvX19U+fPuXz+bgtxNLSUldXt7W1NTMz08fH5/nz5wKBoLS0ND09vbCwMDk5+eHDh/hP+Pv377/55psjR46YmJjgncvKympra+vo6HT4UB6Pd+fOHTyuiM/nnzp1ysjIqKqqytzcfOPGjXl5ebhYQUEB0RnH4XB27ty5YsWK8+fPC4XCvXv3Xrt27fr164WFhQ4ODocPH05MTHz9+vXOnTvv3bt3+fLlt2/fzpo1686dO5cuXbpx48a8efPs7e1TUlKYTObSpUtv377d2toqJyc3f/58VVXVD0/L4sWLo6OjHz16dPfu3ZkzZ06YMGHHjh0//PCDurp6fHy8mpqaoqJiY2PjwYMHjx8/npub+8svv0yYMGHEiBGJiYmysrIzZ87U0dHx9vYmdtjW1hYSEvLs2TMZGRmhUJiRkbFmzRq8ydXVtbGxsaSkBJ83Pp+/Z88eNTW1qqoqHx8fDodTUFDg4+Pz6tUrIiq1t7cXFxc7ODjMmDFjyZIl586dY7FY69evx4O9OBwO7rHFI+TKyspwj6244KnGJWQ4tkRVpuv62OEACFgA9FNsNjs+Pl5XV3f//v3R0dEMBoNGo9na2r5//x6PxGIymdra2rq6utbW1rdu3SKTyY2NjY6Ojvv27du0aRPugPPz88MRqq6ubs2aNUZGRrGxsbhf7M2bN5cuXXr8+LFQKORyuZ6ennhAd3Nzs7Oz865duxBCI0aMoFAoI0aMuHv37j///LNgwQJdXV1cvRcvXri5ueFlMplMp9OPHTuG22YOHz6sp6eH6+ng4ODn54cQUlNTCw8PHzp0aG1tLZ1O19XVvX//vp6e3tSpUxsaGvB+KioqqFQqMa58y5YtnZ6ZFStW+Pj44EYgMzOzhw8fzpo1C29SUVHR09PD3X9OTk44Ra1atSooKGjPnj24zW/OnDkPHjwQDVglJSV0Oh23gWVlZbW0tNjY2OBNVCqVTqcTLV6xsbFtbW0kEolOp798+TIsLAyfqPb2duLuQldXVz6fX15evnv37mHDhtXV1S1atCgqKur69euTJ0/mcDi4G5RMJltZWRUUFIg3YAEAPhMELAD6qf37969evToqKmry5Mnx8fGrVq3asGED7q7asWPHwoULcf6oqKhwcHDAf7PxUPfg4GB8N5ympiaFQqmrq7t27dqQIUO2bt2anp5eX19PRIHm5uampiYcsIjPZbPZRkZGhoaGeLA5jUabNm3atm3bEELZ2dlEsebmZllZWeKlp6cnsVtdXV1dXd3MzMx//vnH1dWVKDNkyBB1dfXs7OzJkydfuXLlyJEjeBaD7777LjQ09PPPzOzZs4nlgQMHEv13HRAtDXjM2ciRI/FLJSWllpYW0ZI0Go1Go+GhXcePH1+xYgUxzOvp06d4gBpCyN/fPyMjQ0ZGhsVi1dfX6+npzZ07t76+vq2tbeDAgXw+f/z48UePHr1w4cLvv//OYrHMzMwyMjKmTJlCpVIjIiI2btz44sWL6upqS0tLvHMqlYobIwEAPQ8CFgD9lKmp6ZIlS6KiovBLFoulrKzs5+fH5/N37NjBZrMbGhqoVKq+vn5lZaVAIFi3bp2BgUFiYiKJREpPT/f29s7MzOxww52Li4uLiwtePn78+Pz58/F9iKIKCgrMzc0bGxvZbDZuDaJQKDweLzAwUF9fv6KiQltbGzdrFRQUEO8qLi4mlquqqqqqqjQ1NR0dHePj43fu3InXl5SUsNlsLS0tLperpKQUExOD+8hsbW0dHR0nT578mWfm8ydiECU6mr4DAwMDZWXlhIQEEon0119/4cH+CKG3b9/6+fmtXbtWRUUFt8whhJ4/fz558uSbN2+OHj2az+dPmzZt0aJFy5cvJ/aWm5ubnZ2tq6tLJpMLCgo4HI6KioqLi8vRo0elpKQKCwvxWDqhUJibm0v02AIAehgMcgegn/L29qbRaPgPNpPJ9Pf39/X1pVKpenp67u7ueETI/v37ceG3b98aGxtTKJThw4cvWLDA1dU1Li6u0+kMPq6trS01NVVbW9vR0XHatGnr1q3Lz8+3s7NbtmzZ6dOnX716dezYsT///BMhNGzYsJycHOKN9+/fDwoKKi4uzs3NDQgIGDFixMiRI6dOnXr//v3o6OiamhomkxkUFOTg4GBubn758mVDQ8MHDx4IBIL29nYej1dTU4PvBKyqqqqpqSkuLq6trY2MjKysrOxQQ4FAINpk1d7eTgx+otPp5eXlhYWFQqFQIBCIDorCh4ZfEtNACAQCYtD94cOHV69eHRoampiYqKysXFNTc/78eSsrK2Nj44MHD4pWoKqqavHixevXrx8/fvy4cePk5eWXLVsmWuD+/ftWVlZ4efz48ZmZmXjZyclJKBQymUzcU8lisRobG6F/EIDeAi1YAPRrLS0tmZmZvr6+s2bNWrlyJZfL/f333wsKCsrLy2/cuGFiYtLe3l5dXf3mzZshQ4YUFRU1NDQYGhoGBwd7eXlZW1svW7bM3d1dWlqaxWKdPHlSdB7OsrKyM2fO4NsAhUJhU1PTrFmzcKOUu7u7h4fH69evDxw4sGvXrpiYmOnTp48YMcLKyorH4+FcNXr0aDzh1oABAxBCAQEBPB7P0dGRzWZPnz49JSUFz5uVm5u7evXq9evX48m0zp8/LyUlNXfu3JaWlpkzZ+LbEgMDA728vBBC5ubmNjY2AwcOtLGx+fPPP3fu3GlnZ4db0Qg0Go1IRbg1C+cnPIfCpEmT1NXVcaYhghSXy6XT6URnHDHjl0AgIJq13N3d6+rqSCQSiURis9kaGhrjxo2Ljo6eOXMm8VkcDofFYikpKRkaGt6/fx8htGjRoqtXrw4dOnTx4sVLly4dNGgQQujSpUtnz56NiYkRCARz5szBHanZ2dnv3r17+fLl0KFD8Tm/fPmyjY2NaDerWEjUEGyJqkzX9bHDARCwAOjXeDzevHnz6HR6WloahUJJSUmRkZExMzOzsLBobW2dPXt2XV3dxIkTTUxMzM3NJ0yYEB4ejmeE2rNnT1paWlhYWFJS0pkzZ4RCoaysLI1GIyJFWFiY6AcJBAIqlaqjo3PkyBFcJi8vj0qlFhQU4A6ylStXDh8+nEKh4Pm3LCwsHBwcoqKi8PApGo0WHh5+9OjR9vZ20S48MzOze/fucTgcWVlZYtIpKSmpJUuWLFmypMNALikpKTzGHA/nIga/i7p3757oyzt37hDLBw4cCA0Nxe8VbXZSVFQU3ZWvry9eCA8PF90VUW11dfXm5mb8PCJRUVFRycnJI0aMGDZs2PHjx/FQqo0bN1ZVVf3888+WlpYPHjwwMzO7efMmjUbjcDh8Pn/s2LH4vWw2+8yZMwMHDsRTb3C53L179+7bt+9T3z/oRlpaWoGBgQEBAb1dEdA7IGAB0K/V1dXhP/xubm7EXXtycnKiAYIYMySKQqF4eHh4eHjgrjFtbe2goKAv+mjRAVuYra2t6MvIyMhly5bt2LGjubmZmAXqI7OAfqjT9pt/e9jf5+jKe0V9mK4QQtu2bcOD/TvQ1dXdu3dvSEgIPgm4Y/fo0aOiZfCMYsTL7Oxs0flLQa8IDAwMDw8PDw8PDAzErbC9XSPQo2AMFgD92n8b0C1KjI+y6cDGxobJZOIB78QU8/3WF53nCRMmZGZmdt9XAz5HQEAAjlY4ZmlpaUVERPR2pUDPgV8/AIDkwr1+HUZ5g8/xOU/aBt0Nt1oRncUdGrTu3bv38Wc3sdlsR0fHnqosEDMIWAD0fQwGAz9/BgDQ63DeYjAYJBLp+fPnHylpaWkJAevrBQELgL7P3t4+MTGxt2sB+gKJepyLRFXm33h6euJ6Euzt7QMCAuzt7T09Pb29vXGD1ofCw8OJOTjA1wgCFgAAANAtRNMVkat6u1Kgh0DAAgAAAMSPSFcQrfonCFgAAACAmOFolZiYCLmq34KABQAA4HNJVFyQqMp0YG9vL8nVAz0A5sECAAAAABAzCFgAAAAAAGIGAQsAAAAAQMwgYAEAAAAAiBkELAD6LwaDERER8eFEiAD8GwaDITk/LRJVGQA6gLsIAeiPcLTCf5wCAwPhdicAABAvCFgA9CMMBiMzM1P03/2BgYH4ebQAAADECAIWAP2CaJMVAdIVAL3u3bt3vV0F0C0gYAHQx1VWVtbX13t6en64KTw8PDw8vDcqBQBAxL988DKNRuuwdfTo0b1RKSAeELAA6OP09PSqqqpYLFZERESHOGVvb5+YmNh7VQMAgD4L7iIEoL8ICAhgsViBgYGBgYF4DYPB6LRlCwAAQBdBwAKgfwkICCCSFmQsAADoJhCwAOiniJgFczQAAIDYwRgsAPo1uIsQAAC6A7RgAQAA+FwSNXm6RFWm6/rY4QAIWAAAAAAAYgYBCwAAAABAzCBgAQAAAACImZgDFolE+g+bQDcRCoW9XQXQQz7yXcOvHgAA9Dy4ixAAAMDnkqhJPSSqMl3Xxw4HQBchAAAAAICYQcACAEiK/tOp3dLS0ttVAAB0L+giBAB8mdevX6urq1Mon7h6tLS0TJky5caNG6Ilb926lZeX5+Pj02l5GRkZDocjJyf34VYOh1NVVWViYvLJ6r158+bixYtr1qz5twIlJSVbt249d+7c3bt3EULt7e2Kioqtra1kMlkoFPJ4PHt7ez6fn5GRIS8vLyXVyb9ChUJhc3Pz+PHj5eXlRdefOHFi3Lhxw4YN+7fPpVKpCKHW1tYhQ4aUl5fjXeGXH5Y/f/68kZGRtbX1h5uuXr1qY2OjqqqKEMrKypKVlRUKhWpqatra2p88PwCAngEBCwDwCRcuXAgODi4tLcUvR40adeHChXHjxn38XVQq9fbt2x1y2Lt37548eUK8/PPPPysqKkTL/PzzzzjT4Kzj6+uLQ8yjR4/mzp1bXV39ydqWlJQcP378IwGLTCbX1dUhhLy8vJYuXfrgwQNzc/OkpCQXF5f09PQJEybY2tq2tLSkpqbij87JyeFyuWPGjMnIyBg0aJCRkREOfJaWlqIBq7a21tvb+9WrVwghHo+Xl5dnYWGBExW2detWOTk54p6DnTt34oXY2NhOm+7Ky8svXLjw559/crncv//+m06nOzo64k2PHz/evHnz3bt3FRUVw8LCpKSkHj9+vHz58m3btnXYyfnz58+fP9/e3t7U1MRisdLS0rS0tD55DgEAXQcBCwDwCfLy8goKCnj5/fv3bDZ7zJgx9fX1x44d09PTI5FITU1N5eXlZDJ59+7dODbl5+fj2LRnzx4+nz916lQ8gJdMJotmjsuXL1OpVHNzc9yus2/fPqFQKBAI8Nb29nZiGSGEG2w+gsfj0Wi0srIyAwODx48fZ2dnf//99x3KlJSUFBcXNzY2Pn36VFlZOSwsLCoqSkdHh8VihYSE5OTkxMTESEtLKysrHzp0qLi4mEajXbx4sba2dvny5TU1NQ4ODg4ODlwu19TUFJ+TK1euBAUFqaio1NbWIoRcXV0rKysbGxvpdHp+fr6Ojg5C6MmTJ5s2baLRaFwul6jJ27dvieXJkycHBgZOnjy5tbX1ypUr+JS+efPm3LlzZWVl2dnZDg4OO3bsIMr/8MMPRUVFa9as+eOPPy5cuIAQWrZs2Zs3bz48JyNGjFBRUZGTk3v58uXatWvV1NQ++2vvHJ5qXEKGY0tUZbqujx0OgIAFAPgEEolENDIVFhZaWVnhvrzMzMzLly8jhOh0uo6OjoODAy4jLS2Nm6BCQ0OPHj06Z86cs2fPxsfHS0tLFxUVlZWVrVy5cseOHfr6+mQy2cvLy93dHSH0008/nT59OiYmZsSIER/WobW1VVZW9uP1HD58+MuXL/Hy7du3HR0dPwxYx44dS05Ofvny5fr167lc7ty5c3Nzc3ft2oW31tTUKCoq4uVnz555eHjY2NhUVVVxudynT5/m5ORkZ2cnJCRkZ2enp6ePGTMGITR27NgjR47U1NTMnTv31KlTVlZWqqqqampq+CRggwYNCg8P53A4VCoVt2DduXOHaMG6c+fOoUOH9PT0EELNzc0//vgjnU6n0+mamppWVlZ2dnbp6emKioqiWRMh9OOPPx49epR4mZeX12kANTExwf2qDx8+9PT0xN9jbGwsmUxevHjxx88nAKArIGAB0E+9evVq2rRp169f19DQwA0qLi4uV69epVAorq6ufn5+cXFxDx48OHXqlGhHWFFRkYWFBUJowIABOF19aNasWXw+/5tvvqFQKNHR0bt37y4sLCwrK6NQKEKhkMPh2Nvb02g0hJBoaFi4cKGioqKrq+vmzZs3btzYYfATn8/Hb/mIO3fu8Hi8mTNnhoSEeHl5VVdX37lz5/Xr101NTWQyeeHChTIyMocPHx40aNCGDRvOnDnj6uq6adOm+Ph4/Pbi4mLR4VNUKtXNze3cuXOxsbE1NTX+/v4BAQFTpkyZPHnyjBkziPykqqrq7Ozs7+8/d+5cOzs7DoejqamJK8/n83GiUlFRodPpHh4ecnJyeFNjY+PBgwdxK93EiRMtLS3x3uh0+q1bt/CyUCi8cOHC5s2bR44cmZWVlZSUVFZWRgxQU1FRIdq0BAJBQUGBkpJSbW2tiopKpycnMTExKCgIL1dUVHQ60A0AIEYQsADop2RkZJhMJtFhJysry2QyKRQKXr979+4DBw4cP35cTU3t/v37xLtqamrwICScADqdxVQoFF6/fj01NfXHH3/k8XiqqqonT56cNWvWsGHDqFRqc3Pz8uXLccnW1lYZGZn29nYpKanp06fv2bPn6dOnu3bt4nA4ZDJZNAS0tLR8MhPo6OjU1dXl5eVNmDABIeTp6ampqWloaKigoMDlcokwFxMTQ6fT161b19LS0t7e3traWlhYWFlZeebMGWVl5cuXL0+ePFlWVra1tTUzM9PHx+f58+cCgaC0tDQ9Pb2wsDA5Ofnhw4dtbW3E56anp0dGRpqZmUVFRRUVFVlbW8+aNSshISE2Nvbq1au4YY/JZEpJSYm+i7iRsK2t7datW5MmTUIIVVdXjx8/nlivo6NDoVDOnDmza9eugwcP4jPAZDLj4uJw49ns2bMRQgkJCU5OTnp6enFxcR1uIOByuX/99Vd+fv79+/ffvXv34sWL4cOHc7lcnKoBAN0HAhYA/RSZTCb+TyxQKBTcxBITE4P/5HfQ2NhIdKJt27ZNQ0Nj48aNH+45JiZmyZIlEyZMmD9/PkIIZw7R4e0Yl8uVlZVdunTp0qVLFRQU5OTktLW1T5w48erVK1tb25KSEhkZGVyypaVFdPAWVlFRcezYsf379xM57++//7ayssIjje7du/dh/dPS0uTk5Ozt7ZcuXRoYGHjt2jVpaWk1NbWZM2fu3LkzNDSUyWSOGzdOVlbW2tr61q1bZDK5sbHR0dFx3759mzZtwvHRz88PD67C90W6uroGBwdv376dRCKFhYWFhIQwmcy5c+eWlJSoq6sjhKqqqp4+fTp79mxZWVlc1ZSUlLlz5+I9NDc3FxcX6+npDRkyRF1d/cWLF6JHWlVVZW1traGhQZx2dXV1FxeXtLS0J0+ezJ49u6WlZceOHWfPnlVTU7O2tp4+fbq+vj7xXmdn54kTJxYVFU2dOrWoqOi3335jsVgIIdx+BgDoPhCwAACdGDlyZKfrW1papKWlv/vuu927d0dHR79+/brTYmQy+eTJk/Ly8gsWLMCDuN3c3Hbv3o3HLRFYLJaysvKTJ0+I3itMR0fHzs4uPj5+2bJleE17e/uHE0NcuXKFwWCItqKlpaXhRp2amppt27YdPXpU9F0CgSA4OHjLli2xsbHz5s3bsWPHihUrZs+evW/fPtwmZGVlhQeEVVRUODg44HiEh7oHBwfjO/s0NTUpFEpdXd21a9eGDBnS0NBw4sSJVatWPXr0aPbs2bjCaWlpovUUCoVSUlLNzc21tbW4tmFhYTjoCIVCKpWqrKyM64m3Hj58OCkpqbi4WFlZGQ/ed3V1ff78+YABAxBCmpqampqa5eXlFRUVCKHNmzd7eXnhkdGBgYHz5s27desWHq+2dOnSNWvWbNiwYejQoXFxcWPHjkUI3b9/39HRcfny5Uwm08/P79+6FP+NRA3BlqjKdF0fOxwAAQuAfgr/RW9oaMBNIzdu3Picd8nLy6empg4dOvT169c0Gq3TaaKw48ePT5w48ejRo25ubqNHj/7hhx+ysrL4fD5RQCAQFBcXS0tLV1ZWdpg7atu2bd9++214eDgRsJSVld+9eyda5uXLl7t27Tp+/DixhsPh/PHHH9nZ2QihqKgoOp3eIZMJhcLVq1fb2trGxsbiNdXV1e/fv9+1a9cff/zh6+vb2Nj47t27gQMH6uvrV1ZWCgSCdevWGRgYJCYmkkik9PR0b2/vzMxM0c7KmTNn4rnB3N3dr1+/bmFhsWfPng6nQk9P77vvvlu/fn1hYWGHqbxevXrV1tYmOpotICCgtLT02LFjQ4cOxcPOysvL8T2PH57kNWvWZGVlEW11P/zwQ2FhoYuLS0JCgq6ubnZ2dmxs7JUrV5SVlXG6Qgj98ccf69atCwgI8Pf3z8vLI25NAACIF8zkDkA/RafTjY2NT5w4wePxsrKy/P398bif9vb2DsPPBQJBc3MzXtbS0rp27dqiRYusra0tLS1HjRq1YsWKrVu3rlmzxtraGt9njmfCPHjwYFxcXFRU1KJFi3g8npqaGm4cIjCZzBEjRly8eHHBggUdklBMTMz48ePv3r2Lm3kQQubm5vfv379582Z7e3tbW9vDhw9dXV2nTJmC26uw+Ph4c3NznGAEAkF2dnZhYWFbWxuHw2EymTk5ORQKhRiidP369aKiotDQ0F9//fXixYu7d+/W1dXFrUcZGRm4zNu3b42NjSkUyvDhwxcsWODq6hoXF9fpULCioiIejzdo0CDc/YdX4tm2CNLS0tXV1eX/V1VVVYdjxxNojRgxghjUr6qqKiMjI5pl//nnn2PHjqWmps6YMeP27dtESSkpqbNnzy5YsAC3YLm5ua1fv37lypVEh2BSUlJiYmJoaKihoWFSUhKkKwC6D7RgAdB/HTt2bPXq1bt377axscHj0Hk8nkAgoNPpRKLCd8MRUyTgOcctLS3JZPK1a9eysrLKyso4HI6Ghsby5cvNzMwQQmfPnvXx8bl586aWltaCBQsaGxulpaVfvHjB5/MLCwuJPPHTTz8tXrzY1tYW35EnJSWVlZUlLS1dVlaGe82ePHmCO+kQQvr6+jExMc7OznQ6Ha8JDQ0VHf7V1tYWEhJy6NAh/DIwMHDbtm1z5szJy8uj0+l6enobNmwYPnw4zl7t7e03b968e/eurq6uu7s7nnE0KiqKyWRmZmZ+++237e3t1dXVb968GTJkSFFRUUNDg6GhYXBwsJeXl7W19bJly9zd3UUnYrCzs3NyctLV1R05cqSWllZ0dHRxcXFTU5PozKhCodDNzc3Ozk70KygoKMjKyhJds2vXLnd390uXLo0cOZJCoZSXl9+/f3/EiBEuLi74E69cubJgwYK4uLh3796tXr3aw8Nj8ODBNBqtvb2dz+c3iXGV6wAAIABJREFUNzez2ezz58+vWbPm1KlTx44dW7t2rYuLS1NTk7+//99//33r1q0v7RYEAPwHELAA6L+cnZ1LS0uJ8eMNDQ14PbGAzZkzZ86cOXh59OjRL168wE0mJBJp7NixRN8TYdiwYffv38ezOSCEVq9ejedDj4+Pl5eXJ1LR+PHjp06dSkx9uWHDhhMnTqSlpSkpKf366694ynjR3a5YsWLevHl4ZJKhoWGHGxgpFMqNGzdwGxKexeDYsWOdHnVzc3NdXd2BAwfwdOorV6708/NDCE2bNu2nn35ycnIaNmxYbW3txIkTTUxMzM3NJ0yYEB4ejueq2LNnT1paWlhYWFJS0pkzZ4h9ysjIXLp0qba2tqysrK6ubuD/Ev1c3BDYYTrQ2tpa0aCGEBo3btzbt2+zsrKqq6vl5eWNjIwMDQ2Jwf4IIWNj47t37+KZHaZNm3b//v3Xr183NzfjkV5KSkrq6uq2tra4PxcPzMfLjo6Ohw8fJuaMxSIiIuzs7GD0DwBiRxLj01U9PT3t7e0DAgI63RoREcFgMBITE8X1cV8XPT29pqYmPNdzz/D09LSzswsMDOx0az//OvoY+K6/FJ4Yoit7aGtr++TTGL8Knp6eDAbD3t7+I1dvURI127hEVabrJOpwVFRUFBQUKisre7siXzEYgwUA6He6mK6IWwT6gMTERHt7ewaDER4erqWlheN4b1cKgL4AAhYAAPRrOGPh5fDwcE9PT09Pz4iIiN6uFwBftz7yjzAAwEfk5uZ6enr2di3AV4PBYOA2rcDAwMzMTNGh+vgmU9EmQA0NDfzAaQCAKAhYAPR9enp6nzO8BvRbH7ZX4SFZ9vb2np6eM2fOnDhxYqdvvH37dmZmZo/UEYCvjJgDlhiHzIOu6/Q5caBP+vh3raioKCEjZ4EE6jDuiohWomVGjx7d6Xtv377d/RX8V33sp7qPHQ6AFiwAAOi/IiIiwsPD/y1XAQD+MwhYAADQT+GBVhCtAOgOELAAAKCfsre3Jx5GBAAQL5imAQAAAABAzCBgAQAA+Crh6SR6uxZi08cOB0DAAgAAAAAQMwhYAAAAAABiBgELgH6NwWDAJO8AACB2ELAA6KdwtIJ0BQAA3QGmaejLYGL9/uPzv2sGgyE6c7e9vX1iYmJ3Vg2A7tLH5u7qY4cDIGAB0F90iFaQrgAAoPtAwAKg78vNzdXS0up0E3QRgo/Lzc199uzZzz//jF8aGBh0KDBgwIDeqBcAkg4CFgB9n7m5ub29PX7kXAcBAQG9USPw1bhx44boSyMjow4FGhsbe7ZGAHwdIGAB0C8EBAQEBAREREQghIikxWAw8HPoert2QHLBwCAA/hu4ixCAfgTHLBaLFRgYiNeEh4fj1AXA55Co2cYlqjJd18cOB0DAAqA/ImJWYGBgeHg4XNYBAEC8oIsQgP4Ldw5CFyEAAIgdtGABAAAAAIgZBCwAAAAAADGDLkIAAACfS6JuKpSoynRdHzscAC1YAAAAAABiBgELAAAAAEDMIGABAAAAAIgZBCwAAAAAADGDgAUAAOBzSdRs4xJVma7rY4cD4C5C8MVSUlIqKipIJBJCqKWlZeXKlQoKCk+fPh01apRoMQaDER4efuLECXl5+cuXL8vJyZFIJKFQ2NLS4uDgoKmpiYsJhcL8/HwjIyNZWdlPfnR0dPT8+fNVVVX/rYClpeWjR48KCgpqa2sRQnQ6ncfjycjIIIT4fL6pqamsrGxGRoa8vLyUVCf/uhAKhc3NzePHj5eXlxddf+LEiXHjxg0bNuzDt1y/ft3JyYlCoSCEHjx4gE8Lgcvljhw5UkVF5cM3/vjjj999952iouInjxoAAMBXBwIW+DLv3r0rKipSV1cnkUg7d+5samoSCoXKyspRUVGPHj2iUChEwggKCjIwMNi8efOhQ4dycnJkZWXxptOnT58+fZoIWG1tbebm5gUFBSYmJh//6La2tvXr1y9YsOAjZWpqaqSlpQ8dOiQQCKSkpBobG1+/fi0vL9/Q0ECj0U6cOKGtrZ2amorzU05ODpfLHTNmTEZGxqBBg4yMjBBCHA7H0tJSNGDV1tZ6e3u/evUKIcTj8fLy8iwsLKhUKg5k0dHRv//+++nTp0kk0jfffDN+/Hi8CeNwOHv37u00YO3bt2/evHkQsAAAoE+CgAW+DJPJDAkJ+euvv968eUOhUJ49ezZy5EgqlcpgMJKSkm7evPnLL7/gRwirq6ufPn163LhxMTExo0ePrqmpwQFLVlb2w1TRaQQh8Pl8aWnpiooKOp3OZrNTUlLc3NyIiIa9fv26urq6paXl8ePHzc3N27Zta2tri42NnTRpkpKSUk5OjrOzs5mZGULo0KFDxcXFNBrt4sWLtbW1y5cvr6mpcXBwcHBw4HK5pqamCgoKCKErV64EBQWpqKjgxjBXV9fKysrGxkY6nZ6fn6+jo4MQIpFICQkJdnZ2UVFRfn5+CKGff/75w6MTCoW//PILn8/ncDgcDofH4/F4PDab/f3339NoND6f39LSkpqaKr5vCQAAQC+DgAW+jJOTU0pKyrRp02g02u3bt7W0tOLi4hYuXJifn79hw4bk5GSE0NWrVzdt2nTq1KmbN28uXryYRCK9evWKzWbjPbx580ZJSYnYYWtrK0II9+L9G19f3+PHj+NlMzMzW1tbR0fHDmXu3Llz+PBhNpu9ZMkSCoWyadOm1tbW4cOH460VFRX6+vp4+dmzZx4eHjY2NlVVVVwu9+nTpzk5OdnZ2QkJCdnZ2enp6WPGjEEIjR079siRIzU1NXPnzj116pSVlZWqqqqampq0tLTo58rJycXGxmZlZeEO0+zsbBqNhjfxeLyhQ4fq6+uTSKS4uDg9Pb2BAwcqKCgMGDBATk6OTqePGzdOTU2tvb2dx+N1+ZsBAAAgQSBggS8jEAiYTKaSkpK1tfW5c+fwsCoDAwMvL6+lS5fiaGJra5uQkPDw4cPg4OCVK1daW1vz+fyBAwcSO0lJSbGyssKFW1paPhmw9u7dGxgYePDgQRqNFhUV1dTUVFBQcOHChYaGBqFQ6Orqqq+vP3/+fBMTEysrqy1btmRkZDg5OQmFwuzsbLyHx48fDxkyBC9TqVQ3N7dz587FxsbW1NT4+/sHBARMmTJl8uTJM2bMIPKTqqqqs7Ozv7//3Llz7ezsOByOpqYmHrnF5/OpVCrRGTpq1Cg8/ozH4/n7+8vJyeGX165d8/LyOnjwIM5/uPCbN2+uXLmiqamppqa2cOFCLS2t7vmiAOgWEjXbuERVpuv62OEACFjgC6Snp/v4+IwZMyYrK6u8vFwgEOCA5ebmpqqqunXrVgsLiyNHjlhbWyOERo4cmZycbGVlVVBQICcnp6ysHBkZ6ejoePDgwZqamvb2drxPHLBExy19aMCAAQMGDHj27Nm2bdtIJNLu3buZTOawYcMUFRX5fD4Oaggh3H4WGRmpoaGB28bq6+ufPn3K5/Nx5S0tLXV1dVtbWzMzM318fJ4/fy4QCEpLS9PT0wsLC5OTkx8+fNjW1iZ6vJGRkWZmZlFRUUVFRdbW1rNmzUpISIiNjb169aqDg0NJScm1a9dIJNLYsWPNzMzwMC9fX9/o6Oj6+vrExMSNGzeKHsiLFy9cXFy2bt164cKFly9fds+3BAAAoPdBwAJfYOjQoRcuXGCxWCYmJqampqKbcJOSnp6eqqoqn8+vqKhob29vaWnJy8sbPXq0r69vZmbm1atX+Xy+g4ODo6NjTk4OfiPuIvzwnj4fH5+QkBDihsG3b99mZ2ePHz8eIRQWFvZh3dhsdnx8vK6u7v79+6OjoxkMBo1Gs7W1ff/+PR6JxWQytbW1dXV1ra2tb926RSaTGxsbHR0d9+3bt2nTJjxSys/PDw+uQgjdunXL1dU1ODh4+/btJBIpLCwsJCSEyWTOnTu3pKREXV0dISQtLa2kpJSUlEQmk5WUlAwMDMaOHWtqarp9+/bc3NzNmzdra2uLVvLs2bO+vr4bN2589+5dbGxsWVkZtGABAECfBAELfAEDAwOE0Pv376dPn/7HH3+Iblq0aBGVSiUmMjh//nxiYmJKSoqiomJTU5Ofn19UVBTuHLx79+5vv/2mpqaGSwoEgg8/6MWLF8eOHdu3bx+xJiMjY+LEiSoqKkKhMDAw0NfXV09PT/Qt+/fvX716dVRU1OTJk+Pj41etWrVhwwZvb2+BQLBjx46FCxdu2bIFD8ZycHDA8QgPdQ8ODkYIlZeXa2pqUiiUurq6a9euDRkypKGh4cSJE6tWrXr06NHs2bOXLVuGEEpLS+twQgwMDF6+fEkmkxkMxtixYxFChw8fHjBggJGR0blz5zocl7W19datWwcMGHD16lWE0MuXL6FTAAAA+iQIWOCLtbS0pKSk2NnZia7Mzc1dunQp8XL06NGPHj3C45B+++03RUXF48ePnzt3bs+ePampqVOmTCFK4gHvXC5XTk4Or+HxeD4+Pr6+vqJj4X/77bdvv/0WJ63bt2+Hh4d3qJWpqemSJUtwjEMIsVgsZWVlPz8/Pp+/Y8cONpvd0NBApVL19fUrKysFAsG6desMDAwSExNJJFJ6erq3t3dmZiZRB4TQzJkz8c2J7u7u169ft7Cw2LNnz7+dk/b29piYmN27dz948MDHxycoKKi2ttbOzi40NNTNzY1MJuNieF6G7Oxsf3//x48fW1hY/NcvAQAAgESDmdzBF3N1dWUymXjgdmZm5v379wUCwYMHD1xdXUXLCASCt2/fjhgx4uLFi9OnT3/x4oWrq+u0adNGjhy5cuVKLpeLSyopKRkZGR07dqy5uRm3Ki1YsOD9+/chISHE3vLz82/cuDFnzhwcZYqLi7Ozs7lcLp/Pf/ny5b179xBC3t7e+Pa93NxcJpPp7+/v6+tLpVL19PTc3d3xxKf79+/HO3z79q2xsTGFQhk+fPiCBQtcXV3j4uJE0xWhqKiIx+MNGjQIN7/hlXV1dUSBN2/eJCcnX758efDgwZWVld7e3mFhYQcPHjxx4kR4eHh4ePiVK1dEdzh16tSAgIDw8HAbGxtLS0txfzkAdC+Jmm1coirTdX3scAAELPAFWCzWn3/+mZqa+uLFCzabvW/fvpSUlAMHDrBYrNLS0tTU1PPnz//zzz/l5eXXr1/fuXOnkpKSlpYWi8Xy8/P79ddf8fxSUVFRra2tGzZsIHb7xx9/HDp0iEajaWhoGBsbq6qqPnz4UHQ2qf3793///fd4rixnZ+cffvhh48aN8vLysrKyU6dOjY2NJUq2tLRkZmb6+vo+evTo5MmTXC43OjpaSkqqvLz8xo0bOjo67e3tLBaLxWINGTJk4MCBDQ0NhoaGwcHBXl5es2bNunTpEh4TRrCzs3NyctLV1Z04ceLZs2fd3NwGDx5MzImKB86vX79eX1+/oqKivr5++/bteFKrixcvVldXz5kzBw+xx9ra2vbt22dkZEShUH7//fdu/roAAAD0GugiBJ1jMBgfDg+qqal58OABbiiaN28en8/PzMxECC1evBgvNDc3Gxsb6+npTZw4MSQkBA91wvf3aWlpqaqqDh48WEZG5uzZsw0NDcRubW1tq6qqSkpKBAKBiYlJh4mmEEIRERHEzX1kMjkoKCgoKKjTavN4vHnz5tHp9LS0NAqFkpKSIiMjY2ZmZmFh0draOnv27Lq6uokTJ5qYmJibm0+YMCE8PBxP2r5nz560tLSwsLCkpKQzZ84QO5SRkbl06VJtbW1ZWVldXd3A/4W3ysrKnj9/fvz48cuWLcvKyrp3715mZmZLS4tAICCTydLS0jIyMsRcXAghCoWiqKgYFxfn7Ozcte8HAACARIOABf4PBoORmZmJW6pZLFaHrebm5pGRkZ+zn3nz5om+nDlzJh7ShElJSSkrK4sWkJaW7vRJfxgxIv6T6urq8A2Jbm5ubm5ueKWcnByejAorLCz88I0UCsXDw8PDw0N0mgaCiopKp3PNi853OmbMGGLCiI9Yt27dZx4LAACArxcELPA/GAxGREQEMQIgMTGxt2v0X3T6COcvgh/bDAAAAHQF/C3p70SbrIiViYmJMH0AAOBDEnVlkKjKdF0fOxwAAav/qq+v9/T0/PCmFXt7+8zMTDymCgAAAAD/AdxF2H+JDjMHAAAAgBhBC1b/paenl5iYiLsIReftZDAYAQEB0Fj9FYG5cwAAQNJAC1Z/Z29vHxAQwGKxAgMDiVDVadchAAAAAD4TBCzwPwICAhITExMTEwMDAyFjAQA6JVGzjUtUZbqujx0OgIAF/o9OG7QAAAAA8EUgYIHOBQQE9HYVAAAAgK8VBCwAAAAAADGDuwh7FPFsvh7Q1NSUl5d369atTre+fPmyvLy8J+sDug9816DHCAQC/EjQ3q4IkrTKdF0fOxwAAauHKCgodPqQu+4jJSUlFAqFQuG/FSCRSPCb3DfAdw16jET9IElUZbpOog6HTCYrKCj0di2+bhCwekh+fn4Pf6Knp6ednR2+JfBD+LGDX+kDB0EH8F0DAICkgTFYAAAAAABiBgELAAAAAEDMIGABAAAAAIgZBCwAAACfS6JmG5eoynRdHzscAAELAAAAAEDMIGABAAAAAIgZBCwAAAAAADGDgAUAAAAAIGYw0SgAAIDPZW9v39tV+P8kqjJd18cOB0ALFgAAAACAmEHAAgAAAAAQs6+ji9DS0vLRo0cFBQW1tbUIITqdzuPxZGRkEEJ8Pt/U1FRWVjYjI0NeXl5KqpPIKBQKm5ubx48fLy8vL7r+xIkT48aNGzZs2Mc/nc1mz5kz5969e51u5XK5srKyHT5XIBDw+Xw5Obn/dLgAAAAA+Lp9HQGrpqZGWlr60KFDAoFASkqqsbHx9evX8vLyDQ0NNBrtxIkT2traqampOD/l5ORwudwxY8ZkZGQMGjTIyMgIIcThcCwtLUUDVm1trbe396tXrxBCPB4vLy/PwsKCSqXirbGxsc3NzRQKBSHU2NjIZDJjYmLwpra2Nmlp6RUrVuCXgwYNYrPZdDpdtMKNjY1GRkalpaU9eJIAAAAAICkkPWC9fv26urq6paXl8ePHzc3N27Zta2tri42NnTRpkpKSUk5OjrOzs5mZGULo0KFDxcXFNBrt4sWLtbW1y5cvr6mpcXBwcHBw4HK5pqamCgoKCKErV64EBQWpqKjgxjBXV9fKysrGxkY6nZ6fn6+jo4M/l8Ph1NXVkclknJYQQu/evcObBAKBaFB78+YNiUT6sOZCobCnThIAAPQQPNW4hAzHlqjKdF0fOxwg6QHrzp07hw8fZrPZS5YsoVAomzZtam1tHT58ON5aUVGhr6+Pl589e+bh4WFjY1NVVcXlcp8+fZqTk5OdnZ2QkJCdnZ2enj5mzBiE0NixY48cOVJTUzN37txTp05ZWVmpqqqqqalJS0uLfq63t3dmZqa0tDSJRKqvrz9z5sykSZNwbGptbbWxsSFKdpquPrIeAAAAAH2epAes+fPnm5iYWFlZbdmyJSMjw8nJSSgUZmdn462PHz8eMmQIXqZSqW5ubufOnYuNja2pqfH39w8ICJgyZcrkyZNnzJhB5CdVVVVnZ2d/f/+5c+fa2dlxOBxNTU08gorP51OpVByMOBzOyZMncY8hn8+vr68/efIk3kNLS8vw4cNlZWXfvn3r7u7eoXNQVGNj4/nz5w0MDLr/PAEAAABAgkh6wEIIJScnI4QiIyM1NDQQQq2trfX19U+fPuXz+Qih9PR0S0tLXV3d1tbWzMxMHx+f58+fCwSC0tLS9PT0wsLC5OTkhw8ftrW1ETtMT0+PjIw0MzOLiooqKiqytraeNWtWQkJCbGzs1atXHRwcqqqqnj17tmDBAly+qanp+vXrnp6exB7u3bs3cuRIbW3t06dPy8vLE41Vo0ePTkpKwo1qQqGQy+XiOgMAAACgX5H0gMVms+Pj43V1dffv3x8dHc1gMGg0mq2t7fv37/FILCaTqa2traura21tfevWLTKZ3NjY6OjouG/fvk2bNuGg4+fnRwyuunXrlqura3Bw8Pbt20kkUlhYWEhICJPJnDt3bklJibq6OkLo/fv32dnZsrKyCKHCwsLTp0/b2NiEhYVNnjwZIXT37l1ra2sjIyM9Pb1hw4a1t7e7uroePXrUzMyMSqXq6ekpKSlNmjTp9u3bRPclAAAAAPoVSQ9Y+/fvX716dVRU1OTJk+Pj41etWrVhwwZvb2+BQLBjx46FCxdu2bIFD8ZycHDA8QgPdQ8ODkYIlZeXa2pqUiiUurq6a9euDRkypKGh4cSJE6tWrXr06NHs2bOXLVuGEEpLSxP9UEtLS0tLS4TQn3/+uX///pSUFEdHx6lTp65aterIkSOlpaUxMTHa2tq4cEpKyrt370xNTYm3Kyoqjhkz5vDhwzt37uzxEwYAAN1IooZgS1Rluq6PHQ6Q9IBlamq6ZMmSqKgo/JLFYikrK/v5+fH5/B07drDZ7IaGBiqVqq+vX1lZKRAI1q1bZ2BgkJiYSCKR0tPT8Vh10fmoZs6ciW9OdHd3v379uoWFxZ49ezp8KJfLPXfuXGRkpImJCULIwcFBWVn54MGDRkZGjo6OWVlZSkpKuOT79++DgoIOHTrUYR6snTt3Ghsbu7q6wi8MAAAA0A9J+kzu3t7eNBoNIZSbm8tkMv39/X19fXFPnLu7O76vdf/+/bjw27dvjY2NKRTK8OHDFyxY4OrqGhcX1+lsn0VFRTweb9CgQbgJCq+sq6vDC/n5+X/99dcvv/xy7tw5LS0tPFEWQmjr1q2lpaWFhYW4WFNT09SpU52dnWfMmNFh/5qamnFxcW5ubk+fPu3O0wMAAAAASSTpAQtraWnJzMz09fV99OjRyZMnuVxudHS0lJRUeXn5jRs3dHR02tvbWSwWi8UaMmTIwIEDGxoaDA0Ng4ODvby8Zs2adenSpdbWVtEd2tnZOTk56erqTpw48ezZs25uboMHD8btVQgha2vrc+fO0Wi0hIQEFos1bdo0Q0PDmJiYoKCgiIiI6dOnz5gx48mTJzwez8nJ6ciRI2VlZb///ntqamp9fT1xu6KHh8eRI0eUlZV744QBAAAAoDdJRBchg8GIiIhgMBiJiYmd9qnxeLx58+bR6fS0tDQKhZKSkiIjI2NmZmZhYdHa2jp79uy6urqJEyeamJiYm5tPmDAhPDwczwW6Z8+etLS0sLCwpKSkM2fOEDuUkZG5dOlSbW1tWVlZXV3dwP8l+qFJSUlv3749cuSIjY3NsGHDcCegh4fHy5cvjx071t7erqamduDAAYQQhULJzMxsbm7evn07bvHC8AAvAAAAAPQ3vRywiGiFEAoMDPy3EUt1dXU437i5ubm5ueGVcnJyBw8eJMoQPXeiKBSKh4eHh4eH6DQNBBUVFRUVlX+rW0hISKfr5eXl8f2JBD09vZ9++unfjxIAAPoIiZptXKIq03V97HBA7wQs0VyFBQYGBgQE/Fv5Th/h/EXwUwUBAAAAAHpAT8eOD6MVDux2dnYdVgIAAAAAfKV6LmBVVlZWVlaKzocuKiIiosdqAgAAAADQrXouYOnp6enp6WVlZUVERISHh3fYmpiY2GM16Sf+LcsCAAAAoLv1wsikgICAgIAA3GSFkxaDwfD09ISMBQAAEk6ihmBLVGW6ro8dDui1ebBwzGKxWIGBgUTG6q3KAAAAAACIUe9PNErELAjvAAAAAOgbJGXygo/M0QAAAAAA8HXp/RYsAAAAAIA+BgIWAACAz8VgMCRnzkKJqkzX9bHDAeLvIiwtLRX7PsF/Bl9H/wHfNQAASA5xBiwpKanExERitgWhUIgQIpFIRAFdXV0xfhz4OPg6+o8O3zWHw8EPOyfAdw0AAD1MnAHr/Pnzoi/huZW9C76O/qPDdx0REQF3jQAAQO+CMVgAAAAAAGJGwj1HAAAAAABAXKAFCwAAAABAzCBgAQAAAACIGQQsAAAAAAAxk5RH5QCspqamt6vwHw0YMKC3q/DVaGpqamlp6e1adAmVSlVQUOjtWgBx6o6Lz+dfFnrl0ifh1etWcMXuAd0YsGBegC/y7Nmz9PRbsrK0btp/UxMHIaSgIP8ZZf+L5maei8ukkSNHdtP++4aWlpbk5JRXr1gUSjf+6lVVVXX3xFdtbW06OlozZ06nUqnd+kGgB3zRxeeLriSfc1noyqWvi5e17q7el+ruq7QouGL3gG68ykO0+nzV1dW3bt2dOXNBz/wad4fmZl5q6nkNDQ0tLa3erovkunEjXVpa0dPTpbcrIgaPH2elpV2fMcOjtysCuqRbLz6fvCz07qVPwqvXreCK3QNgDJZE+OeffwwNjb/q32FZWZqhoXFFRUVvV0SiFRaWWFuP6e1aiIe19ZiSkpe9XQvQVd168fnkZaF3L30SXr1uBVfsHgABSyIIBAIpqa/+uyCRpAQCQW/XQqK1t7f3dhXEqY8dTv8kEAhIpG68+Hz8stDrl75PVq9bT07vgit2d+uzPzoAAAAAAL0FAhYAPUfkWdsAAAD6ss8NWPX19dbW1llZWcSanTt3bt68GSHE5/N/+uknR0dHEom0aNGiBw8e4AIcDsfPz09PT49EIvn7+7958wYhxOVyra2tk5KSVqxYoaGh4ebm1j3HBQAAAADQaz43YNFotCdPnrS1tRFrampqqqurEULx8fFbtmwJCwsrKioaMGCAnZ1dbW0tQmjRokV37txJSkp68ODBu3fvJkyYIBAI8H48PT2NjIwSExO3b9/ebYcGAAAAANA7PneaBjzbjYyMDLFGRkYG561Xr14NHTp0zJgxFAolPDx88eLFcnJyubm5ycnJr1690tbWRgjZ2NhYWFj89ddf06dPRwiFhoZu27at2w4KAAAAAKA3iWEerLVr1x4/flxHR8fDw8PFxWXatGkyMjJ5eXkIoWXLlhHFKisriYDl5OTU9c8FoM8QCARCobBbZx8F4Eu1tbV1+jPZ3t5dFpBeAAAZXklEQVTeB+56FpfW1paKinI6na6urtnbdQGS5b//ktTV1eEFFRWVkpKS+Ph4fX39AwcOGBsbc7lcWVlZdXX1IBFJSUk+Pj74LdLS0mKqfz/V3Nysr6+cmXmvtysCxOP06ZNGRqr6+srEf3PmuDGZTz/+rrS0VH195dLSYh6Pp6+vfP/+35/8oLa2NjMzXTMzXdHu/o9zdrb19f3+MwuDvqTDz+TixZ4JCWeFQuHw4fqi68eONYuMPNDaKs6nPy1fPt/La6roGl9f73nzPP7vmu+dnW0/fC+Hw9HXV374kCHG+nTq9etXS5d+M3iw+qRJNqNHm86Z4/b48cPu/tA1a5bp6ysXFOR9ZnniKtHN9QKd+LKAVVZWhhfevXv366+/4uWEhISSkhInJ6edO3c+evQIIZSYmDhhwgQ2mz1y5EiX/1VVVSUUCrvhEPojWVlZhJCiomJvVwSIB52uqK9v+PBhHv4vMTFNW1vHw2NSY2PDR95lYTHy0KFoNTV1Go2GEKLR5D75QXfuZOCF27fTP7NuQUHb585d9JmFQV8ycKBaSMhBBoPJYDAvX86YONElKGi9n9/3dLri3r0R2dkF2dkFd+8+DQz84eTJ6J9//lGMH+3hMSsrK5P4Z4BQKPz775uZmfe4XC5R5tmzRzNnen74Xvzr0N3Pyqyo+MfFZWxbW1t6+oOysvcPHuQaG5vMnj2lW4NdTc37K1cu6esbXrgQ95lvIa4S3Vcr8G++IGC5u7v/9NNP+fn5OTk506ZNww9WQwj98ssv3t7eDAajvr7+ypUrbDZbVVVVUVFx6tSpCxcurKioaGhoiImJ+e677169eoV31dra2m1H1Gd9GE/78Ax4/Q2ZTJaRkdXS0sb/2djYhoQcRAh1uFgLBALRiQF1dHTnzftWUVEJv/ycXpu4uNPz5y9ZsGDp77+f+sy6TZnibm8/7gsPCPQFVKq0urqGrq6+rq7+yJHWK1asSU5OT0r6s61NMGDAQA0NTQ0NTQODQd98s/Cbb769fTtDjB/t6DgRIZSby8Qv8/JevH//VktL+8GDu3jNmzesly9LJkxw/vC9+Behuy+P4eF7Bw82Pn36vLGxKZlM1tbWOXDgRxcXt5CQLd3XlHDp0vlhw8x37NgXFxfb3Nz8OW/pcJUAPekLfgTDw8M5HI6ZmdnMmTO/+eabkJAQPI/zxYsX7e3tHRwclJWVf/zxx+jo6KlTpyKEzpw5o6ysbGBgoKSktH///qSkJDc3Ny6Xq66u/pk/GQAhxOPxQkO3jho11MBAZfFiT9GW3rq6mh9+CBw71mzUqKG///4b/tN7+vTJ0NCtp0+fnDPHzcxM99692wihy5cTp093wo35Fy+eI/Y8bdqEGzeu4v1v2rSusDD/0aMH8+fPMDPT3blz86tXlbhkVVXF6tXfmpnpjho1NDb2BHx9PQD/211O7n8apR4+ZEyf7jRo0MBBgwauXfvdmzcshNDz50+mTZvQ1NQo+sbq6jeRkQccHUeamenu3r3t1asqYtPr16+uX//Ly2uhl9fCmzevEd8vQsjff83ly4lHjhyaNm2CmZnu998vKS0twpuCgtb/9tvxnjpuINFGjRo9Y4Ynh9PYYT2LVTVkyFAxfpC6uubw4ZYMxh388ubN625uHlOmeKSnX8NrGIw7CgoKw4dbcrnckJAtY8ea6esrh4Zuffu2GheorX0fFLQeXx43b95YX18nxuo1NjZcunTe339LhzFqwcE7c3Ke5+W9+PjvlFAoPHMmxtnZVl9feeXKhfn5uXj9qVO/hIZuvXfv9tKl35iZ6S5aNLuwMJ/YOX7XwoXLJk1yQQhdu5ZKbDp9+uT+/buuXLmEr95eXlNv3vyfE9XpVQL0jC8IWKampllZWc3NzaWlpZs2bdrx/9q797iY0gYO4E/NTNk1CVMJrUhrFzHbhS6IUiG3eMWybrubJa9eNNYSdrUslm1Zt0g2l3KJtb1rybYU0QxF5LK6KIpSTQ3VSJep3j8e7+xsKqOeivp9P/6Yc+bMnHPKefqd53a+/jooKIgQ0r59+40bNyoUipKSkqioKGVHKz09vdDQ0GfPnj19+jQ1NXXChAn0D0ZOTs7w4TXcdkCNFi+eGxNzYe/eQxcuXOvRo+fYsQ45Odn0LQ+PaXK5fNeuA0uXrvLx8Y6OjiSEFBc/Cwzcefz44QULFu/YEdS/v/nhwweWLVvo4TE/Li5xx46ft2//0cfHm7Yz3r6d8PnnU42Ne+zbd/TJE9nHH4+bM2fGlCnTQ0LC0tJSPvvsY9qhYezY4To67U6ejNq0aVtY2LFvv/Wp8VAxi2ZDlJaWPHkio/8kkktffbXQzExoazuENka4u7sOGGATGXklOjo+Nzd79+6ttK/x7dsJtL1YaePGby9fvrRv39GQkLA7d255eXko3zp+/JCZmbBPH7PevfuamQmPHfu7lUEqzV2w4PNr12LXrNl47Njptm35Y8c65udLaWKru6USWhVzc6vy8vKEhPiIiNMREad/++2XRYvmXbp0/osvFtS4fb2LBWfnURcuRNLX4eEnnZxGOTg4h4efpDf2ly6dHzVqHIfD+c9/PK5cEQcEBP/3v2dlMpm7+2h6qzlnzieGhl1CQn4NCjqSnJw0ffrEGiuW6nd4GRkPCCFCoUW19aamvQghDx6k1X1N7dsXsGHD6hUrfKOiYs3MhCNGDKJ3O8+fFx85csDLa86kSVMPHvyFy+XOnTtD+eWxsZK0tHtjx07k8bRmzPA4eHCv8q3i4mf+/lvWr189Z878sLCzzs6us2dPoXfXNZYSDTl3UN9rj1pSnalBFYfD4XA4L69X3oJDPdy7l3T69G+HDoVZWAwghHz99To+X6eoqKBTJ0NCSP/+Fps3+2toaJibW/3xx6mLF6McHJw1NTl8Pj84+ISubnv6JWvW+MyY4TF+/CRCSKdOhitXrpk1y33Vqu9oTwVv7+WzZs0hhCxYIBo3bvjKlWsnTJhMCPn00y9mz56iUCjCwkINDAy+/34rl8vt2fN9odDc0vKDxYu/0tfv1Nw/nhYlI+OBUGiiXBwyxCEo6KiGhgYhRFe3fWDgISenkbTtY9q02YGBO5WTp1RrCsnMfGRmJjQ1/YAQsm3bHplMRtcrFIqgoACRaDldnD79s02b1i5YIKK34Jqamt26dd+zJ1hLS5sQsn795mPHDoWGhnh6LtLW1q7x0obWSU9Pv6KiIiLidEJCPJ07OiEh3sxMyLxJzt7eYfPmDcXFxUVFhbdvJwwdOrxdO938fOmtWzf69fvozJmTmzZtT05OjIg4HReXSItEodDC2dkuKupPQoib22Rv7xf/27/99ntX16FXr14ZMKCGTvH1kJ2dRQjp0KFjtfUcDqdbt+55edI6rql58xZu2rTmhx92OjqOIIQsWvTVkydPgoJ2r1y5Vlu7jVwuDwoKtba2o2+NH++Un58nEOgRQg4fPjBmzISOHQWEEHf3qf7+W1JSEt9//0NCiKYmhxBy8OAvPXr0JIT06vWhWBy9e/e2wYOH1VhKQNNorGHhFRUVhYWFtCM2Sud6S05OJIQoCwUul7t06d9Ts86d66Xx/3uQDz7onZeXS1+bmw9Qpqvc3Gy5XO7i8vd4HFopEhcnsbd3JIQoOzEYG/cghAwb5kQXjYyMCSEVFYqkpLu5ubmzZrmrHphEcmncuBq6l0K9mZiYhodfJITk50sPHtzr7/9TaemLplhd3fZ9+/b76aeN8fFxWVmZjx8/eu8949q+58svV0yYMOL8+XMODk6DBg0dMsSBro+OPpefL5VKc/fv30MIefJElp8vPX/+rJPTi6cpjB49nv4lIIRoaWm7uo5LSkps/POGt0xm5kMul/fllytHj3ajawoKnq5a9eXnn0+NjIxlOH2DUGjJ5/OvXr2cnf1YKLSgEcrVdVxU1J80iNjZ2dM2RG9vT+WnHj9+FBkZQQgZOfLvIYd9+vTj8/mpqSmsApaengEhRCbLEwj0VdcrFIqMjAeGhl3oYo3XVG5ujlwuDwjYFhLyoh9kZuZDhUKxcuVaQoiZmZCmK0JIz57vE0Lk8iKBQE8myz9x4oibmzu9fqmjR4Ppp+gHabqiHB1dtmzZyORkod7YB6w7d+7Ex1/Pyspu21aHEPLsWVGXLoYWFuZ9+/Zlvq8Wj8vl8fn82hKqnp5+jet5PK1qr1XXcLkcPp//9OkTuqit/Y+q47Zt21b7tjZt2giFFh4efxdhnp4L6W0TMMThcGmdopFRt+XLfRMT//rhh++2bt1DWxxcXe1dXMbMnevVtet7EslF1UK2GktL61u3HojFF+PiJN7e862tbXftOkC7t5uYmKan309PfzEW2MTENDg4SBmw6E2wEpfLIwTDfqG66OgoWimipKvbftYsjwkTRjx6lNGtW3dWO+JyuU5Oo2JiolNTk5VpycXFdffubbq67a2sbDp06Kit3UYg0Pf0XKj6QX39TsHBPzfqTF30NK9di3NxcVVdn5T0FyGke/cXVdE1XlP0p/fZZ/NoXRSlzGG1TaYVFnaMz+drampev36VrrG1HXzo0D6RaAUtN6r9meDxeKWlzxmdLtQTy4CVlZV17tz5qipur17mw4YZKddnZj66du1OfHzC8OHD6MTuoCYbm0FyuTw29rJyGFdw8M/m5lZ9+/ZX8xs6dOhoYTHg7Nkz/fub0zVXrojlcrn6Ccne3lEiuUQH9dBZ9fbvD+zdG3G5cS1YIPrXv0Z6ey/v3t0kPPy3Xr16b9nyoqd5ePhvtX2qoOBpePjJ0aPHjxo1dtSosZMnT3dxsUtPv8/jaUVEnN6//5iDg7Ny40uXzk+b5vboUYaRUTdCSGTkH0uWrKDFtEJRHhn5x/z5i5vkXOGtcepUmFgcrayhUcrISH/5bq3hhg1z2rFjc0pKokj04skf9vaOixbNO3Hi6KhRY2kJmZ8v7dOnnzKsHDt2iFYvRUZGKEutv/66JZfLTUxMWR1Yhw4d3dzc/fy+s7d3VO3etG7dN1ZWNr16vShda7ymaJmso9NOeXhicfSzZ/I6dke7t8+cOWfZsm+UKwsKnvbr1z0i4hTt/pGQEJ+d/djQsDN99+zZM/37V+8iBk2MWcZPT08/cuS4kZGpg8OIrl2NVN/q2tXIwWGEkZHpkSPH09PTWe2xNWjXTtfJaeT69d8kJd0tKioMCQny8fFWtqarznZRVVVJFysrK6vN+Ddx4pTAwB3R0ZElJSXJyYkbNvg6Oo7o3bsv7QpaWfli2D99QTuQKl9UVlZZWlqnpiavX7+6sLAgJyfb19fnxx/XqU4WACxUVVT8Y+ZPKytrExPTPXt20PaI5OS79++nFhQ83b9/z4YNvgpFhXKkoUJRTn8dCkW5pqbm0qVe69evvncvKT9fSqNYu3a6oaHBAoG+srmQsrUdIhDoHz0aTBfv3r2zdKnXgwdpmZmP1q37Ri6XT5kynRBSVlZe27wq6CTbspWVlT94kHbz5vWbN6+fO3fG13e5p+fsJUtWaGiQjIz0u3fv3L175+bN63v27NiwYbWt7WDaisfQ4MFDU1ISBQL9Dz/sQ9fo6RlYWdkkJMTTHg58vo6Dg7OXl0dm5iO5vOjw4QMi0XzaQSowcOfevf5SaU5qavLatavMzIRWVtYMj00k8snNzZ04cYRYHJ2Xl3vnzs1582ZevBjl67tB2XOjtmtq5Mixy5YtvH79amlpyeXLMR4e02JjJbRrjWrpTS/wysrKy5dj0tLuubtPUz0AXd32kyZNDQrarVwzb97MGzeuSaU5oaEhZ8+emTvXS7WUYHjuoCY2NVglJSXh4X8OHDjE2Niktm1MTT/g8Xjh4X/Onj29xhENUKOAgIO7dm11drb9f5vOiT59zJ4/fy4Q6Kv+2dPQ0FRWiVerG5850+O994wXLpybny/l8/lubpOXL19Nf2sCgT6dzIwQUlpaJhDol5S8qFWuqFAIBPrFxc8EAr2jR3/38fH2999CCLGysvnllz/wUAi2KioqOZx/XIwaGhpTp876+Wd/2tklJiZ66FBLQoiDg/OSJStOnQqjhaZAoF9cXEwbSkpLS3V02l24cO2771Y5OlrTDivBwSd0dHROnvx18uRPqg0p53A4U6fOPHnyhJeXiBCycuXa7OysKVPGPH6cNXCgbXh4NB3HoKXFwxTBrZOWFi8w0D8w0J8Q0rGjoG/ffqGhp2xsBoWEBG3btikgYDvdrHPnLuPHT2qM+k4DA0M7O3uh0FxDJcuPHDlGJsvr06cfXdy8edeKFSJbWzPachcQEGxtPUgg0F+37sf9+/f4+i4nhIwe7bZ1awDbRkNj4x6//x7p57fu44/H0XlNbWwGX7x4nXZmpWq7pjw85hcUPP3kEze5XM7n8z09F3l6LqIBS/UiLSujZXLJr78etbAYQLtkqRo9evySJV50lgdX13FDhjiIRP9OSUk0MTHdvn0vra5WLSUYnj6oQ4NJ0RkdfVEqlQ8caPfKLWNjxfr6fHt7zFv4D2KxWCp9ZmExsLYNysvLysrKX+4gpb6qqiq5vIjP19Gob7VDYWGBlpZ2HeE4Pj5WX7+tnd2r/xu0Wn5+WyZP/rR+n6XVVGoOGSkvL9PQ0FT/4YazZrk7OrrQ8aQVFRVq7iU0NEgkWqTmLuDNJBaLc3OfWVrWWvg0UN3FwiuLPjU9f/5coSjX0an+cAuFQsHhcOoo9F55eK/84ZSVlRYWFnTsqFctwL3ymlIoyouKil4eilgPu3dvu3btSkBA8GtdvyixGxuDRF9WVhYTc/mjjyzV2fijjyxjYi4ra01ATTyeVkPSFa0R0dFpV+90RVuaUPXYjGqbCaVGPJ7Waz06urS0VHlVYtgvvHXeeeedl9MV7SnfkEJPHVpa2np6Bi9Xj73ymuJyeUzSlfIOvI59QbNgELAePnzYqVMX5SCIumlpaXfq1OXhw4dqbAsATaRjR0G1oWEA0BBNeU1pa7dp375D0+wL1MegD5ZMJtPVfY1fra5uB5lM1rNnTzW2BYCmsHOnuo8mBAB1NOU1NWfOv5tsX6A+BjVY5eXlHA5P/e05HB4e9gwAAAAtGIOA9e67777WhGalpc/x/BwAAABowRgELAMDA5lMqv72MpnUwMCg4fsFAAAAeDMxCFhdunQhpEIqzVFnY6k0h5AKzOdeTWOPc2kyLeZEAFqJJrhm69jFm1BivOGH16ha/Ak2LzYTr9nYDLhxI06dLW/ciLOxGcBkpy2JoaFhVlZGcx9FQ2VlZXTu3Lm5j+KN1qNH95SUpOY+CjZSUpJ69qx1YmF4WxgaGj5+3IiFT93FQrMXfa88vEb94TQvlNiNjc1Eo4SQ48dPaGi8U/dco7Gx4qqq55MmTWSyxxYmKirq1q27AsHb2nial5fbv39vBwcHNbZtvXJzc3///YymJlf18dtvo/LysspKxZgxI9Hc3wI0XuGjTrHQjEXfG354jQoldhNgFrAUCkVo6HFCtKyth7w8+UdZWdmVKxcJKZs8edJrzX/YquTn5+fl5TX3UdSTnp6eQCBQY0MgaWlpb/tAWh6PZ2KC6quWo5EKHzWLheYq+t7ww2tUKLGbALOARV24cEEiievRo1fXrt3atdOlz1fJzMy4fz/Z1nbA0KFDGe4LAAAA4M3EOGARQgoLC1NTU9PTH964caOyssLCwtLY+D1TU1MdHR22OwIAAAB4M7EPWEpisZgQggdJAgAAQGvDZhQhAAAAACghYAEAAAAwhoAFAAAAwBgCFgAAAABjCFgAAAAAjCFgAQAAADBWz0nV/fz81NlMLBZLJJJXbiYSiep3GAAAAABvIMyDBQAAAMAYmggBAAAAGEPAAgAAAGAMAQsAAACAMQQsAAAAAMYQsAAAAAAYQ8ACAAAAYAwBCwAAAIAxBCwAAAAAxhCwAAAAABhDwAIAAABgDAELAAAAgDEELAAAAADGELAAAAAAGEPAAgAAAGAMAQsAAACAMQQsAAAAAMYQsAAAAAAYa8SAJZFIJBJJ430/AAAAwJupsQKWn59ftRcAAAAArUSjBCyxWEwIEYlEIpFIuQgAAADQSrAPWGKxWCKR0GhFY5ZEIkHGAgAAgNajUWqwlOlKuYjOWAAAANB6MA5Yfn5+dnZ2L68XiUTojAUAAACtBMuA5efnV63uShUyFgAAALQSzAKWn5+fra1t3dvY2toiYwEAAECLxyZg0dhUY+OgKjs7O2QsAAAAaPEYBCwamOpoHFRFQxgGFQIAAEAL1tCApZzySv2PYOIGAAAAaNkaGrBUp7xSHyZuAAAAgBasQQGr7mGDdcOgQgAAAGipNKqqqur3SbFY/Mpe7a/UkIgGAAAA8GaqZw0Wq8onDCoEAACAlodbv4/Z2to2vPpKnZkdAAAAAN469W8iBAAAAIAaNcrDngEAAABaMwQsAAAAAMYQsAAAAAAYQ8ACAAAAYAwBCwAAAIAxBCwAAAAAxhCwAAAAABhDwAIAAABgDAELAAAAgDEELAAAAADGELAAAAAAGEPAAgAAAGAMAQsAAACAMQQsAAAAAMYQsAAAAAAYQ8ACAAAAYAwBCwAAAIAxBCwAAAAAxhCwAAAAABhDwAIAAABgDAELAAAAgDEELAAAAADGELAAAAAAGEPAAgAAAGAMAQsAAACAMQQsAAAAAMYQsAAAAAAYQ8ACAAAAYOx/sdApT27/MSoAAAAASUVORK5CYII=;" vertex="1" parent="1">
          <mxGeometry x="25" y="400" width="520" height="475" as="geometry" />
        </mxCell>
        <mxCell id="jCeaHCtWG9kB4qD1j8BQ-6" value="webサイト" style="verticalLabelPosition=bottom;aspect=fixed;html=1;shape=mxgraph.salesforce.web2;" vertex="1" parent="1">
          <mxGeometry x="575" y="250" width="60" height="60" as="geometry" />
        </mxCell>
      </root>
    </mxGraphModel>
  </diagram>
</mxfile>
